/* XPM */
static char *help_xpm[] = {
/* width height num_colors chars_per_pixel */
"    18    18        2            1",
/* colors */
". s None c None",
"# c #0000ff",
/* pixels */
"......######......",
"....#########.....",
"...###########....",
"..####.....####...",
"..###.......###...",
"............###...",
"...........####...",
"..........####....",
".........####.....",
"........####......",
".......####.......",
".......###........",
".......###........",
"..................",
".......###........",
".......###........",
".......###........",
".................."
};
