/* XPM */
static char *next_xpm[] = {
/* width height num_colors chars_per_pixel */
"    14    14       58            1",
/* colors */
". c #081008",
"# c #181c18",
"a c #182010",
"b c #182018",
"c c #202420",
"d c #282428",
"e c #282828",
"f c #282c28",
"g c #284020",
"h c #284028",
"i c #304428",
"j c #384838",
"k c #385030",
"l c #385430",
"m c #404440",
"n c #484448",
"o c #484840",
"p c #484848",
"q c #504c50",
"r c #507848",
"s c #587850",
"t c #587c50",
"u c #588050",
"v c #605c60",
"w c #606060",
"x c #686c68",
"y c #706c70",
"z c #707470",
"A c #709468",
"B c #709868",
"C c #789870",
"D c #78a070",
"E c #807c78",
"F c #808480",
"G c #80a470",
"H c #80a878",
"I c #888c88",
"J c #88a878",
"K c #88ac78",
"L c #88ac80",
"M c #909090",
"N c #90b488",
"O c #989c98",
"P c #98ac98",
"Q c #98b890",
"R c #a0aca0",
"S c #c8ccc0",
"T c #d0d4d0",
"U c #d8e4d8",
"V c #e0e8d8",
"W c #e0e8e0",
"X c #e8ece8",
"Y c #e8f0e8",
"Z c #f0f0e8",
"0 c #f0f4f0",
"1 c #f8f8f8",
"2 c #f8fcf8",
"3 c None",
/* pixels */
"33333333333333",
"3cw33333333333",
"3eReF333333333",
"3e2XFoM3333333",
"3f20YWzxx33333",
"3e200YZSOxq333",
"3p10ZZWVUTPdw3",
"3bQLLHJDCrkcw3",
"3bNKHGAsimn333",
"3#NGBthjy33333",
"3#DugaI3333333",
"3.l.E333333333",
"3cv33333333333",
"33333333333333"
};
