/* XPM */
static char *no_xpm[] = {
/* width height ncolors chars_per_pixel */
"17 17 10 1",
/* colors */
"  c #E15555",
". c #DC3939",
"X c #D71D1D",
"o c #D20000",
"O s None c None",
"+ c #FAE3E3",
"@ c #F5C7C7",
"# c #F0AAAA",
"$ c #EB8E8E",
"% c #E67272",
/* pixels */
"O# OOOOOOOOOOOO @",
"+oo OOOOOOOOOO oX",
"O#oo OOOOOOOO oo#",
"OO#oo OOOOOO oo#O",
"OOO#oo OOOO oo#OO",
"OOOO%oo OO oo#OOO",
"OOOOO oo  oo#OOOO",
"OOOOOO oooo#OOOOO",
"OOOOOOOXoo.OOOOOO",
"OOOOOO oooo OOOOO",
"OOOOO oo##oo OOOO",
"OOOO oo#OO#oo$OOO",
"OOO oo#OOOO#oo#OO",
"OO oo#OOOOOO%oo#O",
"O oo#OOOOOOOO oo#",
"@oo#OOOOOOOOOO oX",
"O##OOOOOOOOOOOO%+"
};
