/* XPM */
static char *previous_xpm[] = {
/* width height num_colors chars_per_pixel */
"    14    14       60            1",
/* colors */
". c #081408",
"# c #101008",
"a c #101810",
"b c #181810",
"c c #182410",
"d c #202020",
"e c #202420",
"f c #282428",
"g c #282828",
"h c #283c20",
"i c #304428",
"j c #304828",
"k c #305028",
"l c #384430",
"m c #384438",
"n c #385030",
"o c #404840",
"p c #484848",
"q c #484c48",
"r c #505050",
"s c #507448",
"t c #587850",
"u c #606060",
"v c #608858",
"w c #609058",
"x c #686c68",
"y c #687068",
"z c #689458",
"A c #689460",
"B c #706c70",
"C c #709860",
"D c #709868",
"E c #709c68",
"F c #787c78",
"G c #78a070",
"H c #807c78",
"I c #80a470",
"J c #80a878",
"K c #888488",
"L c #888888",
"M c #88ac78",
"N c #88ac80",
"O c #909090",
"P c #909c90",
"Q c #a0a098",
"R c #a0ac98",
"S c #d0e0d0",
"T c #d8d8d8",
"U c #d8dcd8",
"V c #d8e0d0",
"W c #d8e4d0",
"X c #e0e8d8",
"Y c #e0ece0",
"Z c #e8ece0",
"0 c #e8f0e8",
"1 c #f0f0e8",
"2 c #f0f4f0",
"3 c #f0f8f0",
"4 c #f8f8f8",
"5 c None",
/* pixels */
"55555555555555",
"55555555555uf5",
"555555555KgPe5",
"5555555OrL3Wf5",
"55555ByH042Ve5",
"555qyQT2222Se5",
"5ueRUYXZ021Vl5",
"5ufktDIJNMNDb5",
"555ponsDGJJEa5",
"55555xmhvAJCa5",
"5555555Ociwz.5",
"555555555Faj#5",
"55555555555ud5",
"55555555555555"
};
