/* XPM */
static char *yes_xpm[] = {
/* width height ncolors chars_per_pixel */
"18 19 10 1",
/* colors */
"  c #55E155",
". c #1DD71D",
"X s None c None",
"o c #AAF0AA",
"O c #72E672",
"+ c #39DC39",
"@ c #00D200",
"# s None c None",
"$ c #C7F5C7",
"% c #8EEB8E",
/* pixels */
"###############XoX",
"#############$+@@$",
"############$@@@O#",
"###########X.@@ ##",
"###########+@@.X##",
"##########O@@@X###",
"#########$@@@o####",
"#########.@@O#####",
"######## @@+######",
"#######o@@.X######",
"##X$##X.@@o#######",
"# @@X# @@ ########",
"o@@@%o@@.#########",
"X@@@..@@$#########",
"#+@@@@@O##########",
"#%@@@@.###########",
"#X@@@@$###########",
"##O@@ ############",
"###XX#############"
};
