/* XPM */
static char *no_entry_xpm[] = {
/* width height num_colors chars_per_pixel */
"    48    48      134            2",
/* colors */
".. c None",
".# c #c47a2c",
".a c #841e0c",
".b c #c42614",
".c c #a42214",
".d c #440e0c",
".e c #94322c",
".f c #c49e34",
".g c #a43224",
".h c #d4aa2c",
".i c #842a1c",
".j c #e42a14",
".k c #b42214",
".l c #d4aa44",
".m c #64221c",
".n c #941e14",
".o c #942a1c",
".p c #d4a234",
".q c #a43a2c",
".r c #340e04",
".s c #d42a14",
".t c #a42a1c",
".u c #4c1a14",
".v c #cca234",
".w c #e4ae24",
".x c #f43214",
".y c #b42a1c",
".z c #742624",
".A c #942614",
".B c #140604",
".C c #8c3a34",
".D c #8c2a1c",
".E c #741a0c",
".F c #dcb23c",
".G c #3c0e04",
".H c #ac2214",
".I c #ac3224",
".J c #dcb234",
".K c #9c2a1c",
".L c #ac3a2c",
".M c #84261c",
".N c #c42e1c",
".O c #441614",
".P c #dcaa2c",
".Q c #ec321c",
".R c #bc2214",
".S c #dc2a14",
".T c #ac2a1c",
".U c #5c1a14",
".V c #cc8624",
".W c #cc2a14",
".X c #9c3224",
".Y c #ec2e14",
".Z c #9c1e14",
".0 c #dca634",
".1 c #cca644",
".2 c #9c2614",
".3 c #1c0604",
".4 c #8c2e2c",
".5 c #7c1e0c",
".6 c #dcae2c",
".7 c #0c0204",
".8 c #c42a14",
".9 c #a42614",
"#. c #a4362c",
"## c #842e24",
"#a c #6c1e14",
"#b c #240a04",
"#c c #b42614",
"#d c #6c221c",
"#e c #942e24",
"#f c #d4a634",
"#g c #a43e34",
"#h c #34120c",
"#i c #a42e24",
"#j c #cca63c",
"#k c #fc3214",
"#l c #bc2a1c",
"#m c #9c3a34",
"#n c #8c2e24",
"#o c #3c1214",
"#p c #ac2614",
"#q c #ac3624",
"#r c #9c2e24",
"#s c #ac3e2c",
"#t c #dcae3c",
"#u c #dc2e14",
"#v c #1c0a04",
"#w c #c4823c",
"#x c #c49e3c",
"#y c #a4322c",
"#z c #842a24",
"#A c #6c160c",
"#B c #e42e1c",
"#C c #d4aa4c",
"#D c #942214",
"#E c #942a24",
"#F c #a43a34",
"#G c #340e0c",
"#H c #a42a24",
"#I c #541a14",
"#J c #cca23c",
"#K c #e4b234",
"#L c #94261c",
"#M c #8c2a24",
"#N c #741e14",
"#O c #3c120c",
"#P c #9c2a24",
"#Q c #8c261c",
"#R c #4c1614",
"#S c #dcaa34",
"#T c #2c0e0c",
"#U c #bc2614",
"#V c #d48e1c",
"#W c #7c2a24",
"#X c #cc9e34",
"#Y c #9c2214",
"#Z c #0c0604",
"#0 c #6c261c",
"#1 c #9c322c",
"#2 c #ec2e1c",
"#3 c #9c261c",
"#4 c #dcae34",
"#5 c #c42a1c",
"#6 c #a4261c",
"#7 c #44120c",
"#8 c #240a0c",
"#9 c #d4a63c",
"a. c #7c221c",
"a# c #ac261c",
"aa c #ac362c",
"ab c #ac3e34",
"ac c #dcae44",
"ad c #5c1e1c",
/* pixels */
"................................................................................................",
"................................................................................................",
"................................................................................................",
"................................................................................................",
"................................................................................................",
"................................................................................................",
"................................................................................................",
"................................................................................................",
".....................................d.a#U.S.Y#2#B.W#p.5.d......................................",
"...............................3.a#B.Y.s.b#U#c#c#p#c#c#l.8#l#A.B................................",
".............................5#k.S.b.k.H.H.c.c.n.n.c.9.9a##p.y#l.U..............................",
"........................#b#U.Y.b.k.H.H.c.H.c#Y.c#p.9#p#6.9.t.9.T.T.a.3..........................",
".......................G.Y.s.R.H.c.H.c.H.c#D.c.c.9.c#6.9#6.9#6.t.t.T#3#b........................",
".....................r.x.W.k.H.c.H.c.H.c.c.Z.c.9#p.9a#.I.I#6.t.t#3.t.t#L.3......................",
".....................s.s.k.c.H.c.H.c.H.9#p.9#Y.c.9#6.9.t#qaa.t.t#3.t.K.K#N......................",
"..................#Y.j.k.H.H.c.H.c#p.T.I.c.9.9#Y.2.9#6#6#6aa.Iaa.t#H.K#H.K#R....................",
".................G#k#U.H.H.c.H.c.T.I.9.I.I.9#p#6#3#D#3.t.t.t.t#.aa.t#i.K#P#Q.3..................",
"................#p.s.H.H.c.H.c#p#D.K.I#p.I.I#6.9#6.t#D.A#6.t.t.taa.q.t#i.t.o#R..................",
"...............3#k#U.c.H.c.n#p.c#Y.9.9.I.I.I.I.t.T.t#6#L#D#3#H#i.t#F.L#r#r#Pa.#Z................",
"...............E#u.H.H.c.c#Y.9#p.9#p.9.9.I.Iab#q#6.t.t.t#L#L.K.t#i#H.q#s#i#i.i#b................",
"..............#p.b#p#V.w.w.w.w.w.6.w.6.6.P.6.J#K.F#S#S.h#S.p.f.v#f#f#9.##r#r#E#O................",
"..............#u#U.c.w.w.w.w.w.w.6.6.w.P.P.6#Sac#t#t.h.0#f#f#f.p#9#f#9#j#i#i.o.O................",
"..............#B#c#p.w.w.w.6.6.6.6.w.P.6.6.P.P#f.v#tac#f.h.0#f#9#f#9#j.p#y#r#e.U................",
"...............Q#c.9.w.w.w.w.J.w.6.P.6.6.P.6.h.P.p#X#fac.l#9#9#f#x.f#x#x#i.X#e#I................",
"..............#u#c.9.6.w.h.6.6.w.J.6.P.6.P.h#S#f.h#f#X.p.l.l.l#f#9.p#J#9#1#r#e.u................",
"..............#5#c.9.w.6.6.w.6.6#t.J.P#4#f#4#X#f.0#f#f#X#j#f.l.l.1#9.1#J.g#1#M#O................",
"..............#Y.y.9.V.6.w.6.P.6.P.F#t#S#S#f#X#X#f#f#f.p.v#J#9#C.l#j.1#w#1#r#W#8................",
"..............#A#l.9.9.9.t.9.t.2#3.t#q#.#i.t#i.K#P#i#r#E#i#r#r#r#y#F#1.g#1.e#d.7................",
"...............3.N.T.9.t.9.t.t.t#3#L.K#..t#i#i#r.D.D#i#e#i#r.X.g#1.g#g#1#1#M.u..................",
"................#D.T.t.9.T.t.t.t#i#3.K.K#.#r.t#i#i.M.D#r#e#y#i#r.X#y#1#g.X.z#v..................",
".................r.y.T.t#6.t.t.t.t#i.K#H#.#1#r#r#i#r#r#i#e#i#1#r#1#y#1#g.C.u....................",
"...................E.T.t.t.t#H.t#i.t.K#e#i.q#i#r#r#i.X#y#e#e#y#1.g#1#1.4.m#Z....................",
"....................#L.t#3#H.t#i.K#i#i.o#r#i.q#i.g#1.g#r#y#e#1#.#1#1.e.z#T......................",
"....................#b#3#P.t.K#i#i#r#i#i#i.g#F#m#E#e#y#1#y.e#1#1#1.ea.#h........................",
"......................#b#Q.K#P.t#r#i#i#r#i.X#r.q.C#P.X#y.X#1.X#1#n#0#h..........................",
".........................B#a.o#P.K#i#r#i.g#r.g#e#m#g#y#1#1#1.e##ad#v............................",
"............................#O.M#E.o#r#r#r#y#r#1.X#g#1.X.e#z#d#o#Z..............................",
"...............................7#G#a.M#M#M#e#e#e#e#M#z.zad#h#Z..................................",
".....................................B#T#7.u.U#I.u#o#T.B........................................",
"................................................................................................",
"................................................................................................",
"................................................................................................",
"................................................................................................",
"................................................................................................",
"................................................................................................",
"................................................................................................",
"................................................................................................",
"................................................................................................"
};
