<?xml version="1.0" encoding="UTF-8" standalone="no"?>
<!-- Created with Inkscape (http://www.inkscape.org/) -->
<!-- 
Created By Andrew Fitzsimon.
Much of this document has been manually cleaned and crafted in a text editor so that only the colour definitions and basic presentation related data remain in the XML. 
Changes to this document may compromise the structure of this palette.
-->
<svg
   xmlns:dc="http://purl.org/dc/elements/1.1/"
   xmlns:cc="http://web.resource.org/cc/"
   xmlns:rdf="http://www.w3.org/1999/02/22-rdf-syntax-ns#"
   xmlns:svg="http://www.w3.org/2000/svg"
   xmlns="http://www.w3.org/2000/svg"
   xmlns:xlink="http://www.w3.org/1999/xlink"
   xmlns:sodipodi="http://inkscape.sourceforge.net/DTD/sodipodi-0.dtd"
   xmlns:inkscape="http://www.inkscape.org/namespaces/inkscape"
   version="1.0"
   x="00"
   y="00"
   width="128"
   height="128"
   id="Etiquette"
   sodipodi:version="0.32"
   inkscape:version="0.41pre2"
   sodipodi:docname="totem.svg"
   sodipodi:docbase="/home/andy/Desktop/Etiquette/etiquette/scalable/apps">
  <metadata
     id="About">
    <rdf:RDF
       id="RDF232">
      <cc:Work
         rdf:about=""
         id="Work233">
        <dc:format
           id="format234">image/svg+xml</dc:format>
        <dc:type
           id="type236"
           rdf:resource="http://purl.org/dc/dcmitype/StillImage" />
        <dc:creator
           id="creator1291">
          <cc:Agent
             id="Agent1292">
            <dc:title
               id="title1293">Andrew Fitzsimon</dc:title>
          </cc:Agent>
        </dc:creator>
        <dc:date
           id="date1295">2004-12-25</dc:date>
        <dc:title
           id="title1297">Etiquette Icon</dc:title>
        <cc:license
           id="license1299"
           rdf:resource="http://creativecommons.org/licenses/by/2.0/" />
        <dc:rights
           id="rights1308">
          <cc:Agent
             id="Agent1309">
            <dc:title
               id="title1310">Andrew Fitzsimon</dc:title>
          </cc:Agent>
        </dc:rights>
      </cc:Work>
      <cc:License
         rdf:about="http://creativecommons.org/licenses/by/2.0/"
         id="License1300">
        <cc:permits
           rdf:resource="http://web.resource.org/cc/Reproduction"
           id="permits1301" />
        <cc:permits
           rdf:resource="http://web.resource.org/cc/Distribution"
           id="permits1302" />
        <cc:requires
           rdf:resource="http://web.resource.org/cc/Notice"
           id="requires1303" />
        <cc:requires
           rdf:resource="http://web.resource.org/cc/Attribution"
           id="requires1304" />
        <cc:prohibits
           rdf:resource="http://web.resource.org/cc/CommercialUse"
           id="prohibits1305" />
        <cc:permits
           rdf:resource="http://web.resource.org/cc/DerivativeWorks"
           id="permits1306" />
        <cc:requires
           rdf:resource="http://web.resource.org/cc/ShareAlike"
           id="requires1307" />
      </cc:License>
    </rdf:RDF>
  </metadata>
  <sodipodi:namedview
     id="base"
     pagecolor="#ffffff"
     bordercolor="#666666"
     borderopacity="1.0"
     inkscape:pageopacity="0.0"
     inkscape:pageshadow="0"
     inkscape:zoom="2.0000000"
     inkscape:cx="59.415100"
     inkscape:cy="66.449081"
     inkscape:window-width="933"
     inkscape:window-height="679"
     inkscape:window-x="-9"
     inkscape:window-y="0"
     inkscape:current-layer="Etiquette"
     showgrid="true"
     gridspacingx="8.0000000pt"
     gridspacingy="8.0000000pt"
     gridoriginy="0.0000000pt"
     gridoriginx="0pt"
     inkscape:grid-points="false"
     gridtolerance="40pt"
     showborder="false"
     inkscape:grid-bbox="false"
     gridcolor="#3f3fff"
     gridopacity="0.019607843"
     gridempspacing="2"
     gridempcolor="#3f3fff"
     gridempopacity="0.039215686" />
  <defs
     id="Gradients">
    <linearGradient
       inkscape:collect="always"
       id="linearGradient225">
      <stop
         style="stop-color:#ffffff;stop-opacity:1;"
         offset="0"
         id="stop226" />
      <stop
         style="stop-color:#ffffff;stop-opacity:0;"
         offset="1"
         id="stop227" />
    </linearGradient>
    <linearGradient
       inkscape:collect="always"
       id="linearGradient147">
      <stop
         style="stop-color:#0f0f0f;stop-opacity:1;"
         offset="0"
         id="stop148" />
      <stop
         style="stop-color:#0f0f0f;stop-opacity:0;"
         offset="1"
         id="stop149" />
    </linearGradient>
    <linearGradient
       id="WhiteTransparent">
      <stop
         style="stop-color:#ffffff;stop-opacity:1;"
         offset="0"
         id="stopWhiteFull" />
      <stop
         style="stop-color:#ffffff;stop-opacity:0;"
         offset="1"
         id="stopWhiteTransparent" />
    </linearGradient>
    <linearGradient
       id="BlackTransparent">
      <stop
         style="stop-color:#000000;stop-opacity:1;"
         offset="0"
         id="stopBlackFull" />
      <stop
         style="stop-color:#000000;stop-opacity:0;"
         offset="1"
         id="stopBlackTransparent" />
    </linearGradient>
    <linearGradient
       inkscape:collect="always"
       xlink:href="#linearGradient147"
       id="linearGradient262"
       gradientUnits="userSpaceOnUse"
       gradientTransform="scale(0.731083,1.367833)"
       x1="277.35406"
       y1="458.23602"
       x2="277.35406"
       y2="156.16489" />
    <linearGradient
       inkscape:collect="always"
       xlink:href="#BlackTransparent"
       id="linearGradient263"
       gradientUnits="userSpaceOnUse"
       gradientTransform="scale(0.731083,1.367833)"
       x1="229.03220"
       y1="518.47443"
       x2="284.85233"
       y2="257.45047" />
    <linearGradient
       y2="168.83192"
       x2="-98.066406"
       y1="30.730785"
       x1="78.757599"
       gradientTransform="matrix(1.105505,0.000000,0.000000,0.945447,0.353553,-3.749135)"
       gradientUnits="userSpaceOnUse"
       id="linearGradient2"
       xlink:href="#linearGradient225"
       inkscape:collect="always" />
    <linearGradient
       y2="82.459297"
       x2="79.189323"
       y1="4.7827358"
       x1="82.568565"
       gradientTransform="matrix(1.149041,0.000000,0.000000,0.909625,-0.250000,-3.640902)"
       gradientUnits="userSpaceOnUse"
       id="linearGradient3"
       xlink:href="#WhiteTransparent"
       inkscape:collect="always" />
    <radialGradient
       r="51.167213"
       fy="42.344593"
       fx="58.636826"
       cy="71.925621"
       cx="58.636852"
       gradientTransform="matrix(1.083830,0.000000,0.000000,0.964354,0.000000,-3.379603)"
       gradientUnits="userSpaceOnUse"
       id="radialGradient5"
       xlink:href="#BlackTransparent"
       inkscape:collect="always" />
    <linearGradient
       inkscape:collect="always"
       xlink:href="#WhiteTransparent"
       id="linearGradient4574"
       gradientUnits="userSpaceOnUse"
       gradientTransform="matrix(1.133396,0.000000,0.000000,0.914744,0.000000,-1.235275)"
       x1="3.5790648"
       y1="59.956852"
       x2="180.74127"
       y2="64.074402" />
  </defs>
  <path
     style="fill:#545454;fill-opacity:1.0000000;stroke:none;stroke-width:11.250000;stroke-linecap:butt;stroke-linejoin:miter;stroke-miterlimit:4.0000000;stroke-dashoffset:0.0000000;stroke-opacity:1.0000000;"
     d="M 120.89971,68.765426 C 120.89971,40.019049 95.208179,16.695930 63.552360,16.695930 C 31.896514,16.695930 6.2050040,40.019049 6.2050040,68.765426 C 6.2050040,97.511808 31.896514,120.84335 63.552360,120.84335 C 95.208179,120.84335 120.89971,97.511808 120.89971,68.765426 z M 109.63105,84.077497 C 109.54544,85.598111 109.08536,87.064418 108.42139,88.253525 C 105.47430,93.020452 100.77649,94.650629 96.483333,94.690498 C 92.139118,94.515194 87.201600,93.130293 84.398454,87.907631 C 82.555688,84.871786 83.320471,80.211394 85.314506,77.741754 C 89.641522,72.681471 95.706071,71.653127 101.04012,73.295775 C 104.57930,74.349778 108.64634,77.042102 109.58409,82.550514 C 109.64399,83.061460 109.65959,83.570626 109.63105,84.077497 z M 105.82002,47.927498 C 105.71471,51.066639 104.22706,53.816364 102.40244,55.486513 C 97.461133,59.863280 90.556027,59.922580 85.778433,54.980340 C 83.150049,52.775624 81.952294,47.628178 83.476542,43.743039 C 86.359962,37.724574 91.983698,35.796117 96.794553,36.909558 C 100.60468,37.636628 104.91773,40.672383 105.77307,46.560803 C 105.81747,47.023143 105.83508,47.479034 105.82002,47.927498 z M 72.078696,99.077426 C 72.083010,100.25184 71.933992,101.41746 71.655897,102.53635 C 69.696098,108.73680 64.873768,111.72582 60.399011,112.47443 C 55.129330,113.26982 49.131653,111.74546 45.483776,105.79280 C 43.060566,102.51097 43.093744,96.777281 45.113823,93.146656 C 49.349740,86.351451 56.347080,84.719494 62.336835,86.549364 C 66.531870,87.777085 71.049707,91.450430 72.019990,97.904764 C 72.055148,98.298482 72.077285,98.685942 72.078696,99.077426 z M 41.050308,76.189480 C 40.908425,79.556636 39.200380,82.337739 37.209926,84.043742 C 32.217988,88.013756 25.505065,87.939545 20.861866,82.963888 C 18.307055,80.749479 17.236288,75.676550 18.712655,71.895326 C 21.596102,65.876887 27.219838,63.948403 32.030692,65.061845 C 35.840826,65.788942 40.153870,68.824698 41.009208,74.713089 C 41.056466,75.216667 41.070573,75.708433 41.050308,76.189480 z "
     id="path16" />
  <path
     style="fill:#9f9f9f;fill-opacity:1.0000000;stroke:none;stroke-width:11.250000;stroke-linecap:butt;stroke-linejoin:miter;stroke-miterlimit:4.0000000;stroke-dashoffset:0.0000000;stroke-opacity:1.0000000;"
     d="M 119.00888,65.982207 C 119.00888,38.744233 94.165165,16.638862 63.552360,16.638862 C 32.939555,16.638862 8.0958150,38.744233 8.0958150,65.982207 C 8.0958150,93.220184 32.939555,115.32552 63.552360,115.32552 C 94.165165,115.32552 119.00888,93.220184 119.00888,65.982207 z M 110.62933,82.252912 C 110.62933,88.828229 104.53424,94.162491 97.023573,94.162491 C 89.512878,94.162491 83.417809,88.828229 83.417809,82.252912 C 83.417809,75.677623 89.512878,70.343334 97.023573,70.343334 C 104.53424,70.343334 110.62933,75.677623 110.62933,82.252912 z M 106.81830,45.718787 C 106.81830,52.294106 101.45441,57.636958 94.845008,57.636958 C 88.235608,57.636958 82.871710,52.294106 82.871710,45.718787 C 82.871710,39.143496 88.235608,33.809207 94.845008,33.809207 C 101.45441,33.809207 106.81830,39.143496 106.81830,45.718787 z M 73.076975,98.129490 C 73.076975,106.01984 66.496412,112.42955 58.384873,112.42955 C 50.273334,112.42955 43.686912,106.01984 43.686912,98.129490 C 43.686912,90.239139 50.273334,83.838004 58.384873,83.838004 C 66.496412,83.838004 73.076975,90.239139 73.076975,98.129490 z M 42.054447,74.310358 C 42.054447,80.885649 36.690549,86.219911 30.081121,86.219911 C 23.471721,86.219911 18.107822,80.885649 18.107822,74.310358 C 18.107822,67.735039 23.471721,62.400778 30.081121,62.400778 C 36.690549,62.400778 42.054447,67.735039 42.054447,74.310358 z "
     id="path17" />
  <path
     style="fill:url(#radialGradient5);fill-opacity:1.0000000;stroke:none;stroke-width:11.250000;stroke-linecap:butt;stroke-linejoin:miter;stroke-miterlimit:4.0000000;stroke-dashoffset:0.0000000;stroke-opacity:1.0000000;"
     d="M 119.00888,65.982207 C 119.00888,38.744233 94.165165,16.638862 63.552360,16.638862 C 32.939555,16.638862 8.0958150,38.744233 8.0958150,65.982207 C 8.0958150,93.220184 32.939555,115.32552 63.552360,115.32552 C 94.165165,115.32552 119.00888,93.220184 119.00888,65.982207 z M 110.62933,82.252912 C 110.62933,88.828229 104.53424,94.162491 97.023573,94.162491 C 89.512878,94.162491 83.417809,88.828229 83.417809,82.252912 C 83.417809,75.677623 89.512878,70.343334 97.023573,70.343334 C 104.53424,70.343334 110.62933,75.677623 110.62933,82.252912 z M 106.81830,45.718787 C 106.81830,52.294106 101.45441,57.636958 94.845008,57.636958 C 88.235608,57.636958 82.871710,52.294106 82.871710,45.718787 C 82.871710,39.143496 88.235608,33.809207 94.845008,33.809207 C 101.45441,33.809207 106.81830,39.143496 106.81830,45.718787 z M 73.076975,98.129490 C 73.076975,106.01984 66.496412,112.42955 58.384873,112.42955 C 50.273334,112.42955 43.686912,106.01984 43.686912,98.129490 C 43.686912,90.239139 50.273334,83.838004 58.384873,83.838004 C 66.496412,83.838004 73.076975,90.239139 73.076975,98.129490 z M 42.054447,74.310358 C 42.054447,80.885649 36.690549,86.219911 30.081121,86.219911 C 23.471721,86.219911 18.107822,80.885649 18.107822,74.310358 C 18.107822,67.735039 23.471721,62.400778 30.081121,62.400778 C 36.690549,62.400778 42.054447,67.735039 42.054447,74.310358 z "
     id="path219" />
  <path
     style="fill:#afafaf;fill-opacity:1.0000000;stroke:none;stroke-width:11.250000;stroke-linecap:butt;stroke-linejoin:miter;stroke-miterlimit:4.0000000;stroke-dashoffset:0.0000000;stroke-opacity:1.0000000;"
     d="M 116.93750,50.033622 C 117.16202,55.408927 119.14356,60.653007 118.94666,66.105325 C 118.97520,76.291464 115.16750,86.357492 109.06236,94.218834 C 99.992557,105.80631 86.272006,112.96784 72.122326,114.60421 C 64.553028,115.52996 56.855839,115.45254 49.426780,113.53163 C 41.872764,111.85842 34.690904,108.42551 28.454864,103.66646 C 21.085574,98.568231 15.407876,91.086903 11.831453,82.668636 C 9.8277000,76.320730 8.0990516,69.700431 8.8168542,62.941477 C 9.0298220,58.834041 10.210912,54.863219 11.000000,50.850181 C 9.0659187,49.009745 8.5834892,52.560123 8.1275475,53.979474 C 5.8602102,61.985055 5.3287399,70.588184 7.2273375,78.737280 C 8.3613003,83.620103 10.076137,88.283008 12.567974,92.588891 C 14.380995,95.883414 16.811580,98.861852 19.206970,101.71727 C 25.077619,108.17339 32.291971,113.19303 40.199377,116.48860 C 47.276744,119.21865 54.784940,120.81385 62.345306,121.00834 C 69.261669,121.17700 76.209085,120.29903 82.776222,117.96465 C 90.334899,115.86450 97.326615,111.71474 103.42956,106.64364 C 107.38454,103.56653 110.26426,99.281559 113.32629,95.319293 C 115.66398,91.018143 118.50099,86.967466 119.56525,82.066794 C 120.79811,78.385175 121.26546,74.415243 121.54930,70.547601 C 121.63456,66.408207 121.50900,62.293644 120.36509,58.297526 C 119.84204,54.893179 118.82807,51.650809 117.00000,48.759789 C 116.97917,49.184400 116.95833,49.609011 116.93750,50.033622 z "
     id="path18" />
  <path
     style="fill:#565248;fill-opacity:1.0000000;stroke:none;stroke-width:11.250000;stroke-linecap:butt;stroke-linejoin:miter;stroke-miterlimit:4.0000000;stroke-dashoffset:0.0000000;stroke-opacity:1.0000000"
     d="M 101.09297,45.445997 C 101.09297,45.445997 95.095514,21.138909 59.113005,23.083420 C 23.130524,25.027959 25.991291,47.545892 25.518738,52.372744 L 25.688780,62.145115 C 24.443115,75.457488 41.482603,97.942391 62.448388,97.942391 C 83.414201,97.942391 100.42940,85.097445 100.42940,69.265157 C 100.42940,69.102145 100.41538,68.939162 100.41180,68.776804 L 100.42940,68.776804 L 101.09297,45.445997 z "
     id="path19"
     sodipodi:nodetypes="ccccccccc" />
  <path
     sodipodi:type="arc"
     style="fill:#000000;fill-opacity:0.21604939;stroke:none;stroke-width:11.250000;stroke-linecap:butt;stroke-linejoin:miter;stroke-miterlimit:4.0000000;stroke-dashoffset:0.0000000;stroke-opacity:1.0000000"
     id="path20"
     sodipodi:cx="237.58865"
     sodipodi:cy="554.13525"
     sodipodi:rx="88.652481"
     sodipodi:ry="198.58156"
     d="M 326.24113 554.13525 A 88.652481 198.58156 0 1 1  148.93617,554.13525 A 88.652481 198.58156 0 1 1  326.24113 554.13525 z"
     transform="matrix(-7.895897e-19,0.323529,-0.191264,-4.767918e-19,169.7650,-28.99438)" />
  <path
     style="fill:#a4a4a4;fill-opacity:1.0000000;stroke:none;stroke-width:11.250000;stroke-linecap:butt;stroke-linejoin:miter;stroke-miterlimit:4.0000000;stroke-dashoffset:0.0000000;stroke-opacity:1.0000000;"
     d="M 124.83414,54.730131 C 124.83414,28.256396 98.267433,6.7768581 65.531380,6.7768581 C 32.795299,6.7768581 6.2227331,28.256396 6.2227059,54.730131 C 6.2227059,81.203895 32.795299,102.69189 65.531380,102.69189 C 98.267433,102.69189 124.83414,81.203923 124.83414,54.730131 z M 112.15617,66.099308 C 111.77553,73.077568 104.61569,77.897182 96.172209,76.859834 C 87.728751,75.822485 81.187552,69.316030 81.568193,62.337743 C 81.948835,55.359483 89.108702,50.539842 97.552163,51.577217 C 105.99562,52.614565 112.53681,59.121021 112.15617,66.099308 z M 107.14725,34.747493 C 106.87933,39.870594 100.85192,43.401237 93.694172,42.625582 C 86.536394,41.849984 80.947952,37.055770 81.215847,31.932697 C 81.483769,26.809568 87.511179,23.287402 94.668958,24.063029 C 101.82671,24.838655 107.41515,29.624421 107.14725,34.747493 z M 75.343721,20.825578 C 75.343721,24.849341 70.269312,28.111967 64.016355,28.111967 C 57.763398,28.111967 52.688989,24.849341 52.688989,20.825578 C 52.688989,16.801787 57.763398,13.530713 64.016355,13.530713 C 70.269312,13.530713 75.343721,16.801815 75.343721,20.825578 z M 73.347190,82.117543 C 73.347190,90.059666 66.329992,96.504355 57.686190,96.504355 C 49.042387,96.504355 42.025162,90.059666 42.025162,82.117543 C 42.025162,74.175394 49.042387,67.722257 57.686190,67.722257 C 66.329992,67.722257 73.347190,74.175394 73.347190,82.117543 z M 45.689398,30.444973 C 45.806295,35.335752 40.528042,39.567443 33.909879,39.895323 C 27.291716,40.223147 21.824485,36.519150 21.707560,31.628372 C 21.590636,26.737565 26.868916,22.505874 33.487079,22.178050 C 40.105242,21.850170 45.572473,25.554194 45.689398,30.444973 z M 39.406192,59.387694 C 39.200503,65.023412 33.781262,70.305851 26.734114,71.483794 C 19.217153,72.740288 12.680701,68.855220 12.141819,62.811114 C 11.602963,56.767035 17.261722,50.838796 24.778683,49.582329 C 32.295644,48.325864 38.837956,52.210932 39.376839,58.255012 C 39.410532,58.632740 39.419919,59.011979 39.406192,59.387694 z "
     id="path21" />
  <path
     style="fill:#cfcfcf;fill-opacity:1.0000000;stroke:none;stroke-width:11.250000;stroke-linecap:butt;stroke-linejoin:miter;stroke-miterlimit:4.0000000;stroke-dashoffset:0.0000000;stroke-opacity:1.0000000;"
     d="M 121.08175,51.990597 C 121.08175,26.950199 95.413950,6.6314015 63.781380,6.6314015 C 32.148783,6.6314015 6.4751240,26.950199 6.4751240,51.990597 C 6.4751240,77.030994 32.148783,97.358386 63.781380,97.358386 C 95.413950,97.358386 121.08175,77.030994 121.08175,51.990597 z M 112.40270,62.872006 C 112.02206,69.945347 104.86219,74.830611 96.418743,73.779132 C 87.975282,72.727627 81.434083,66.132544 81.814724,59.059231 C 82.195366,51.985918 89.355233,47.100654 97.798693,48.152104 C 106.24215,49.203611 112.78335,55.798693 112.40270,62.872006 z M 107.39378,31.093165 C 107.12586,36.286020 101.09845,39.864755 93.940703,39.078564 C 86.782924,38.292373 81.194483,33.432883 81.462378,28.239998 C 81.730300,23.047143 87.757710,19.476971 94.915488,20.263162 C 102.07324,21.049325 107.66168,25.900280 107.39378,31.093165 z M 75.590252,16.981585 C 75.590252,21.060157 70.515843,24.367226 64.262886,24.367226 C 58.009929,24.367226 52.935520,21.060157 52.935520,16.981585 C 52.935520,12.903013 58.009929,9.5873818 64.262886,9.5873818 C 70.515843,9.5873818 75.590252,12.903013 75.590252,16.981585 z M 73.593721,79.108460 C 73.593721,87.158758 66.576523,93.691264 57.932720,93.691264 C 49.288918,93.691264 42.271693,87.158758 42.271693,79.108460 C 42.271693,71.058128 49.288918,64.517062 57.932720,64.517062 C 66.576523,64.517062 73.593721,71.058128 73.593721,79.108460 z M 45.935929,26.732010 C 46.052826,31.689407 40.774573,35.978769 34.156410,36.311086 C 27.538247,36.643404 22.071016,32.888955 21.954091,27.931528 C 21.837167,22.974130 27.115447,18.684796 33.733610,18.352479 C 40.351773,18.020163 45.819004,21.774611 45.935929,26.732010 z M 39.652723,56.068970 C 39.447034,61.781483 34.027793,67.135875 26.980645,68.329865 C 19.463684,69.603446 12.927232,65.665456 12.388349,59.539050 C 11.849494,53.412614 17.508253,47.403625 25.025214,46.130044 C 32.542175,44.856462 39.084487,48.794452 39.623370,54.920859 C 39.657036,55.303789 39.666450,55.688138 39.652723,56.068970 z "
     id="path22" />
  <path
     style="fill:url(#linearGradient4574);fill-opacity:1.0000000;stroke:none;stroke-width:11.250000;stroke-linecap:butt;stroke-linejoin:miter;stroke-miterlimit:4.0000000;stroke-dashoffset:0.0000000;stroke-opacity:1.0000000"
     d="M 59.281250,5.4062500 C 56.063437,5.4949272 52.861088,5.6874699 49.760294,6.6221375 C 44.147211,7.7527893 38.573440,9.2173181 33.446146,11.816488 C 30.529615,13.338101 27.582770,15.011529 24.880088,16.839733 C 21.636802,19.384837 18.286538,21.813269 15.643127,25.014243 C 12.899864,27.637815 10.918982,30.952927 8.8712517,34.105204 C 7.5024451,37.755522 5.3556383,41.161874 4.9586551,45.099661 C 4.3804888,48.054786 3.6546944,50.998435 4.0378172,54.029812 C 3.9830263,58.171820 4.3943772,62.345394 5.9008764,66.233879 C 6.9438288,69.118155 8.3987774,71.921735 9.8930216,74.616894 C 11.828150,77.824991 14.072284,80.797042 16.651181,83.515785 C 18.577065,85.554971 20.825775,87.404944 23.078149,89.108710 C 27.819717,91.934918 32.373986,95.097113 37.524172,97.150421 C 41.043557,98.657407 44.804588,99.708393 48.623723,100.27561 C 52.731362,101.12296 56.840707,101.95268 61.051333,101.99849 C 66.789221,102.21986 72.511592,101.46080 78.171167,100.62325 C 82.588032,99.437129 87.051232,98.545326 91.181966,96.555959 C 96.158448,94.451571 101.02443,91.893550 105.26844,88.529154 C 109.36477,85.196493 113.24216,81.528126 116.13795,77.081081 C 118.11371,74.497758 119.48866,71.440057 120.83410,68.539555 C 122.29819,64.625843 123.50226,60.585355 123.62390,56.378841 C 124.23031,49.426541 122.44491,42.467628 119.60527,36.195799 C 117.91173,31.787324 114.82350,28.049991 111.75000,24.562500 C 108.58531,21.939126 105.70011,18.931968 102.36164,16.547368 C 98.076692,13.822240 93.529741,11.451673 88.817117,9.6402977 C 84.486352,7.9714743 79.969313,6.7888379 75.381795,6.1198449 C 70.030804,5.5437158 64.666522,4.8314408 59.281250,5.4062500 z M 65.937500,7.2500000 C 72.980233,7.9199430 80.027450,8.9411164 86.755017,11.196992 C 89.985233,12.234669 93.115338,13.685552 96.137166,15.204616 C 99.660148,17.161530 102.95182,19.450673 106.04145,22.036583 C 108.26421,23.984549 110.33717,26.171076 112.23975,28.428909 C 114.28820,31.371077 116.46964,34.187729 117.71974,37.577004 C 119.23163,40.529230 119.84663,43.857809 120.56573,47.061310 C 120.75466,50.338549 121.31387,53.629984 120.50503,56.871073 C 120.01990,61.424134 118.51882,65.824593 116.41000,69.875825 C 115.11360,72.216480 113.46358,74.637956 111.75156,76.704945 C 108.77533,80.405901 104.86347,83.141337 101.22254,86.127635 C 97.364125,88.326835 93.733180,90.977716 89.452014,92.307729 C 85.521797,93.963088 81.342510,94.988051 77.176659,95.840348 C 72.385441,96.758640 67.503841,97.288701 62.627360,97.204472 C 58.400229,97.035910 54.194182,96.699098 50.063274,95.742940 C 44.480955,94.744939 39.012977,93.031165 33.901958,90.586217 C 30.089261,88.709632 26.550963,86.412723 23.125000,83.906250 C 20.340281,81.382422 17.269382,78.804760 15.068226,75.615268 C 12.757464,73.038827 11.254824,69.865863 9.7434025,66.795261 C 8.0109198,62.531740 6.6921360,58.050817 6.7063962,53.410626 C 6.4344777,48.055040 7.6315201,42.715098 9.7406930,37.806334 C 10.740575,35.145369 12.349946,32.716061 13.906021,30.351848 C 17.032116,26.040129 20.940238,22.380650 25.177516,19.176499 C 29.590499,15.876827 34.769247,13.855309 39.708037,11.490100 C 47.312920,8.9310674 55.277168,7.4666348 63.307297,7.3600709 C 64.183891,7.3203854 65.060646,7.2824976 65.937500,7.2500000 z "
     id="path23" />
  <path
     style="fill:url(#linearGradient3);fill-opacity:1.0000000;stroke:none;stroke-width:11.250000;stroke-linecap:butt;stroke-linejoin:miter;stroke-miterlimit:4.0000000;stroke-dashoffset:0.0000000;stroke-opacity:1.0000000"
     d="M 52.375000,8.8687866 C 44.623504,10.731775 36.803620,12.940477 29.937500,17.263016 C 35.557363,15.484954 42.628440,17.393454 45.883013,22.689184 C 48.960761,27.821252 44.808879,34.125527 39.937565,35.836985 C 34.077884,38.696377 25.732649,37.762894 21.781250,32.026409 C 20.308072,29.569267 19.958085,26.262795 21.281250,23.664841 C 8.7833444,33.425961 3.9331063,52.800563 11.544537,67.305586 C 16.288767,77.261039 25.408342,83.934974 34.588496,88.956968 C 40.416355,91.737136 46.638670,93.363565 52.968750,94.280891 C 45.177374,92.631878 39.507310,84.321534 40.812500,76.087949 C 43.140725,64.770096 57.328191,59.158293 66.565609,65.200678 C 73.430575,68.817386 77.091861,78.472831 73.068257,85.665391 C 69.811625,92.082683 62.435752,95.630176 55.625000,94.770826 C 64.988282,95.639186 74.602615,95.073608 83.604361,92.242769 C 91.874472,89.897570 99.692748,85.429269 106.14225,79.564285 C 114.05182,72.202235 119.74006,61.524344 119.17798,50.219717 C 118.56486,36.389049 109.46815,24.489415 98.323553,17.819266 C 92.201637,14.093933 85.373372,11.538709 78.501702,9.8830823 C 75.170602,9.3956469 71.880428,8.5028311 68.500000,8.5095005 C 72.386598,9.6193042 76.700780,12.584262 76.750000,17.197692 C 75.219802,23.701790 67.972977,25.884856 62.281250,25.493934 C 57.432920,25.069627 51.496065,21.972067 51.281250,16.283145 C 51.956663,11.453046 56.823132,8.9484044 60.968750,8.1828768 C 58.104167,8.4115134 55.239583,8.6401500 52.375000,8.8687866 z M 94.843750,18.438862 C 100.74717,19.395704 106.83668,22.987427 108.50000,29.348094 C 109.08351,36.267558 101.69258,40.662282 95.781464,40.160831 C 89.426065,40.489511 82.799040,36.878033 80.062500,30.752576 C 78.750044,25.341137 83.159633,20.178483 88.112814,19.272812 C 90.296781,18.449373 92.562947,18.556502 94.843750,18.438862 z M 30.406250,44.274798 C 35.506860,45.563776 40.706569,49.553187 40.843750,55.445330 C 40.065583,62.666139 34.028021,68.341757 27.230647,69.156958 C 21.241756,70.680272 13.408525,68.238792 11.308620,61.590352 C 9.2368270,54.564888 14.935975,47.571285 21.093750,45.450644 C 24.101537,44.254633 27.252401,44.507667 30.406250,44.274798 z M 94.406250,46.201878 C 101.01281,46.318387 107.83387,49.239547 111.45317,55.249574 C 114.96680,59.971806 113.74652,67.000524 109.63163,70.893590 C 101.47339,78.302170 87.614306,75.249969 81.949275,65.929630 C 77.707692,59.589201 81.546942,49.391665 88.781250,47.639023 C 90.618853,46.923263 92.450264,46.401066 94.406250,46.201878 z "
     id="path125" />
  <path
     sodipodi:type="arc"
     style=";stroke-opacity:1.0000000;stroke-dashoffset:0.0000000;stroke-miterlimit:4.0000000;stroke-linejoin:miter;stroke-linecap:butt;stroke-width:11.250000;stroke:none;fill-opacity:1.0000000;fill:url(#linearGradient263);opacity:0.32544377"
     id="path24"
     sodipodi:cx="212.51447"
     sodipodi:cy="553.14185"
     sodipodi:rx="38.981941"
     sodipodi:ry="72.933960"
     d="M 251.49641 553.14185 A 38.981941 72.933960 0 1 1  173.53252,553.14185 A 38.981941 72.933960 0 1 1  251.49641 553.14185 z"
     transform="matrix(-8.156186e-19,0.334194,-0.229042,-5.709650e-19,187.8109,-27.95975)" />
  <path
     sodipodi:type="arc"
     style=";stroke-opacity:1.0000000;stroke-dashoffset:0.0000000;stroke-miterlimit:4.0000000;stroke-linejoin:miter;stroke-linecap:butt;stroke-width:11.250000;stroke:none;fill-opacity:1.0000000;fill:url(#linearGradient262);opacity:0.46168581"
     id="path25"
     sodipodi:cx="212.51447"
     sodipodi:cy="553.14185"
     sodipodi:rx="38.981941"
     sodipodi:ry="72.933960"
     d="M 251.49641 553.14185 A 38.981941 72.933960 0 1 1  173.53252,553.14185 A 38.981941 72.933960 0 1 1  251.49641 553.14185 z"
     transform="matrix(-6.314471e-19,0.258732,-0.208914,-5.207917e-19,176.3651,-9.398460)" />
  <path
     sodipodi:type="arc"
     style=";stroke-opacity:1.0000000;stroke-dashoffset:0.0000000;stroke-miterlimit:4.0000000;stroke-linejoin:miter;stroke-linecap:butt;stroke-width:11.250000;stroke:none;fill-opacity:0.61111110;fill:#000000"
     id="path26"
     sodipodi:cx="212.51447"
     sodipodi:cy="553.14185"
     sodipodi:rx="38.981941"
     sodipodi:ry="72.933960"
     d="M 251.49641 553.14185 A 38.981941 72.933960 0 1 1  173.53252,553.14185 A 38.981941 72.933960 0 1 1  251.49641 553.14185 z"
     transform="matrix(-1.054718e-19,4.321629e-2,-3.489555e-2,-8.698920e-20,86.79169,36.64193)" />
  <path
     sodipodi:type="arc"
     style=";stroke-opacity:1.0000000;stroke-dashoffset:0.0000000;stroke-miterlimit:4.0000000;stroke-linejoin:miter;stroke-linecap:butt;stroke-width:11.250000;stroke:none;fill-opacity:0.61111110;fill:#000000"
     id="path27"
     sodipodi:cx="212.51447"
     sodipodi:cy="553.14185"
     sodipodi:rx="38.981941"
     sodipodi:ry="72.933960"
     d="M 251.49641 553.14185 A 38.981941 72.933960 0 1 1  173.53252,553.14185 A 38.981941 72.933960 0 1 1  251.49641 553.14185 z"
     transform="matrix(-1.054718e-19,4.321629e-2,-3.489555e-2,-8.698920e-20,74.28137,36.29515)" />
  <path
     style="opacity:0.65680474;fill:url(#linearGradient2);fill-opacity:1.0000000;stroke:none;stroke-width:11.250000;stroke-linecap:butt;stroke-linejoin:miter;stroke-miterlimit:4.0000000;stroke-dashoffset:0.0000000;stroke-opacity:1.0000000;"
     d="M 112.74464,62.666998 C 113.12528,55.593666 106.58408,48.998605 98.140621,47.947096 C 93.391161,47.355651 89.050041,48.644765 86.090981,51.142992 C 88.951891,49.300050 92.725941,48.415553 96.807631,48.923863 C 105.25109,49.975372 111.79229,56.570423 111.41165,63.643734 C 111.24575,66.726664 109.79321,69.388068 107.50667,71.329258 C 110.54735,69.359199 112.54863,66.309255 112.74464,62.666998 z M 107.73569,30.888161 C 108.00361,25.695272 102.41514,20.844320 95.257391,20.058155 C 90.964991,19.586677 87.109881,20.701953 84.628811,22.774201 C 87.062761,21.335394 90.351101,20.642440 93.924401,21.034890 C 101.08218,21.821086 106.67062,26.672008 106.40273,31.864897 C 106.29500,33.952686 105.22947,35.755618 103.56060,37.142812 C 106.01422,35.697546 107.60113,33.496144 107.73569,30.888161 z M 75.932161,16.776584 C 75.932161,12.698010 70.857771,9.3823457 64.604821,9.3823457 C 60.903231,9.3823771 57.646731,10.561222 55.579311,12.355489 C 57.602461,11.125032 60.290961,10.359144 63.271831,10.359113 C 69.524781,10.359113 74.599191,13.674746 74.599191,17.753341 C 74.599191,19.418986 73.724591,20.938826 72.297331,22.174446 C 74.521171,20.825861 75.932161,18.912547 75.932161,16.776584 z M 73.935631,78.903427 C 73.935631,70.853098 66.918431,64.312063 58.274651,64.312063 C 54.359071,64.312063 50.786421,65.668184 48.039481,67.884919 C 50.569421,66.249825 53.632401,65.288820 56.941661,65.288820 C 65.585441,65.288820 72.602661,71.829886 72.602661,79.880162 C 72.602661,84.291360 70.486141,88.232532 67.159191,90.907262 C 71.249571,88.275511 73.935631,83.880420 73.935631,78.903427 z M 46.277831,26.527008 C 46.160911,21.569612 40.693681,17.815154 34.075511,18.147474 C 30.638451,18.320067 27.583881,19.574030 25.437601,21.420463 C 27.445501,20.125131 29.958661,19.264004 32.742551,19.124209 C 39.360711,18.791921 44.827941,22.546369 44.944871,27.503764 C 45.001051,29.886696 43.789811,32.100923 41.803261,33.809829 C 44.570571,32.025784 46.345601,29.400189 46.277831,26.527008 z M 39.994651,55.863964 C 40.008351,55.483137 39.998971,55.098755 39.965301,54.715858 C 39.426421,48.589453 32.884081,44.651458 25.367121,45.925039 C 22.303267,46.444157 19.586472,47.778078 17.433870,49.557900 C 19.345597,48.285625 21.570388,47.319247 24.034151,46.901806 C 31.551111,45.628225 38.093451,49.566209 38.632311,55.692615 C 38.665981,56.075522 38.675391,56.459893 38.661691,56.840731 C 38.543491,60.122730 36.667791,63.255621 33.787791,65.580137 C 37.429891,63.214900 39.858981,59.631237 39.994651,55.863964 z "
     id="path28" />
  <path
     sodipodi:type="arc"
     style=";stroke-opacity:1.0000000;stroke-dashoffset:0.0000000;stroke-miterlimit:4.0000000;stroke-linejoin:miter;stroke-linecap:butt;stroke-width:11.250000;stroke:none;fill-opacity:0.61111110;fill:#000000"
     id="path123"
     sodipodi:cx="212.51447"
     sodipodi:cy="553.14185"
     sodipodi:rx="38.981941"
     sodipodi:ry="72.933960"
     d="M 251.49641 553.14185 A 38.981941 72.933960 0 1 1  173.53252,553.14185 A 38.981941 72.933960 0 1 1  251.49641 553.14185 z"
     transform="matrix(-6.653845e-2,-4.156627e-18,9.535194e-18,-2.063960e-2,75.42028,61.36804)" />
  <path
     sodipodi:type="arc"
     style=";stroke-opacity:1.0000000;stroke-dashoffset:0.0000000;stroke-miterlimit:4.0000000;stroke-linejoin:miter;stroke-linecap:butt;stroke-width:11.250000;stroke:none;fill-opacity:0.61111110;fill:#000000"
     id="path124"
     sodipodi:cx="212.51447"
     sodipodi:cy="553.14185"
     sodipodi:rx="38.981941"
     sodipodi:ry="72.933960"
     d="M 251.49641 553.14185 A 38.981941 72.933960 0 1 1  173.53252,553.14185 A 38.981941 72.933960 0 1 1  251.49641 553.14185 z"
     transform="matrix(-6.653845e-2,-4.156627e-18,9.535194e-18,-2.063960e-2,75.82921,51.98657)" />
</svg>
