/* XPM */
static char * aumix_mini_xpm[] = {
"32 32 5 1",
" 	c None",
".	c #7F007F",
"+	c #FFFFFF",
"@	c #007F7F",
"#	c #000000",
"                   .            ",
"           .      .+.           ",
"          .+.    .+@+.          ",
"         .+@+.   .+@+.          ",
"         .+@+.   .+@+.          ",
"         .+@+.   .+@+.   .      ",
"         .+@+@.. .+@+.  .+.     ",
"         .+@+@+. .+@+. .+@..    ",
"         .+@+@+. .+@+. .+@+.    ",
"         .+@+@+. .+@+. .+@+.    ",
"       ..++@+@++.++#+. .+@+.    ",
"      .++@+@+#+@+@+#+. .+@++.   ",
"     .+@+@+#+#+@+@+#++..+@+@+.  ",
"     .+@+@+#+#+@@#+#+@+++#+@+.  ",
"     .+@+#+#+#+#@#+#+@+@+#+#++. ",
"    ..+#+#+#+#+#@#+#+#+@+#+#+#+.",
"  ..+.+#+#+#+#+###+#+#+#+##+###.",
" .++#+###+##+##+#+##+##+###+#+#+",
".+#####+#+#+#+#+#+#+#+#+#+#+@++.",
" .+#++#+++#+#+#+#+@+#+++@+#+@+. ",
"  .+.+@+.+@+#+#+@+@+#+.+@+@++.  ",
"   ...+..+@+#+@+@+@+#+.+@+@+.   ",
"     ... .++#+@++.++#+..++@+.   ",
"      .   .+#+@+. .+@+. .++.    ",
"          .+@+@+. .+@+.  ..     ",
"          .+@+@+. .+@+.         ",
"          .+@+@+. .+@+.         ",
"          .+@+@+. .+@+.         ",
"          .+@++.  .+@+.         ",
"          .+@+.   .+@+.         ",
"           .+.     .+.          ",
"            .       .           "};
