/* XPM */
/* copyright 1997 Caldera Systems, released under the GPL */
static char * aumix_xpm[] = {
"56 46 16 1",
" 	c None",
".	c #F7F3F7",
"+	c #B6B2B6",
"@	c #000000",
"#	c #A6A2A6",
"$	c #EFAEA6",
"%	c #B6B6B6",
"&	c #F7F7F7",
"*	c #6182B6",
"=	c #AEA6AE",
"-	c #B6AEB6",
";	c #A69EA6",
">	c #FFFBFF",
",	c #969296",
"'	c #9E969E",
")	c #A69A96",
".......................................................+",
".++++++++++++++++++++++++++++++++++++++++++++++++++++++@",
".++++++++++++++++++++++++++++++++++++++++++++++++++++++@",
".++++++++++++++++++++++++++++++++++++++++++++++++++++++@",
".#+++#+++#+++#+++#+$+#+++#+++#+++#+++#+++#+++#+++#+++#+@",
".++++++++++++++++%$&$++++++++++++++++++++++++++++++++++@",
".#+#+#+#+#+#+#+#+$&*&$%#+#+#+#+#+#+#+#+#+#+#+#+#+#+#+#+@",
".+++++#+++++++#+%$.*&$#+++++++#++$++++#+++++++#+++++++#@",
".#+#+#+#+#+#+#+#+$&*.$%#+#+#+#+#$&$#+#+#+#+#+#+#+#+#+#+@",
".+++#+++#+++#+++=$.*&$++#+++#+%$&*&$#+++#+++#+++#+++#++@",
".#+#+#+#+#+#+#+#+$&*.&$#+#+#+#+$&*.$%#+#+#+#+#+#+#+#+#+@",
".+#+++#+#+#+++#+#$.*.*&$#+#+++=$.*&$++#+#+#+++#+#+#+++#@",
".#+#+#+#+#+#+#+#%$&*.*.$%#+#+#+$&*.$%#+$+#+#+#+#+#+#+#+@",
".+#+#+#+#+#+#+#+=$.*.*&$#+#+#+#$.*&$#%$&$+#+#+#+#+#+#+#@",
".#+#+#+#+#+#+#+#+$&*.*.$%#+#+#%$&*.$%$&*.$%#+#+#+#+#+#+@",
".##+###+###+###-=$.*.*&$###+##=$.*&$#$.*.&$+###+###+###@",
".#+#+#+#+#+$+#+#+$&*.*.&$#+#+#+$&*.$%$&*.*.$%#+#+#+#+#+@",
".#########$&$###$&.*.*.*&$####$&.@&$=$.*.*&$###########@",
".#+#+#+#+$&*&$+$&*.*.@.*.$%#+$&*.@&$%$&*.*.$%#+#+#+#+#+@",
".########$.*&$=$.*.@.@.*&&$;=$.*.@&&$$.*.*.&$##########@",
".###+###%$&*.&$$&*.@.@.*.*&$$$&@.@.*&&&@.*.*.$##+###+##@",
".#######$$.@.*&$&@.@.@.@.*&$&$&@.@.*.*.@.@.*&$#$#######@",
".#####$$>$&@.*&&.@.@.@.@.*.&*&&@.@.@.*.@.@.@.&$&$$$####@",
".####$&&@&@@.@.@.@.@.@.@.@.&@.@@.@.@.@.@.@.@.@&@&&&$###@",
".,##$&@@.@@.@@.@@.@@.@@.@@.@.@@.@@.@@.@@.@@.@@@@@@@&$,#@",
".###=$.*..@.@.@.@.@.@.@.@.@&$.@.@.@.@.@.@.@.@.@...&$=##@",
".##,#,$&$&*...@...@.@.@.@..$=$&.*.@...*.@.@.*..$$$$'#,#@",
".#####=$=$&$$.*&$.*.@.@.*&$#==$.*.@&$.*.@.@.*&$===#####@",
".,#,#,#,=,$)$&*.$&*.@.*.*.$,#,$&*.@.$&*.@.*..$#,#,#,#,#@",
".#######;###=$&$=$..@.*.*&$=;==$..@&$$..*.*.$==########@",
".,#,#,#,#,#,#,$'#,$&@.*..$=,#,;,$&*&$)$&*.*.$,;,#,#,#,#@",
".#,###,###,#;=,##=$.*.*.$=,###,=$.*&$#$.*.&$=#,###,###,@",
".,#,#,#,#,#,#,#,#,$&*.*.$,=,;,#,$&*.$'$&*.$,=,#,#,#,#,#@",
".#,#,#,#,#,#,#,#,=$.*.*&$;,#,#,=$.*&$=$.*.$=,#,#,#,#,#,@",
".,#,#,#,#,#,#,#,#,$&*.*.$'#,#,#,$&*.$'$&*.$,;,#,#,#,#,#@",
".,,#,,,#,,,#,,,#,,$.*.&$,,,#,,,=$.*&$,'$&$,=,,,#,,,#,,,@",
".,#,#,#,#,#,#,#,=,$&*.$'#,#,#,#,$&*.$'),$'#,#,#,#,#,#,#@",
".,,,,,,,,,,,,,,,,'$.*&$,,,,,,,,,'$&$,,,',,,,,,,,,,,,,,,@",
".,#,#,#,#,#,#,#,#,$&*.$'#,#,#,#,#,$'#,#,#,#,#,#,#,#,#,#@",
".,,,,,,,,,,,,,,,,,$.*&$,,,,,,,,,,,',,,,,,,,,,,,,,,,,,,,@",
".,,,#,,,#,,,#,,,#,$&*.$'#,,,#,,,#,,,#,,,#,,,#,,,#,,,#,,@",
".,,,,,,,,,,,,,,,,,'$&$,,,,,,,,,,,,,,,,,,,,,,,,,,,,,,,,,@",
".,#,,,,,,,#,,,,,,,#,$',,,,#,,,,,,,#,,,,,,,#,,,,,,,#,,,,@",
".,,,,,,,,,,,,,,,,,,,',,,,,,,,,,,,,,,,,,,,,,,,,,,,,,,,,,@",
".,,,,,,,,,,,,,,,,,,,,,,,,,,,,,,,,,,,,,,,,,,,,,,,,,,,,,,@",
"+@@@@@@@@@@@@@@@@@@@@@@@@@@@@@@@@@@@@@@@@@@@@@@@@@@@@@@@"};
/* vi:  it's everywhere you want to be */
