/* XPM */
static char *!_xpm[] = {
/* width height num_colors chars_per_pixel */
"    45    38      256            2",
/* colors */
"`` c #040204",
"`. c #848384",
"`# c #840204",
"`a c #8c5654",
"`b c #c40904",
"`c c #c4c6c4",
"`d c #d44239",
"`e c #c42624",
"`f c #c48284",
"`g c #842e2c",
"`h c #d4e2e4",
"`i c #cc6a64",
"`j c #c4a2a4",
"`k c #a40404",
"`l c #e41904",
"`m c #ec2604",
"`n c #dc564c",
"`o c #a41210",
"`p c #ecc6c4",
"`q c #ec8274",
"`r c #e4f2f4",
"`s c #3c4244",
"`t c #c41614",
"`u c #8c6664",
"`v c #fca5a4",
"`w c #c43634",
"`x c #ccd2d4",
"`y c #eceaec",
"`z c #b40304",
"`A c #f4533c",
"`B c #ac6564",
"`C c #5c0204",
"`D c #a4a6a4",
"`E c #f4625c",
"`F c #ec462c",
"`G c #cc9294",
"`H c #ec371c",
"`I c #d41804",
"`J c #8c1614",
"`K c #b42624",
"`L c #b41414",
"`M c #e49a94",
"`N c #d40f04",
"`O c #ec726c",
"`P c #d48279",
"`Q c #d4eef4",
"`R c #fcd4d4",
"`S c #f4f4f4",
"`T c #fcb2b3",
"`U c #940404",
"`V c #c42e2e",
"`W c #dc5e4c",
"`X c #5c6664",
"`Y c #b40a06",
"`Z c #b47e7c",
"`0 c #a43234",
"`1 c #a48284",
"`2 c #c40e0c",
"`3 c #f41a14",
"`4 c #c41e18",
"`5 c #bc423c",
"`6 c #cccccc",
"`7 c #dc4e44",
"`8 c #ccb2ac",
".` c #fc2626",
".. c #d4362c",
".# c #d4dcdc",
".a c #743234",
".b c #142224",
".c c #e41e04",
".d c #ec7a74",
".e c #940a08",
".f c #dc3e24",
".g c #e44234",
".h c #a40e0c",
".i c #ac1c1c",
".j c #f48c84",
".k c #9c7a7c",
".l c #fc5a59",
".m c #741614",
".n c #b4b6b4",
".o c #ec4e3c",
".p c #b41a14",
".q c #f4948c",
".r c #dc8d84",
".s c #f4fbfc",
".t c #bc0a04",
".u c #cc1004",
".v c #949694",
".w c #e4e4e4",
".x c #d4a6a4",
".y c #fccacc",
".z c #545654",
".A c #9c6664",
".B c #f4aeac",
".C c #fce6e8",
".D c #bc6264",
".E c #f43634",
".F c #ac2e2c",
".G c #e4edef",
".H c #ecdadc",
".I c #f4bebc",
".J c #d43027",
".K c #ec5e51",
".L c #f42e2c",
".M c #fc9c9c",
".N c #d4c4c4",
".O c #d42820",
".P c #c48a8c",
".Q c #ec533f",
".R c #ac1413",
".S c #ecfafc",
".T c #cc1604",
".U c #dcd5d4",
".V c #740204",
".W c #ec6e64",
".X c #dc1e04",
".Y c #bc1311",
".Z c #dc847c",
".0 c #7c7e7c",
".1 c #c47b78",
".2 c #b43234",
".3 c #cc201c",
".4 c #ac5654",
".5 c #ec2004",
".6 c #1c1a1c",
".7 c #9c5654",
".8 c #dc423c",
"#` c #dce4e4",
"#. c #2c2e2c",
"## c #cc7d7a",
"#a c #dc9284",
"#b c #bca3a4",
"#c c #d4bebc",
"#d c #bc5857",
"#e c #bc8484",
"#f c #6c6b6c",
"#g c #fc4a4c",
"#h c #fc4444",
"#i c #942a2c",
"#j c #4c4a4c",
"#k c #9c0e0c",
"#l c #0c0e0c",
"#m c #c49e9c",
"#n c #bc6e6c",
"#o c #dc9e94",
"#p c #fc8684",
"#q c #fc7474",
"#r c #e43e24",
"#s c #fc7c7b",
"#t c #fcdcdd",
"#u c #fc6a6c",
"#v c #dc7e74",
"#w c #fcc4c4",
"#x c #6c0404",
"#y c #bc2e2c",
"#z c #fc5354",
"#A c #ccaaac",
"#B c #eceeec",
"#C c #ac3a3c",
"#D c #bcbebc",
"#E c #9c9e9c",
"#F c #5c5e5c",
"#G c #343634",
"#H c #d43e38",
"#I c #dc1a04",
"#J c #f44a2c",
"#K c #848a8c",
"#L c #ec2e0c",
"#M c #fceeec",
"#N c #cc2820",
"#O c #8c3234",
"#P c #ecf4f6",
"#Q c #946767",
"#R c #f4e6e4",
"#S c #acaaac",
"#T c #fc6464",
"#U c #bc241c",
"#V c #dcebee",
"#W c #e45c53",
"#X c #fc1e1c",
"#Y c #e44a3c",
"#Z c #dc382d",
"#0 c #1c1e1c",
"#1 c #ac0b05",
"#2 c #fc8b8c",
"#3 c #7c1a1c",
"#4 c #bcbabc",
"#5 c #fc9494",
"#6 c #9c9a9c",
"#7 c #fcacab",
"#8 c #fc3a3c",
"a` c #fc3131",
"a. c #dcbab4",
"a# c #c45a5c",
"aa c #c46a64",
"ab c #8c0404",
"ac c #cc0a04",
"ad c #ccc3c4",
"ae c #cca4a4",
"af c #ac0404",
"ag c #ec1604",
"ah c #444644",
"ai c #d4d6d4",
"aj c #bc0404",
"ak c #ec423c",
"al c #dc1204",
"am c #d48684",
"an c #fcf2f4",
"ao c #9c0304",
"ap c #646264",
"aq c #bc7a7c",
"ar c #ac3634",
"as c #c41214",
"at c #d4cbcc",
"au c #dcdadc",
"av c #7c3634",
"aw c #fcfdfc",
"ax c #cc1214",
"ay c #fcbbbc",
"az c #cc8e8c",
"aA c #cc1a14",
"aB c #cc8281",
"aC c #e45648",
"aD c #f4827c",
"aE c #f47264",
"aF c #cc2e2c",
"aG c #9c0a09",
"aH c #dc3e34",
"aI c #945654",
"aJ c #941614",
"aK c #ac8284",
"aL c #bc1a14",
"aM c #5c5654",
"aN c #a46664",
"aO c #c46264",
"aP c #b42e2c",
"aQ c #7c0204",
"aR c #bc3234",
"aS c #a45654",
"aT c #e43e34",
"aU c #dc1a14",
"aV c #d4463c",
"aW c #ec2a0c",
"aX c #c41a11",
"aY c #fcb6b4",
"aZ c #b40e09",
"a0 c #c41206",
"a1 c #c4221c",
"a2 c #fc2a2c",
"a3 c #e42205",
"a4 c #e44637",
"a5 c #fc5e5c",
"a6 c #bc0e05",
"a7 c #d4aaac",
"a8 c #fccecf",
/* pixels */
"auaiauaiauaiauaiauaiauaiauaiauaiauaiauai#`#caz.Uau.#.U.#.U.#.U.#.U.#.U.#.U.#.U.#.U.#.U.#.U",
".#.U.#.U.#.U.#.U.#.U.#.U.#.U.#.U.#.U.##`a7.Y`b`wadau.#.U.#.Uai.U.#.Uai.U.#.Uai.U.#.Uai.U.#",
".U.#.Uai.U.#.Uai.U.#.Uai.U.#.Uai.U.#.Uau#y.O.W`b#d#`auai.U.#.U.#.U.#.U.#.U.#.U.#.U.#.U.#.U",
".#.U.#.U.#.U.#.U.#.U.#.U.#.U.#.U.#.U`h##aj`q`R#Waj`j#`aiauaiauaiauaiauaiauaiauaiauaiauaiau",
".U.#.U.#.U.#.U.#.U.#.U.#.U.#.U.#.Uauata6aH#w.C#7.3aPaiau.#.U.#.U.#.U.#.U.#.U.#.U.#.U.#.U.#",
".#.Uai.U.#.Uai.U.#.Uai.U.#.Uai.U.##`a#`b.q#t`Ra8`O`z.1#`.U.#.Uai.U.#.Uai.U.#.Uai.U.#.Uai.U",
".U.#.U.#.U.#.U.#.U.#.U.#.U.#.U.#aua7aj#W`R#t#w.y#7.J.Radau.#.U.#.U.#.U.#.U.#.U.#.U.#.U.#.U",
".#.U.#.U.#.U.#.U.#.U.#.U.#.U.#au.##y.3#7#t.y#wayayaDaj#d`hau.#.U.#.U.#.U.#.U.#.U.#.U.#.U.#",
".U.#.Uai.U.#.Uaiauaiauai.U.#.U#`##aj.d`R.y#way`T#7`v`7`k#m#`.U.#.Uaiauaiauaiauaiauaiauai.U",
".#.U.#.U.#.U.#.U.#.U.#.U.#.U.##c.Y#Haya8#waY#7#7`v.M#p`t.Faiauaiauaiauaiauaiauaiauaiauaiau",
".U.#.U.#.U.#.Uaiauaiauaiauai#`a#`2.q`R#waYay`R`v.M#5#5#Wafaq#`.#.U.#.U.#.Uaiauaiauaiauaiau",
".#.Uai.U.#.U.#auaiauaiauai#`a7`z#W#w#wayaYanaw#t#5#2#2#s#N#kadauauaiauaiauaiauaiauaiauai.U",
".U.#.U.#.Uaiauaiauaiauaiau.#aR.3#7.yay#7#tawawaw`T#s#s#s`E#1#d`h.#.U.#.U.#.U.#.U.#.U.#.U.#",
".#.U.#.U.#.Uaiauaiauaiau#`aBaj.d#way#7#wat#j#.#f.H#p#q#u#u#Hao#m#`ai.U.#.Uaiauaiauaiauai.U",
".U.#.U.#.U.#auaiauaiau.#.N`L#H`T#w`T#7.C.z``````#K#w#T#u#T.l`L`0.#auaiauaiauaiauaiauaiau.#",
".#.Uai.U.#.Uaiauaiauai#`aO.t.j#w`T`vayawah``````#faw#s.l.l#za4ao`Z#`auaiauaiauaiauaiauai.U",
".U.#.U.#.U.#auaiauai#`a7`z#WaYaY#7`vanaw#F``````.0aw#w#z#z#g#g`eaJadauauaiauaiauaiauaiauai",
".#.U.#.U.#.Uaiauaiau.UaPa1.May#7.M.yawawap``````.0awaw#s#h#h#8ak`kaS#`.#.U.#.U.#.U.#.U.#.U",
".U.#.Uaiauaiauaiau#``f`z`OaY#7`v#7awawaw#f```````.awaw#t#h#8a`a`.Jab#m#`aiauaiauaiauaiauai",
".#.U.#.U.#.U.#.U.#.NaZ#H#7#7`v#5#tawawaw.0``````#6awawaw.M.`a2.`.E.R#iaiau.#.U.#.U.#.U.#.U",
".U.#.Uaiauaiau.##`#d.Y.j#7`v.M`Tawawawaw`.``````#Eawawaw#M#h#X.`a2.J`U`Z#`ai.U.#.Uaiauaiau",
".#.U.#.U.#.Uai#`a7afaC`v`T.M#5.Cawawawaw#S```````Dawawawaw#7#X.`.`a`aL`Jadau.#.U.#auaiauai",
".U.#.Uaiauaiau.#.2`V`A`H#q#2.I.s.sawawaw#4``````.nawawaw.s.sa5`3aUa6.J`U.7#`.U.#.Uaiauaiau",
".#.U.#.U.#.U#`aB`Y.KaW.5al.o`y#P`Sawawaw`c``````.nawawaw`S#P`pa0.ta6aX#N`##b#`.U.#auaiauai",
".U.#.Uaiau.#at.i#H`F.5.5`l`M`r`y`Sanawawai```````6awawaw`S#B`r`i`za6`Y#N.h#O.#au.Uaiauaiau",
".#.U.#.U.##`.D`L.K`m.5`laC#``y`y`S`Sawaw#B.6``#0`Sawaw`S#B`y.G.U#U`zaZa6#N`#aK#`.#.U.#.U.#",
".U.#.U.#auaeaf`n`H.5a3a3a.#`.w.w#B`S`Sawaw.nap#Dawaw`S`S`y`y.w#`az`z`Y`YaX.p`Jadau.#.U.#.U",
".#.Uaiauau.2`V`A.5.5`l#v`hau.w.w`y#B`S`Sawaw.wawaw`S`S#B`y.wauauau`5`z#1`Y.3abaI#`.U.#.U.#",
".U.#.U#`aqaf#W#La3`l#raiai.Uau.w`y#B#Ban`S#F#l#Gataw#B`y.w.wau.#.#`8aZafaf.Y`4.V#b#`ai.U.#",
".#.U.#at.RaV#J.5a3`l#o.#aiaiau#`.w`y#Baw.v``````apaw#B`y.w.wauaiai#`aaafaf`k.3`U`gaiau.#.U",
".U.##`#d.p.K.5a3`laC.#aiaiaiauau.w.w`y.s.v``````#Faw.w.w.wauaiaiai.#at`K`k`k#1.3.V`1#`.U.#",
".##`ae`k`n`H.ca3`l#a`Q`h`h`h`h#`#V.G`r#P#P`X.b`s`x.S`r.G#V#``h#`au`h#V#d`k`kao.Y#1.madauau",
"au.Uar`w`A.5a3a3`l.f.Z.Z`P.Z`P`P`P.Z.Zam.r.r##aB.r`P`P####.1.1.1.1.1#n.R`k`k`k`kax`#`a#`.#",
"#``f`k.KaW.ca3a3a3#Ialalal`N`N`N.uacac`b`b`b`b`baj`z`z`z`z`z`zafaf`k`k`k`k`k`k`U#1.Y`C#b#`",
".N.iaV`F`la3.c.c#I.X#I`I`I`I`I.u.T.Ta0.ua0`2a6a6a6a6.t`Y`Yafafafafaf`k`k`kaoaoao`U`2`Uavai",
".Pao#W.Q.Q.o.o#Y#Ya4#Ya4.g.faT.f#Z#Z#Z#Z...J.J.J.J.O#N.O#N.O.3.3.3`4aAaX`t`ta0as`2axaZ`Cad",
"at.2.R.R.R.R`o.R`o`o.h.h#k`o#k#k#k#k.eaG.e.e.e`U`U.eababababab`#`#`#`#`#`#`#aQaQaQaQ#x.aai",
"auai#e`B`B`BaN`BaN`BaNaNaNaNaNaNaNaN.AaN.AaN.A.A.A.A.A.A.A#Q.A.A#Q.A#Q#Q#Q#Q#Q#Q#Q`u.kad#P"
};
