/* XPM */
static char * shade_xpm[] = {
"24 32 420 2",
"  	c None",
". 	c #9A9DA1",
"+ 	c #9B9DA2",
"@ 	c #9C9EA3",
"# 	c #9D9FA4",
"$ 	c #9DA0A4",
"% 	c #9C9FA4",
"& 	c #9D9FA3",
"* 	c #9EA1A4",
"= 	c #9C9FA3",
"- 	c #9C9FA2",
"; 	c #9C9EA2",
"> 	c #9A9CA0",
", 	c #9A9DA2",
"' 	c #999CA1",
") 	c #96999E",
"! 	c #999BA0",
"~ 	c #9C9EA4",
"{ 	c #999C9F",
"] 	c #9EA1A6",
"^ 	c #9EA0A4",
"/ 	c #9DA0A3",
"( 	c #9DA0A5",
"_ 	c #9EA0A6",
": 	c #A4A7AC",
"< 	c #A4A6AB",
"[ 	c #A5A7AC",
"} 	c #A3A6AB",
"| 	c #A2A5AA",
"1 	c #A2A4A9",
"2 	c #A1A4A8",
"3 	c #A3A5AA",
"4 	c #A4A6AC",
"5 	c #A1A4AA",
"6 	c #A1A3A9",
"7 	c #A2A4AA",
"8 	c #A1A4A9",
"9 	c #A9ACB1",
"0 	c #A8AAB0",
"a 	c #A8ABB0",
"b 	c #A7A9AE",
"c 	c #AAACB1",
"d 	c #AAACB2",
"e 	c #A8AAAF",
"f 	c #A7AAAF",
"g 	c #AAABB1",
"h 	c #A9ABB1",
"i 	c #A7AAB0",
"j 	c #A6A9AF",
"k 	c #ABADB3",
"l 	c #A8ABB1",
"m 	c #AAADB2",
"n 	c #A9ABB3",
"o 	c #ABACB8",
"p 	c #ABACBB",
"q 	c #AEAFBF",
"r 	c #ABACBD",
"s 	c #ADAEBC",
"t 	c #ACADB9",
"u 	c #AAABB4",
"v 	c #A9ABB0",
"w 	c #AAADB3",
"x 	c #ADAFB5",
"y 	c #AEB0B7",
"z 	c #B0B2B8",
"A 	c #B0B1B7",
"B 	c #B0B3B9",
"C 	c #AFB1B7",
"D 	c #AEB0B6",
"E 	c #B0B3B8",
"F 	c #ACAEBA",
"G 	c #8D8FA5",
"H 	c #686985",
"I 	c #4F516F",
"J 	c #3F4160",
"K 	c #696B86",
"L 	c #ABADBA",
"M 	c #B2B4BA",
"N 	c #B1B3B9",
"O 	c #B1B3BA",
"P 	c #B4B6BC",
"Q 	c #B2B5BB",
"R 	c #B3B5BC",
"S 	c #B4B6BD",
"T 	c #B3B6BC",
"U 	c #B3B5BB",
"V 	c #757791",
"W 	c #60627F",
"X 	c #82839B",
"Y 	c #9A9BAF",
"Z 	c #9697AC",
"` 	c #777892",
" .	c #AEB0BE",
"..	c #B6B8BE",
"+.	c #B8B9C0",
"@.	c #B6B8BF",
"#.	c #B6B9BF",
"$.	c #B5B7BD",
"%.	c #B8BAC0",
"&.	c #B7B9C0",
"*.	c #B8BBC1",
"=.	c #B8BAC1",
"-.	c #B0B1BE",
";.	c #464867",
">.	c #6D6F8A",
",.	c #A1A2B5",
"'.	c #CBCCD7",
").	c #DEDEE5",
"!.	c #E2E2E8",
"~.	c #BCBEC5",
"{.	c #BABBC2",
"].	c #B9BBC2",
"^.	c #B9BCC3",
"/.	c #BBBDC4",
"(.	c #BBBEC5",
"_.	c #BABCC2",
":.	c #B9BAC1",
"<.	c #B6B8C1",
"[.	c #8C8DA4",
"}.	c #4C4E6D",
"|.	c #5C5E7B",
"1.	c #A4A6B8",
"2.	c #B9BAC8",
"3.	c #BBBCCA",
"4.	c #A3A4B6",
"5.	c #80829A",
"6.	c #B7B9C2",
"7.	c #BCBDC4",
"8.	c #BDBFC6",
"9.	c #B0B1BF",
"0.	c #72748E",
"a.	c #626480",
"b.	c #7A7B95",
"c.	c #83859D",
"d.	c #4E506E",
"e.	c #B3B4C1",
"f.	c #C1C3CA",
"g.	c #C2C3CB",
"h.	c #C0C2C9",
"i.	c #BFC2C9",
"j.	c #A8AABA",
"k.	c #515371",
"l.	c #555775",
"m.	c #5B5D7A",
"n.	c #5E5F7C",
"o.	c #6A6C87",
"p.	c #74758F",
"q.	c #575976",
"r.	c #545674",
"s.	c #A8AABB",
"t.	c #C3C5CC",
"u.	c #C4C6CE",
"v.	c #C1C4CA",
"w.	c #BFC1C9",
"x.	c #C6C8D1",
"y.	c #C7C8D1",
"z.	c #C8C9D2",
"A.	c #AAABBC",
"B.	c #454766",
"C.	c #30313F",
"D.	c #353643",
"E.	c #3B3C49",
"F.	c #3E3F4B",
"G.	c #41424E",
"H.	c #3F404C",
"I.	c #313240",
"J.	c #595B79",
"K.	c #CACBD4",
"L.	c #CDCFD6",
"M.	c #C9CBD3",
"N.	c #C8CAD3",
"O.	c #CACCD4",
"P.	c #CACCD5",
"Q.	c #CCCDD6",
"R.	c #ACADBE",
"S.	c #4A4C6A",
"T.	c #383946",
"U.	c #3D3D4A",
"V.	c #42434F",
"W.	c #464752",
"X.	c #4B4B56",
"Y.	c #494A54",
"Z.	c #454651",
"`.	c #494B69",
" +	c #CACBD2",
".+	c #CBCCD3",
"++	c #C9CBD1",
"@+	c #C9CBD2",
"#+	c #CCCCD3",
"$+	c #ADAEBE",
"%+	c #5F617D",
"&+	c #7B7D96",
"*+	c #8A8CA2",
"=+	c #9FA0B3",
"-+	c #A6A7B9",
";+	c #636581",
">+	c #AFB0C0",
",+	c #CFD0D6",
"'+	c #D0D1D7",
")+	c #CECFD6",
"!+	c #CCCED5",
"~+	c #D1D3DA",
"{+	c #D2D3DB",
"]+	c #BBBCC9",
"^+	c #7F8099",
"/+	c #B0B1C1",
"(+	c #B1B3C2",
"_+	c #85879E",
":+	c #BCBDCA",
"<+	c #D5D5DC",
"[+	c #D3D4DA",
"}+	c #D6D7DD",
"|+	c #D2D3DA",
"1+	c #D1D2DA",
"2+	c #D5D6DF",
"3+	c #D6D7E0",
"4+	c #D5D5DE",
"5+	c #C8C9D3",
"6+	c #9B9DB0",
"7+	c #B3B4C4",
"8+	c #A8A9BB",
"9+	c #CDCED8",
"0+	c #D8D9E1",
"a+	c #D8D9E0",
"b+	c #D9DBE1",
"c+	c #D6D8DF",
"d+	c #D4D5DE",
"e+	c #D8DAE3",
"f+	c #D8D8E2",
"g+	c #C5C6D2",
"h+	c #9394A9",
"i+	c #B5B6C5",
"j+	c #C1C2CF",
"k+	c #C9CAD6",
"l+	c #DADCE5",
"m+	c #DBDCE4",
"n+	c #DCDDE5",
"o+	c #DADCE4",
"p+	c #DADCE3",
"q+	c #DADBE4",
"r+	c #D2D4DD",
"s+	c #D3D5DE",
"t+	c #C8C9D4",
"u+	c #70728D",
"v+	c #7D7F97",
"w+	c #C7C8D3",
"x+	c #D1D3DB",
"y+	c #CFD1D9",
"z+	c #D0D2DA",
"A+	c #CECFD7",
"B+	c #CECFD8",
"C+	c #C5C6D1",
"D+	c #C4C5D1",
"E+	c #C6C8D3",
"F+	c #C6C7D3",
"G+	c #C3C4D0",
"H+	c #C5C5D1",
"I+	c #BFC0CD",
"J+	c #6C6E89",
"K+	c #787A93",
"L+	c #C7C9D3",
"M+	c #C9C9D3",
"N+	c #C7C8D2",
"O+	c #CACAD4",
"P+	c #C9C8D2",
"Q+	c #C7C7D0",
"R+	c #C7C7D1",
"S+	c #C7C6D0",
"T+	c #C2C2CD",
"U+	c #D0D1DA",
"V+	c #CFD0D9",
"W+	c #C6C7D1",
"X+	c #C6C6D0",
"Y+	c #C5C4CE",
"Z+	c #C4C5CE",
"`+	c #C5C5CF",
" @	c #C6C6CF",
".@	c #C0C2CA",
"+@	c #BFC0C9",
"@@	c #BEC1C9",
"#@	c #BDC0C8",
"$@	c #BEC1C8",
"%@	c #BFC1C8",
"&@	c #BFC2CA",
"*@	c #C0C3CA",
"=@	c #BDC1C8",
"-@	c #BEC1C7",
";@	c #C0C5C9",
">@	c #BFC3C7",
",@	c #BEC3C7",
"'@	c #BFC2C7",
")@	c #BDC1C6",
"!@	c #BCC0C5",
"~@	c #BDC1C5",
"{@	c #BFC3C8",
"]@	c #BBBFC4",
"^@	c #BBBEC3",
"/@	c #B9BCC1",
"(@	c #B7BBC0",
"_@	c #B9BDC2",
":@	c #B9BCC2",
"<@	c #B8BBC0",
"[@	c #B7BAC0",
"}@	c #B6B9BE",
"|@	c #B5B8BE",
"1@	c #B0B1B8",
"2@	c #B0B3BA",
"3@	c #B2B4BC",
"4@	c #AFB2B9",
"5@	c #B0B2B9",
"6@	c #B0B2BA",
"7@	c #AEB1B8",
"8@	c #AFB1B8",
"9@	c #ADAFB6",
"0@	c #ADAFB7",
"a@	c #AEB0B8",
"b@	c #ADAEB5",
"c@	c #A6A7B0",
"d@	c #A7A8B1",
"e@	c #A5A5AF",
"f@	c #A5A6AF",
"g@	c #A6A7AF",
"h@	c #A5A6AE",
"i@	c #A4A5AE",
"j@	c #A4A6AF",
"k@	c #A6A8B1",
"l@	c #A2A3AD",
"m@	c #A3A4AD",
"n@	c #A3A5AE",
"o@	c #A4A4AD",
"p@	c #A5A5AE",
"q@	c #A4A6AE",
"r@	c #A2A4AD",
"s@	c #A4A5AD",
"t@	c #9E9EA5",
"u@	c #9D9EA6",
"v@	c #9D9DA5",
"w@	c #9F9FA7",
"x@	c #A1A1A9",
"y@	c #A1A1AA",
"z@	c #A2A1AB",
"A@	c #A5A3AD",
"B@	c #A5A4AD",
"C@	c #A4A3AC",
"D@	c #A3A2AC",
"E@	c #A5A4AE",
"F@	c #A7A6B0",
"G@	c #A8A7B1",
"H@	c #A9A7B1",
"I@	c #A2A3AA",
"J@	c #A1A2A9",
"K@	c #A2A4AB",
"L@	c #A4A5AC",
"M@	c #A2A3AB",
"N@	c #A3A4AB",
"O@	c #A3A5AC",
"P@	c #A1A3AB",
"Q@	c #A1A3AA",
"R@	c #A0A2A9",
"S@	c #A1A2AA",
"T@	c #A3A4AC",
"U@	c #A0A1A9",
"V@	c #9E9FA7",
"W@	c #9C9CA5",
"X@	c #9E9EA7",
"Y@	c #9D9DA6",
"Z@	c #9D9EA7",
"`@	c #9E9EA8",
" #	c #9C9BA5",
".#	c #9D9DA7",
"+#	c #9E9DA7",
"@#	c #9F9FA9",
"##	c #A1A0AA",
"$#	c #9F9EA7",
"%#	c #9F9FA8",
"&#	c #A09FA8",
"*#	c #9C9DA6",
"=#	c #9C9CA6",
"-#	c #9D9CA6",
";#	c #A09FA9",
">#	c #A0A0AA",
",#	c #A0A0A9",
"'#	c #9E9DA6",
")#	c #9B9BA5",
"!#	c #9C9BA6",
"~#	c #9E9DA8",
"{#	c #9B9AA5",
"]#	c #9D9CA7",
"^#	c #9B9AA4",
"/#	c #9B9BA6",
"(#	c #A09FAA",
"_#	c #9F9EA8",
":#	c #9F9EA9",
"<#	c #9F9DA8",
"[#	c #A1A0AB",
"}#	c #A3A3AC",
"|#	c #A0A0AB",
"1#	c #A1A1AC",
"2#	c #9F9EAA",
"3#	c #A19FAA",
"4#	c #A2A1AD",
"5#	c #A3A2AD",
"6#	c #A2A1AC",
"7#	c #A3A3AD",
"8#	c #A5A3AE",
"9#	c #A5A4AF",
"0#	c #A6A5AF",
"a#	c #A7A5B0",
"b#	c #A8A6B1",
"c#	c #A9A7B2",
"d#	c #A9A8B2",
"e#	c #A9A8B1",
"f#	c #AAA9B3",
"g#	c #A5A4B0",
"h#	c #A6A6B2",
"i#	c #A8A7B3",
"j#	c #A7A5B1",
"k#	c #A4A3AE",
"l#	c #A8A7B2",
"m#	c #A7A6B1",
". . + @ # $ % & * = - ; > , ' ) ! ~ ' ' ' ' > { ",
", + $ ] ] $ @ ^ * ; / $ % ( % + % _ @ % % % = % ",
": < : [ } | } < 1 2 | } 3 | 4 } 5 6 7 8 6 7 3 : ",
"9 0 a 9 a b c d e f 0 g h e 0 e 0 0 0 f i j f k ",
"l a 9 9 a l m n o p q r s t u h 9 k l v w k x y ",
"z A B C D E F G H I J J I K G L M N z O P Q R Q ",
"S T P Q U p V I W X Y Z X W I `  ...+.@.#.$.#.%.",
"&.&.*.=.-.V ;.>.,.'.).!.'.,.>.;.V -.~.{.].^./.(.",
"_.:._.<.[.}.|.X 1.2.3.3.2.4.5.|.I G 6.~.7.8.8.8.",
"~././.9.0.}.a.K b.X c.X 5.` K a.d.0.e.f.g.g.h.h.",
"f.h.i.j.k.l.m.n.o.0.p.p.0.H n.m.q.r.s.t.u.v.w.w.",
"x.y.z.A.B.m.C.D.E.F.G.G.H.E.D.I.J.B.A.K.L.M.z.N.",
"O.P.Q.R.S.W T.U.V.W.X.X.Y.Z.F.T.n.`.R. +.+++ +@+",
"++.+#+$+%+a.&+*+Z =+-+-+=+Z G &+;+W >+,+,+'+)+!+",
"~+{+~+]+^+n.c.Z ,.A./+(+A.,.Z _+|.X :+<+[+}+|+1+",
"2+3+4+5+1.W &+6+R.7+2.2.7+R.,.5.W 8+9+0+a+b+c+d+",
"0+e+f+2+g+h+n.G R.i+j+j+3.R.h+%+h+k+l+m+n+o+p+q+",
"2+3+2+r+s+t+Z u+v+Y R.(+6+5.0.Z w+x+y+1+z+A+B+B+",
"C+D+E+F+D+G+H+I+G V J+>.K+G G+F+t+L+t+M+N+y.M+O+",
"P+Q+R+Q+R+Q+S+T+N+U+2+0+V+W+T+y.X+Y+y.y.Z+Z+`+ @",
".@w.+@@@w..@#@8.$@%@&@*@$@$@i.i.$@$@*@i.=@-@-@%@",
";@>@,@'@>@)@!@~@{@)@)@!@]@^@^@/@(@_@:@<@[@(@}@|@",
"1@2@3@O 4@5@O 6@5@7@4@2@8@8@8@9@0@4@a@0@y a@9@b@",
"c@d@d@e@f@g@d@h@i@j@c@k@l@m@n@o@j@c@p@q@m@r@s@i@",
"t@u@v@v@w@w@x@y@z@A@B@p@C@D@E@F@G@H@I@J@7 K@I@L@",
"L@M@N@N@N@K@K@N@O@O@I@P@Q@R@J@M@O@I@M@M@S@S@S@T@",
"U@S@S@U@U@S@x@U@S@V@v@W@X@Y@Y@Z@`@ #.#+#+#@###y@",
"$#%#&#%#+#`@$#+#x@*# #W@*#=#.#Y@.#-#.#*#-#;#>#,#",
"-#-#+#Z@Y@.#'#-#'#W@-#=#)#!#.# #)#=#-#=#~#Z@-#.#",
".#-#-#Y@.#-#+#X@Y@$#=#{#=#]#~#^#{#/#!#`@##]#W@.#",
"(#_#:#%#<#;#[#z@;#}#@#:#|#1#[#:#2#3#4#5#6#[#z@7#",
"8#8#9#0#a#b#c#d#e#f#F@g#h#i#j#k#g#l#l#l#m#j#F@m#"};
