/* XPM */
static char *alsalogo_xpm[] = {
/* width height ncolors chars_per_pixel */
"40 20 6 1",
/* colors */
"  c #000000",
". c #C7D9C5",
"X c #737A72",
"o c #262926",
"O c #B7C5B6",
"+ c None",
/* pixels */
"++++++++++++OXXoo      ooXXO++++++++++++",
"++++++++.Xo                  oX.++++++++",
"++++++Xo     oXXXOO.....OOXXXo  oX++++++",
"++++O    oXO...................OXo O++++",
"+++o   XO.. ...  .....X  .... ....OXo+++",
"++o  X..... ...  ....X   .... .......X++",
"+o  O.....X X..  ....  .....X X.......O+",
"X o.......   ..  ....X .....   .......OX",
"o O.......   ..  ..... X....   ........o",
" X.......X . X.  .....  ...X . X......O ",
" O.......  .  .  ...... X..  .  ......X ",
"o........  .  .  ......  ..  .  .....O o",
"XO.......     .  ....... X.     .....o X",
"+O.......     .  .......  .     ...O  o+",
"++X......  .  .     .    X.  .  ..X  o++",
"+++oXO...  .  .     .   X..  .  X   o+++",
"++++O oXO...................OXo    O++++",
"++++++Xo  oXXXOO.....OOXXXo     oX++++++",
"++++++++.Xo                  oX.++++++++",
"++++++++++++OXXoo      ooXXO++++++++++++"
};
