/* XPM */
static char* lock0_xpm[]={
"19 14 3 1",
"# c #505050",
". c None",
"c c #ffffff",
"..#####............",
".#ccccc#...........",
"#ccccccc#..........",
"#cc###cc#..........",
"#cc#.#cc#..........",
"#cc#.#########.....",
"####.#ccccccc#.....",
".....#ccccccc#.....",
".....#########.....",
".....#ccccccc#.....",
".....#ccccccc#.....",
".....#ccccccc#.....",
".....#ccccccc#.....",
".....#########....."};
