/* XPM */
static char* lock1_xpm[]={
"19 14 4 1",
"x c #C7D9C5",
"A c #505050",
". c None",
"# c #000000",
".......#####.......",
"......#xxxxx#......",
".....#xxxxxxx#.....",
".....#xx###xx#.....",
".....#xx#.#xx#.....",
".....#########.....",
".....#xxxxxxx#.....",
".....#xxxxxxx#.....",
".....#AAAAAAA#.....",
".....#xxxxxxx#.....",
".....#xxxxxxx#.....",
".....#xxxxxxx#.....",
".....#xxxxxxx#.....",
".....#########....."};
