/* XPM */
static char * rec0_xpm[] = {
"12 12 3 1",
" 	c None",
".	c #505050",
"X	c #FFFFFF",
"            ",
"   ......   ",
"  ..XXXX..  ",
" ..XXXXXX.. ",
" .XXXXXXXX. ",
" .XXXXXXXX. ",
" .XXXXXXXX. ",
" .XXXXXXXX. ",
" ..XXXXXX.. ",
"  ..XXXX..  ",
"   ......   ",
"            "};
