/* XPM */
static char * speakerleft1_xpm[] = {
"14 12 4 1",
" 	c None",
".	c #000000",
"X	c #C7D9C5",
"x	c #505050",
"   xx ..      ",
"  x   .X. ....",
" x   x.XX..XX.",
"x   x .XXX.XX.",
"x  x  .XXX.XX.",
"x  x  .XXX.XX.",
"x  x  .XXX.XX.",
"x  x  .XXX.XX.",
"x   x .XXX.XX.",
" x   x.XX..XX.",
"  x   .X. ....",
"   xx ..      "};
