/* XPM */
static char * speakerleft0_xpm[] = {
"16 16 3 1",
" 	c None",
".	c #505050",
"X	c #FFFFFF",
"                ",
"                ",
"       ..       ",
"       .X. .... ",
"       .XX..XX. ",
"       .XXX.XX. ",
"       .XXX.XX. ",
"       .XXX.XX. ",
"       .XXX.XX. ",
"       .XXX.XX. ",
"       .XXX.XX. ",
"       .XX..XX. ",
"       .X. .... ",
"       ..       ",
"                ",
"                "};
