/* XPM */
static char * speakerright0_xpm[] = {
"16 16 3 1",
" 	c None",
".	c #505050",
"X	c #FFFFFF",
"                ",
"                ",
"       ..       ",
" .... .X.       ",
" .XX..XX.       ",
" .XX.XXX.       ",
" .XX.XXX.       ",
" .XX.XXX.       ",
" .XX.XXX.       ",
" .XX.XXX.       ",
" .XX.XXX.       ",
" .XX..XX.       ",
" .... .X.       ",
"       ..       ",
"                ",
"                "};
