<?xml version="1.0" encoding="UTF-8" standalone="no"?>
<!-- Created with Inkscape (http://www.inkscape.org/) -->
<svg
   xmlns:dc="http://purl.org/dc/elements/1.1/"
   xmlns:cc="http://web.resource.org/cc/"
   xmlns:rdf="http://www.w3.org/1999/02/22-rdf-syntax-ns#"
   xmlns:svg="http://www.w3.org/2000/svg"
   xmlns="http://www.w3.org/2000/svg"
   xmlns:xlink="http://www.w3.org/1999/xlink"
   xmlns:sodipodi="http://inkscape.sourceforge.net/DTD/sodipodi-0.dtd"
   xmlns:inkscape="http://www.inkscape.org/namespaces/inkscape"
   width="48.000000px"
   height="48.000000px"
   id="svg2"
   sodipodi:version="0.32"
   inkscape:version="0.43"
   sodipodi:docbase="/home/silvestre/Desktop/yasis/scalable/apps"
   sodipodi:docname="mozilla-firefox.svg">
  <defs
     id="defs4">
    <linearGradient
       inkscape:collect="always"
       id="linearGradient2483">
      <stop
         style="stop-color:#ffffff;stop-opacity:0.13304721"
         offset="0"
         id="stop2485" />
      <stop
         style="stop-color:#ffffff;stop-opacity:0.16309012"
         offset="1"
         id="stop2487" />
    </linearGradient>
    <linearGradient
       inkscape:collect="always"
       id="linearGradient6305">
      <stop
         style="stop-color:#ffffff;stop-opacity:1;"
         offset="0"
         id="stop6307" />
      <stop
         style="stop-color:#ffffff;stop-opacity:0.18431373"
         offset="1"
         id="stop6309" />
    </linearGradient>
    <linearGradient
       inkscape:collect="always"
       id="linearGradient5569">
      <stop
         style="stop-color:#ffffff;stop-opacity:0.38190955"
         offset="0"
         id="stop5571" />
      <stop
         style="stop-color:#ffffff;stop-opacity:0;"
         offset="1"
         id="stop5573" />
    </linearGradient>
    <linearGradient
       inkscape:collect="always"
       id="linearGradient4832">
      <stop
         style="stop-color:#000000;stop-opacity:0.74874371"
         offset="0"
         id="stop4834" />
      <stop
         style="stop-color:#000000;stop-opacity:0;"
         offset="1"
         id="stop4836" />
    </linearGradient>
    <linearGradient
       inkscape:collect="always"
       id="linearGradient4822">
      <stop
         style="stop-color:#ffffff;stop-opacity:0.70854270"
         offset="0"
         id="stop4824" />
      <stop
         style="stop-color:#ffffff;stop-opacity:0;"
         offset="1"
         id="stop4826" />
    </linearGradient>
    <linearGradient
       id="linearGradient4032">
      <stop
         style="stop-color:#a8caf0;stop-opacity:1.0000000"
         offset="0"
         id="stop4034" />
      <stop
         id="stop4040"
         offset="0.50000000"
         style="stop-color:#6fa8e5;stop-opacity:1.0000000;" />
      <stop
         style="stop-color:#3d5e81;stop-opacity:1.0000000;"
         offset="1.0000000"
         id="stop4036" />
    </linearGradient>
    <radialGradient
       inkscape:collect="always"
       xlink:href="#linearGradient4032"
       id="radialGradient4038"
       cx="19.466484"
       cy="21.537201"
       fx="19.466484"
       fy="21.537201"
       r="20.366457"
       gradientUnits="userSpaceOnUse"
       gradientTransform="matrix(1.319743,-8.280958e-18,8.280958e-18,1.319743,-5.717938,-6.098742)" />
    <radialGradient
       inkscape:collect="always"
       xlink:href="#linearGradient4822"
       id="radialGradient4828"
       cx="18.048532"
       cy="16.222176"
       fx="18.048532"
       fy="16.222176"
       r="19.730457"
       gradientUnits="userSpaceOnUse"
       gradientTransform="matrix(1.055181,3.349989e-16,-3.349989e-16,1.055181,-0.995935,-0.895155)" />
    <radialGradient
       inkscape:collect="always"
       xlink:href="#linearGradient4832"
       id="radialGradient4838"
       cx="25.099730"
       cy="38.555256"
       fx="25.099730"
       fy="57.324848"
       r="22.253368"
       gradientTransform="matrix(1.000000,0.000000,0.000000,0.319767,0.000000,26.22654)"
       gradientUnits="userSpaceOnUse" />
    <linearGradient
       inkscape:collect="always"
       xlink:href="#linearGradient5569"
       id="linearGradient5575"
       x1="23.852491"
       y1="2.7422695"
       x2="23.852491"
       y2="22.760921"
       gradientUnits="userSpaceOnUse"
       gradientTransform="matrix(1.434109,0,0,1.457365,-10.60381,-7.96542)" />
    <linearGradient
       inkscape:collect="always"
       xlink:href="#linearGradient6305"
       id="linearGradient6311"
       x1="15.764170"
       y1="6.1819062"
       x2="23.214489"
       y2="33.986877"
       gradientUnits="userSpaceOnUse" />
    <linearGradient
       id="linearGradient865">
      <stop
         style="stop-color:#ffffff;stop-opacity:1.0000000;"
         offset="0.00000000"
         id="stop866" />
      <stop
         style="stop-color:#ffffff;stop-opacity:0.00000000;"
         offset="1.0000000"
         id="stop868" />
    </linearGradient>
    <linearGradient
       id="linearGradient1678">
      <stop
         style="stop-color:#d1940c;stop-opacity:0.0000000;"
         offset="0.0000000"
         id="stop1679" />
      <stop
         style="stop-color:#ffe689;stop-opacity:0.48275861;"
         offset="0.50000000"
         id="stop2363" />
      <stop
         style="stop-color:#ffe689;stop-opacity:1.0000000;"
         offset="1.0000000"
         id="stop1680" />
    </linearGradient>
    <linearGradient
       id="linearGradient1544">
      <stop
         style="stop-color:#000000;stop-opacity:0.0000000;"
         offset="0.0000000"
         id="stop1545" />
      <stop
         style="stop-color:#000000;stop-opacity:0.32989690;"
         offset="1.0000000"
         id="stop1546" />
    </linearGradient>
    <linearGradient
       id="linearGradient1715">
      <stop
         style="stop-color:#d86f35;stop-opacity:1.0000000;"
         offset="0.0000000"
         id="stop1716" />
      <stop
         style="stop-color:#dddd49;stop-opacity:1.0000000;"
         offset="1.0000000"
         id="stop1717" />
    </linearGradient>
    <linearGradient
       id="linearGradient1539">
      <stop
         style="stop-color:#ffffff;stop-opacity:0.0000000;"
         offset="0.0000000"
         id="stop1540" />
      <stop
         style="stop-color:#fff;stop-opacity:1;"
         offset="1"
         id="stop1541" />
    </linearGradient>
    <linearGradient
       id="linearGradient3274"
       inkscape:collect="always">
      <stop
         id="stop3276"
         offset="0"
         style="stop-color:#ffffff;stop-opacity:1;" />
      <stop
         id="stop3278"
         offset="1"
         style="stop-color:#ffffff;stop-opacity:0;" />
    </linearGradient>
    <linearGradient
       inkscape:collect="always"
       xlink:href="#linearGradient1715"
       id="linearGradient1564"
       gradientUnits="userSpaceOnUse"
       gradientTransform="matrix(0.362166,0,0,0.301688,253.2234,17.40828)"
       x1="-149.33857"
       y1="168.01182"
       x2="-358.22324"
       y2="-85.246893" />
    <linearGradient
       inkscape:collect="always"
       xlink:href="#linearGradient1715"
       id="linearGradient1566"
       gradientUnits="userSpaceOnUse"
       gradientTransform="matrix(0.387131,0,0,0.346648,131.0042,-1.554344)"
       x1="-149.33857"
       y1="168.01182"
       x2="-358.22324"
       y2="-85.246893" />
    <linearGradient
       inkscape:collect="always"
       xlink:href="#linearGradient1544"
       id="linearGradient1568"
       gradientUnits="userSpaceOnUse"
       gradientTransform="matrix(0.911834,0,0,0.815216,-6.785899,-7.62614)"
       x1="94.089043"
       y1="95.194012"
       x2="167.50670"
       y2="103.51086" />
    <linearGradient
       inkscape:collect="always"
       xlink:href="#linearGradient1544"
       id="linearGradient1570"
       gradientUnits="userSpaceOnUse"
       gradientTransform="matrix(0.347451,0,0,0.386236,131.0042,-1.554344)"
       x1="-205.66159"
       y1="115.27377"
       x2="-239.40342"
       y2="78.405006" />
    <linearGradient
       inkscape:collect="always"
       xlink:href="#linearGradient1678"
       id="linearGradient1572"
       gradientUnits="userSpaceOnUse"
       gradientTransform="matrix(0.348268,0,0,0.385331,131.0042,-1.554344)"
       x1="-330.60001"
       y1="102.07395"
       x2="-333.24067"
       y2="160.00358" />
    <linearGradient
       inkscape:collect="always"
       xlink:href="#linearGradient1678"
       id="linearGradient1574"
       gradientUnits="userSpaceOnUse"
       gradientTransform="matrix(0.266434,0,0,0.503683,131.0042,-1.554344)"
       x1="-408.14194"
       y1="90.897339"
       x2="-421.80730"
       y2="121.21736" />
    <linearGradient
       inkscape:collect="always"
       xlink:href="#linearGradient1678"
       id="linearGradient1576"
       gradientUnits="userSpaceOnUse"
       gradientTransform="matrix(0.35585,0,0,0.37712,131.0042,-1.554344)"
       x1="-309.44345"
       y1="109.06222"
       x2="-317.68594"
       y2="136.38800" />
    <linearGradient
       inkscape:collect="always"
       xlink:href="#linearGradient1544"
       id="linearGradient1578"
       gradientUnits="userSpaceOnUse"
       gradientTransform="matrix(0.646647,0,0,0.207529,131.0042,-1.554344)"
       x1="-92.911313"
       y1="387.21167"
       x2="-139.60914"
       y2="386.11549" />
    <linearGradient
       inkscape:collect="always"
       xlink:href="#linearGradient865"
       id="linearGradient1580"
       gradientUnits="userSpaceOnUse"
       gradientTransform="matrix(0.572374,0,0,0.234459,131.0042,-1.554344)"
       x1="-85.841276"
       y1="308.86544"
       x2="-110.48072"
       y2="304.37498" />
    <linearGradient
       inkscape:collect="always"
       xlink:href="#linearGradient1544"
       id="linearGradient1582"
       gradientUnits="userSpaceOnUse"
       gradientTransform="matrix(0.438442,0,0,0.30608,131.0042,-1.554344)"
       x1="-97.605846"
       y1="333.24545"
       x2="-354.68715"
       y2="273.19490" />
    <linearGradient
       inkscape:collect="always"
       xlink:href="#linearGradient1678"
       id="linearGradient1584"
       gradientUnits="userSpaceOnUse"
       gradientTransform="matrix(0.227108,0,0,0.5909,131.0042,-1.554344)"
       x1="-511.18008"
       y1="95.737396"
       x2="-516.50783"
       y2="150.08051" />
    <linearGradient
       inkscape:collect="always"
       xlink:href="#linearGradient1544"
       id="linearGradient1586"
       gradientUnits="userSpaceOnUse"
       gradientTransform="matrix(0.346407,0,0,0.3874,131.0042,-1.554344)"
       x1="-250.38893"
       y1="215.98548"
       x2="-250.38893"
       y2="141.54056" />
    <linearGradient
       inkscape:collect="always"
       xlink:href="#linearGradient1539"
       id="linearGradient1588"
       gradientUnits="userSpaceOnUse"
       gradientTransform="matrix(0.498808,0,0,0.269038,131.0042,-1.554344)"
       x1="-209.76400"
       y1="117.21825"
       x2="-218.76357"
       y2="24.933253" />
    <linearGradient
       inkscape:collect="always"
       xlink:href="#linearGradient1678"
       id="linearGradient1590"
       gradientUnits="userSpaceOnUse"
       gradientTransform="matrix(0.192922,0,0,0.695609,131.0042,-1.554344)"
       x1="-115.19077"
       y1="99.348434"
       x2="-109.04087"
       y2="52.683737" />
    <linearGradient
       inkscape:collect="always"
       xlink:href="#linearGradient1678"
       id="linearGradient1592"
       gradientUnits="userSpaceOnUse"
       gradientTransform="matrix(0.250709,0,0,0.535276,131.0042,-1.554344)"
       x1="-64.019714"
       y1="152.51250"
       x2="-15.264827"
       y2="39.126918" />
    <linearGradient
       inkscape:collect="always"
       xlink:href="#linearGradient1678"
       id="linearGradient1594"
       gradientUnits="userSpaceOnUse"
       gradientTransform="matrix(0.420812,0,0,0.318902,131.0042,-1.554344)"
       x1="-139.41411"
       y1="308.24659"
       x2="-4.5985274"
       y2="251.78520" />
    <linearGradient
       inkscape:collect="always"
       xlink:href="#linearGradient865"
       id="linearGradient1596"
       gradientUnits="userSpaceOnUse"
       gradientTransform="matrix(0.452546,0,0,0.296541,131.0042,-1.554344)"
       x1="-120.33224"
       y1="137.42605"
       x2="-190.29474"
       y2="149.39012" />
    <linearGradient
       inkscape:collect="always"
       xlink:href="#linearGradient1678"
       id="linearGradient1598"
       gradientUnits="userSpaceOnUse"
       gradientTransform="matrix(0.181491,0,0,0.739421,131.0042,-1.554344)"
       x1="-521.60407"
       y1="88.589658"
       x2="-495.59815"
       y2="145.10028" />
    <linearGradient
       inkscape:collect="always"
       xlink:href="#linearGradient1715"
       id="linearGradient1600"
       gradientUnits="userSpaceOnUse"
       gradientTransform="matrix(0.446197,0,0,0.300761,401.0116,84.9324)"
       x1="-679.00317"
       y1="-206.01076"
       x2="-695.83514"
       y2="-248.15047" />
    <linearGradient
       inkscape:collect="always"
       xlink:href="#linearGradient1678"
       id="linearGradient1602"
       gradientUnits="userSpaceOnUse"
       x1="-1040.0103"
       y1="179.49951"
       x2="-1030.6890"
       y2="331.24954" />
    <linearGradient
       inkscape:collect="always"
       xlink:href="#linearGradient3274"
       id="linearGradient1604"
       gradientUnits="userSpaceOnUse"
       x1="142.74911"
       y1="22.612898"
       x2="173.70050"
       y2="62.130428" />
    <linearGradient
       inkscape:collect="always"
       xlink:href="#linearGradient3274"
       id="linearGradient1606"
       gradientUnits="userSpaceOnUse"
       x1="109.66999"
       y1="120.74631"
       x2="166.86958"
       y2="70.913040" />
    <linearGradient
       inkscape:collect="always"
       xlink:href="#linearGradient2483"
       id="linearGradient1608"
       gradientUnits="userSpaceOnUse"
       x1="193.75931"
       y1="15.823989"
       x2="193.75931"
       y2="95.746254" />
  </defs>
  <sodipodi:namedview
     id="base"
     pagecolor="#ffffff"
     bordercolor="#666666"
     borderopacity="1.0"
     inkscape:pageopacity="0.0"
     inkscape:pageshadow="2"
     inkscape:zoom="1.4142136"
     inkscape:cx="-18.104303"
     inkscape:cy="64.635937"
     inkscape:document-units="px"
     inkscape:current-layer="layer1"
     inkscape:window-width="889"
     inkscape:window-height="582"
     inkscape:window-x="6"
     inkscape:window-y="46" />
  <metadata
     id="metadata7">
    <rdf:RDF>
      <cc:Work
         rdf:about="">
        <dc:format>image/svg+xml</dc:format>
        <dc:type
           rdf:resource="http://purl.org/dc/dcmitype/StillImage" />
      </cc:Work>
    </rdf:RDF>
  </metadata>
  <g
     inkscape:label="Layer 1"
     inkscape:groupmode="layer"
     id="layer1">
    <path
       sodipodi:type="arc"
       style="opacity:1.0000000;color:#000000;fill:url(#radialGradient4838);fill-opacity:1.0000000;fill-rule:nonzero;stroke:none;stroke-width:1.0000000;stroke-linecap:round;stroke-linejoin:round;marker:none;marker-start:none;marker-mid:none;marker-end:none;stroke-miterlimit:4.0000000;stroke-dasharray:none;stroke-dashoffset:0.0000000;stroke-opacity:1.0000000;visibility:visible;display:inline;overflow:visible"
       id="path4830"
       sodipodi:cx="25.099730"
       sodipodi:cy="38.555256"
       sodipodi:rx="22.253368"
       sodipodi:ry="7.1159029"
       d="M 47.353098 38.555256 A 22.253368 7.1159029 0 1 1  2.8463612,38.555256 A 22.253368 7.1159029 0 1 1  47.353098 38.555256 z"
       transform="translate(0.000000,0.258760)" />
    <path
       sodipodi:type="arc"
       style="opacity:1.0000000;color:#000000;fill:url(#radialGradient4038);fill-opacity:1.0;fill-rule:nonzero;stroke:#2664a2;stroke-width:0.89738654;stroke-linecap:round;stroke-linejoin:round;marker:none;marker-start:none;marker-mid:none;marker-end:none;stroke-miterlimit:4.0000000;stroke-dasharray:none;stroke-dashoffset:0.0000000;stroke-opacity:1.0000000;visibility:visible;display:inline;overflow:visible"
       id="path3304"
       sodipodi:cx="23.223721"
       sodipodi:cy="24.646900"
       sodipodi:rx="19.730457"
       sodipodi:ry="19.730457"
       d="M 42.954178 24.646900 A 19.730457 19.730457 0 1 1  3.4932632,24.646900 A 19.730457 19.730457 0 1 1  42.954178 24.646900 z"
       transform="matrix(1.114347,0.000000,0.000000,1.114347,-1.620520,-4.370858)" />
    <path
       style="fill:#ffffff;fill-opacity:1.0000000"
       d="M 26.251972,2.0996468 C 24.437052,2.0996422 22.634019,2.1921515 21.511961,2.4031694 C 16.796187,3.2900180 12.963905,5.2320512 9.3625636,8.5670392 C 8.5408344,9.3279936 10.186676,9.4099895 10.749664,9.3122815 C 11.113134,9.2492092 10.987987,9.5418072 11.308466,9.3141733 C 12.125773,8.7336281 12.804313,8.8828038 14.102575,9.9679159 C 15.055033,10.763993 15.162269,10.944554 15.449734,12.022539 C 15.719377,13.033711 15.739405,13.439070 15.574473,14.847641 L 15.374893,16.482004 L 16.372792,18.209756 C 17.344280,19.900335 17.374246,19.931478 17.844691,19.774066 L 18.318689,19.610633 L 17.794793,18.606671 L 17.245952,17.579353 L 18.443429,18.606671 C 19.859284,19.820873 20.355668,20.075719 22.534804,20.591246 C 24.146510,20.972541 24.205988,20.986516 24.780073,21.781993 C 25.102841,22.229221 25.353862,22.661435 25.353862,22.715913 C 25.353871,22.770392 24.665896,23.584803 23.807122,24.537058 L 22.235433,26.264810 L 23.033752,26.965246 C 23.472691,27.347593 24.292019,28.044539 24.854914,28.506214 L 25.877758,29.346738 L 26.251972,32.031760 C 26.459214,33.510123 26.715151,35.046996 26.825761,35.463910 C 27.037314,36.261238 28.171709,38.958377 29.120922,40.927339 L 29.694716,42.094734 L 30.068925,41.744514 C 30.354334,41.477413 30.510131,40.970570 30.692612,39.736592 C 30.825490,38.838111 31.104073,37.497864 31.316298,36.748052 L 31.690506,35.393866 L 34.808936,32.452018 L 37.902416,29.510179 L 38.027151,27.315468 L 38.151890,25.097407 L 36.879572,24.233531 L 35.607255,23.369655 L 31.416084,22.926048 C 27.420409,22.500200 27.206964,22.452892 26.476496,21.968775 C 25.744486,21.483616 25.728067,21.435270 25.728075,20.591246 C 25.728084,19.828553 25.634297,19.601764 25.079440,18.980235 L 24.430809,18.256447 L 25.254072,17.509309 C 26.022654,16.790036 26.078250,16.770578 26.551339,16.972308 C 26.994659,17.161349 27.080686,17.143089 27.349657,16.832227 C 27.601120,16.541597 27.858535,16.482004 28.846500,16.482004 C 29.637984,16.482004 30.068708,16.552296 30.118823,16.692138 C 30.160253,16.807703 30.285765,17.209791 30.393240,17.602706 C 30.575194,18.267943 30.620626,18.326493 31.191559,18.326493 L 31.815246,18.326493 L 31.540823,17.532662 C 31.398453,17.093506 31.292402,16.673441 31.291350,16.598741 C 31.290279,16.524045 32.049303,16.119162 32.987773,15.711517 C 33.926253,15.303879 34.709146,14.924839 34.709146,14.870993 C 34.709154,14.817152 34.578964,14.571684 34.434723,14.310643 C 34.116801,13.735233 34.220632,13.610201 35.033461,13.610201 C 35.650410,13.610201 35.655693,13.617226 35.332832,13.283330 C 35.013283,12.952856 35.007447,12.931241 35.507464,12.442802 L 36.031361,11.929142 L 35.682097,11.298752 C 35.492224,10.951937 35.283775,10.404118 35.233042,10.061313 L 35.158200,9.4309106 L 33.885883,10.178049 C 33.194393,10.595276 32.540629,11.142751 32.413984,11.368796 C 32.180356,11.785819 31.869816,11.854940 31.141667,11.672316 C 30.830623,11.594303 30.742514,11.451079 30.742505,11.041926 C 30.742514,10.611864 30.963249,10.290634 31.890087,9.4309106 L 33.037671,8.3802527 L 32.638509,7.4229841 L 32.264301,6.4657188 L 30.368295,6.3489780 L 28.497236,6.2322373 L 27.474392,7.1895105 L 26.451548,8.1234265 L 25.204179,7.9132965 L 23.956806,7.7031631 L 25.129338,5.3917093 L 26.301865,3.0802602 C 26.301865,3.0802602 26.706964,2.5185226 26.251972,2.0996468 z "
       id="path3334"
       sodipodi:nodetypes="cssssssccccccccsssccccccscccscccccccccsscccssssscccssssssccccccsssccccccccccccc" />
    <path
       sodipodi:nodetypes="cssssssccccccccsssccccccscccscccccccccsscccssssscccssssssccccccsssccccccccccccc"
       id="path1341"
       d="M 25.703059,1.7337047 C 23.888139,1.7337001 22.085106,1.8262094 20.963048,2.0372273 C 16.247274,2.9240759 12.414992,4.8661091 8.8136500,8.2010971 C 7.9919210,8.9620515 9.6377630,9.0440474 10.200751,8.9463394 C 10.564221,8.8832671 10.439074,9.1758651 10.759553,8.9482312 C 11.576860,8.3676860 12.255400,8.5168617 13.553662,9.6019738 C 14.506120,10.398051 14.613356,10.578612 14.900821,11.656597 C 15.170464,12.667769 15.190492,13.073128 15.025560,14.481699 L 14.825980,16.116062 L 15.823879,17.843814 C 16.795367,19.534393 16.825333,19.565536 17.295778,19.408124 L 17.769776,19.244691 L 17.245880,18.240729 L 16.697039,17.213411 L 17.894516,18.240729 C 19.310371,19.454931 19.806755,19.709777 21.985891,20.225304 C 23.597597,20.606599 23.657075,20.620574 24.231160,21.416051 C 24.553928,21.863279 24.804949,22.295493 24.804949,22.349971 C 24.804958,22.404450 24.116983,23.218861 23.258209,24.171116 L 21.686520,25.898868 L 22.484839,26.599304 C 22.923778,26.981651 23.743106,27.678597 24.306001,28.140272 L 25.328845,28.980796 L 25.703059,31.665818 C 25.910301,33.144181 26.166238,34.681054 26.276848,35.097968 C 26.488401,35.895296 27.622796,38.592435 28.572009,40.561397 L 29.145803,41.728792 L 29.520012,41.378572 C 29.805421,41.111471 29.961218,40.604628 30.143699,39.370650 C 30.276577,38.472169 30.555160,37.131922 30.767385,36.382110 L 31.141593,35.027924 L 34.260023,32.086076 L 37.353503,29.144237 L 37.478238,26.949526 L 37.602977,24.731465 L 36.330659,23.867589 L 35.058342,23.003713 L 30.867171,22.560106 C 26.871496,22.134258 26.658051,22.086950 25.927583,21.602833 C 25.195573,21.117674 25.179154,21.069328 25.179162,20.225304 C 25.179171,19.462611 25.085384,19.235822 24.530527,18.614293 L 23.881896,17.890505 L 24.705159,17.143367 C 25.473741,16.424094 25.529337,16.404636 26.002426,16.606366 C 26.445746,16.795407 26.531773,16.777147 26.800744,16.466285 C 27.052207,16.175655 27.309622,16.116062 28.297587,16.116062 C 29.089071,16.116062 29.519795,16.186354 29.569910,16.326196 C 29.611340,16.441761 29.736852,16.843849 29.844327,17.236764 C 30.026281,17.902001 30.071713,17.960551 30.642646,17.960551 L 31.266333,17.960551 L 30.991910,17.166720 C 30.849540,16.727564 30.743489,16.307499 30.742437,16.232799 C 30.741366,16.158103 31.500390,15.753220 32.438860,15.345575 C 33.377340,14.937937 34.160233,14.558897 34.160233,14.505051 C 34.160241,14.451210 34.030051,14.205742 33.885810,13.944701 C 33.567888,13.369291 33.671719,13.244259 34.484548,13.244259 C 35.101497,13.244259 35.106780,13.251284 34.783919,12.917388 C 34.464370,12.586914 34.458534,12.565299 34.958551,12.076860 L 35.482448,11.563200 L 35.133184,10.932810 C 34.943311,10.585995 34.734862,10.038176 34.684129,9.6953708 L 34.609287,9.0649685 L 33.336970,9.8121068 C 32.645480,10.229334 31.991716,10.776809 31.865071,11.002854 C 31.631443,11.419877 31.320903,11.488998 30.592754,11.306374 C 30.281710,11.228361 30.193601,11.085137 30.193592,10.675984 C 30.193601,10.245922 30.414336,9.9246918 31.341174,9.0649685 L 32.488758,8.0143106 L 32.089596,7.0570420 L 31.715388,6.0997767 L 29.819382,5.9830359 L 27.948323,5.8662952 L 26.925479,6.8235684 L 25.902635,7.7574844 L 24.655266,7.5473544 L 23.407893,7.3372210 L 24.580425,5.0257672 L 25.752952,2.7143181 C 25.752952,2.7143181 26.158051,2.1525805 25.703059,1.7337047 z "
       style="fill:#386a8b;fill-opacity:1" />
    <path
       sodipodi:type="arc"
       style="opacity:1;color:#000000;fill:url(#radialGradient4828);fill-opacity:1;fill-rule:nonzero;stroke:none;stroke-width:1.27199996;stroke-linecap:round;stroke-linejoin:round;marker:none;marker-start:none;marker-mid:none;marker-end:none;stroke-miterlimit:4;stroke-dasharray:none;stroke-dashoffset:0;stroke-opacity:1;visibility:visible;display:inline;overflow:visible"
       id="path4092"
       sodipodi:cx="23.223721"
       sodipodi:cy="24.6469"
       sodipodi:rx="19.850811"
       sodipodi:ry="19.850811"
       d="M 43.074532 24.6469 A 19.850811 19.850811 0 1 1  3.3729095,24.6469 A 19.850811 19.850811 0 1 1  43.074532 24.6469 z"
       transform="matrix(1.075003,0,0,1.075003,-0.706799,-3.40114)" />
    <path
       style="color:#000000;fill:url(#linearGradient5575);fill-opacity:1;fill-rule:nonzero;stroke:none;stroke-width:1;stroke-linecap:round;stroke-linejoin:round;marker:none;marker-start:none;marker-mid:none;marker-end:none;stroke-miterlimit:4;stroke-dashoffset:0;stroke-opacity:1;visibility:visible;display:inline;overflow:visible"
       d="M 41.351468,13.723439 C 41.351468,20.052775 33.769146,25.189628 24.426643,25.189628 C 15.08414,25.189628 7.5018176,20.052775 7.5018176,13.723439 C 7.5018176,7.394102 15.08414,1.891307 24.426643,1.891307 C 33.769146,1.891307 41.351468,7.394102 41.351468,13.723439 z "
       id="path4840"
       sodipodi:nodetypes="csssc" />
    <path
       sodipodi:type="arc"
       style="opacity:1;color:#000000;fill:none;fill-opacity:1;fill-rule:nonzero;stroke:url(#linearGradient6311);stroke-width:0.93544465;stroke-linecap:round;stroke-linejoin:round;marker:none;marker-start:none;marker-mid:none;marker-end:none;stroke-miterlimit:4;stroke-dasharray:none;stroke-dashoffset:0;stroke-opacity:1;visibility:visible;display:inline;overflow:visible"
       id="path5577"
       sodipodi:cx="23.223721"
       sodipodi:cy="24.6469"
       sodipodi:rx="19.730457"
       sodipodi:ry="19.730457"
       d="M 42.954178 24.6469 A 19.730457 19.730457 0 1 1  3.4932632,24.6469 A 19.730457 19.730457 0 1 1  42.954178 24.6469 z"
       transform="matrix(1.06901,0,0,1.06901,-0.567634,-3.25345)" />
    <g
       id="g4038"
       transform="matrix(0.393198,0,0,0.358525,-50.87941,1.17641)">
      <path
         id="path919"
         d="M 209.19341,27.419985 C 207.07296,27.263062 204.95194,27.234475 202.88091,27.482485 C 206.74155,29.235764 211.81017,29.492806 214.31841,33.263735 C 214.1953,34.285608 209.9924,33.930647 208.47466,34.951235 C 207.45632,35.808089 213.20452,36.899141 214.91216,37.857485 C 222.25495,40.789846 229.22592,46.377893 230.63092,54.044985 C 228.78773,53.374927 224.91563,49.808113 226.38092,53.732485 C 227.11286,59.67206 228.66286,65.74769 227.00592,71.669977 C 226.248,69.15211 224.93814,66.85121 222.91216,65.01373 C 223.54676,71.751207 223.77361,78.736507 220.94341,85.10748 C 220.58118,86.4466 217.57552,92.17427 218.25591,88.38873 C 218.10239,86.70191 219.77535,80.233547 217.53716,84.20123 C 212.51337,91.75883 203.33031,96.98645 193.72466,97.16998 C 187.42068,96.6763 181.25501,94.18588 176.66216,90.10748 C 182.6999,91.02399 188.30739,88.42979 193.16216,85.38873 C 195.38576,84.06957 197.66417,82.81378 200.31841,82.60748 C 203.11672,81.29531 200.67078,78.542447 198.69341,77.857477 C 195.41097,75.351597 190.33857,74.865567 187.00591,77.544977 C 184.05655,79.679017 179.76048,79.022257 176.41216,78.357477 C 173.50673,76.204367 170.68904,73.585047 168.81841,70.607477 C 169.04541,69.870687 169.45269,69.15006 169.78716,68.41998 C 171.04054,67.15592 173.16497,66.76449 175.06841,67.45123 C 177.10669,66.94103 180.73492,71.316427 180.25591,67.98248 C 180.62466,65.16056 179.77364,62.41638 178.56841,59.85748 C 181.32867,57.08887 185.85663,55.88498 187.78716,52.513735 C 188.33711,49.729944 184.03031,50.38451 182.19341,49.794985 C 178.72852,49.158026 174.95595,46.94874 173.75591,43.951235 C 174.55823,38.863763 178.5534,34.898273 183.28716,32.544985 C 177.87903,32.541223 172.46439,34.044246 168.44341,37.513735 C 166.55887,40.28391 163.28584,38.316429 160.47466,38.669985 C 158.07414,38.602043 155.69268,39.111214 153.41216,39.763735 C 152.91962,39.388926 152.33818,39.101916 151.69341,38.919985 C 149.18396,36.31911 147.93722,33.075693 146.91216,29.669985 C 143.29533,34.261833 141.86451,39.018379 141.72466,43.576235 C 141.49008,44.310117 141.3697,45.105715 141.47466,45.982485 C 142.58271,49.273251 138.34504,50.851547 137.44341,53.732485 C 135.21557,57.02022 134.71007,60.93252 134.13091,64.70123 C 136.85529,62.24767 138.00478,61.58959 136.47466,65.41998 C 134.83837,72.719147 135.16313,80.452657 138.03716,87.45123 C 142.54372,99.00597 152.26218,108.52819 163.59966,114.60748 C 172.97985,119.72119 183.98189,122.11321 194.81841,121.54498 C 195.46191,121.52495 196.09844,121.52954 196.72466,121.48248 C 198.96967,121.28991 201.20843,120.97551 203.41216,120.51373 C 203.68864,120.44798 203.95235,120.36551 204.22466,120.29498 C 205.75708,119.94902 207.2903,119.58807 208.78716,119.10748 C 225.50444,112.54581 238.40473,98.66518 244.00592,82.70123 C 246.91611,74.933067 248.30394,66.58195 247.31842,58.35748 C 247.63246,53.584655 244.79148,63.65479 244.84967,59.66998 C 244.10913,51.870714 241.91783,43.782216 236.56842,37.607485 C 234.94892,36.88005 237.60968,41.536723 237.28717,43.138735 C 237.11054,47.79177 236.52811,42.993783 235.25592,41.201235 C 231.61232,34.021959 223.64821,29.637386 215.47466,28.232485 C 213.42429,27.881667 211.31387,27.576908 209.19341,27.419985 z "
         style="fill:url(#linearGradient1564);fill-rule:evenodd;stroke:#804922;stroke-width:5;stroke-linecap:round;stroke-linejoin:round;stroke-miterlimit:4;stroke-dasharray:none;stroke-opacity:1" />
      <g
         transform="matrix(0.935512,0,0,0.8703,130.651,18.66515)"
         id="g2124">
        <path
           style="fill:url(#linearGradient1566);fill-rule:evenodd;stroke:none;stroke-width:3.4625001;stroke-miterlimit:4;stroke-dasharray:none;stroke-opacity:1"
           d="M 52.421009,57.654338 C 50.363446,55.551536 43.471452,54.671148 42.352757,55.603401 C 41.234064,56.535645 38.996672,59.33238 40.674717,61.010422 C 42.352757,62.688464 47.309654,69.071036 49.064928,69.400632 C 50.820202,69.730229 56.255333,70.268894 58.760281,69.214185 C 63.03353,65.405916 67.834138,64.761804 72.371065,68.468388 C 73.43515,69.381782 75.317523,69.942958 75.299643,71.538174 C 75.285458,72.803832 73.495474,73.719123 70.879472,73.688961 C 67.274791,75.802055 63.670107,77.915141 60.065426,80.028235 C 56.165072,81.711991 52.528403,82.209184 47.573335,81.519822 C 53.108316,87.256556 62.200915,91.596276 70.506577,90.555987 C 78.942026,89.499436 88.036676,84.348778 93.439818,75.180556 C 93.213174,78.078284 92.98653,80.976011 92.759886,83.873739 C 98.784745,76.520132 100.52127,66.183344 99.088176,54.727856 C 101.33882,56.541615 101.91142,60.219872 103.04336,62.779429 C 105.47786,55.526972 103.62404,46.782911 102.516,38.78465 C 104.18597,39.751474 105.85593,40.718291 107.5259,41.68512 C 105.85625,28.620741 93.186099,22.082087 83.685584,19.085963 C 85.510009,17.99926 87.707329,18.2177 90.650453,17.690341 C 88.373315,14.944332 87.587764,12.384775 78.412004,10.384561 C 92.525608,10.200384 109.9953,14.304539 113.8542,33.511072 C 114.70921,29.81957 114.63198,26.314513 113.06316,22.43656 C 119.31971,30.261621 121.47438,42.002115 121.76456,50.386519 C 122.5556,48.804449 123.34663,47.222371 124.13767,45.6403 C 126.83219,63.815116 117.22107,99.516143 84.117363,114.70777 C 64.167306,121.85499 43.502527,116.88301 27.996175,105.01242 C 12.489826,93.141819 -0.3591703,72.40827 8.1553404,48.418479 C 6.7880472,49.288575 5.6844279,50.817871 4.3171346,51.687966 C 4.8179895,45.45037 6.9009247,39.740144 12.147998,34.161748 C 11.091453,27.325282 12.085851,19.743017 17.368576,12.533648 C 18.673718,17.194878 20.165314,21.669657 24.080743,24.839291 C 28.804121,23.28555 32.408806,23.036951 38.250878,24.093497 C 42.601357,19.805165 48.256982,16.262632 54.285505,16.635532 C 49.426628,18.918161 45.865131,24.684831 45.335944,29.686969 C 51.799514,39.305097 60.614962,35.164965 60.624773,38.263633 C 60.634583,40.989399 54.534105,43.235607 50.556521,47.21319 C 51.923811,49.450574 52.854229,53.266158 52.421009,57.654338 z "
           id="path1684"
           sodipodi:nodetypes="czczcczccczcccccccccccccczcccccccczcc" />
        <path
           style="fill:url(#linearGradient1568);fill-rule:evenodd;stroke:none;stroke-width:2.34771991;stroke-miterlimit:4"
           d="M 77.195127,10.029084 C 81.321888,12.043654 86.732563,12.329193 89.413705,16.6621 C 89.282108,17.836266 84.783148,17.438138 83.160787,18.610824 C 82.072249,19.595372 88.219836,20.857096 90.045193,21.958261 C 97.894143,25.327628 105.35742,31.718735 106.85927,40.528446 C 104.88903,39.758526 100.74296,35.664081 102.30925,40.173299 C 103.09165,46.998043 104.75065,53.984624 102.97949,60.789515 C 102.16933,57.896404 100.78037,55.249046 98.614739,53.137724 C 99.293085,60.879283 99.525552,68.895759 96.500261,76.216189 C 96.113063,77.754875 92.895425,84.363415 93.622721,80.013714 C 93.458615,78.075509 95.233872,70.625907 92.841399,75.184894 C 87.471302,83.868787 77.682652,89.865561 67.414854,90.076448 C 60.676318,89.509184 54.083961,86.679778 49.174509,81.993578 C 55.628451,83.04667 61.621163,80.057098 66.810593,76.562832 C 69.187469,75.04707 71.609747,73.581951 74.446952,73.344906 C 77.438148,71.837182 74.836285,68.689489 72.722606,67.902438 C 69.213891,65.023103 63.796244,64.475102 60.23386,67.55382 C 57.081184,70.005893 52.475268,69.253076 48.896142,68.489221 C 45.745432,65.979383 42.685673,62.898535 40.687495,59.415424 C 41.046261,56.01849 44.565936,54.835558 47.4712,55.962288 C 49.649984,55.376049 53.51912,60.394823 53.007098,56.564011 C 53.40127,53.321536 52.483534,50.177482 51.195226,47.237233 C 54.145753,44.056014 58.987533,42.656528 61.051146,38.782867 C 61.639002,35.584212 57.041856,36.34347 55.078338,35.666089 C 51.374594,34.934205 47.342836,32.390136 46.060077,28.945915 C 46.917699,23.100259 51.173478,18.525805 56.23355,15.821808 C 50.452611,15.817487 44.670235,17.554745 40.372079,21.541289 C 38.357626,24.724299 34.852281,22.47122 31.84732,22.877466 C 29.281323,22.799402 26.743935,23.3974 24.30621,24.147165 C 20.353139,20.913568 10.742147,24.076684 11.544857,31.284685 C 12.729281,35.065867 8.2148285,36.866306 7.2510468,40.176587 C 4.8696348,43.95429 4.3139704,48.457113 3.6948898,52.787474 C 6.6070675,49.968258 7.8335015,49.1989 6.1979009,53.600139 C 4.4488177,61.9871 4.8163767,70.901167 7.8885245,78.942728 C 12.705744,92.21947 23.068364,103.13278 35.187376,110.11806 C 49.596407,118.5619 67.638841,120.76336 83.505472,115.2874 C 101.37513,107.74784 115.16719,91.824405 121.15448,73.481362 C 124.26528,64.555519 125.74893,54.936092 124.69547,45.485942 C 125.03116,40.001823 121.99484,51.598742 122.05704,47.020089 C 121.26546,38.0585 118.9037,28.767157 113.18553,21.672212 C 111.4544,20.836369 114.31694,26.159242 113.97219,28 C 113.78339,33.346472 113.15206,27.833401 111.79217,25.773711 C 107.89741,17.524516 99.404099,12.482721 90.66712,10.868449 C 86.283705,10.062249 81.622707,9.4591413 77.195127,10.029084 z "
           id="path976"
           sodipodi:nodetypes="cccccccccccccccccccccccccccccccccccccccccccc" />
        <path
           style="fill:url(#linearGradient1570);fill-rule:evenodd;stroke-width:1pt"
           d="M 45.335944,29.686969 C 51.799514,39.305097 60.614962,35.164965 60.624773,38.263633 C 60.634583,40.989399 54.534105,43.235607 50.556521,47.21319 C 48.659345,43.980378 43.230285,44.264593 45.335944,29.686969 z "
           id="path1528"
           sodipodi:nodetypes="czcc" />
        <path
           style="fill:#d4732b;fill-opacity:1;fill-rule:evenodd;stroke:none;stroke-width:1pt;stroke-opacity:1"
           d="M 40.88269,63.623918 C 42.393027,64.980988 47.54394,69.518799 49.266275,69.78535 C 50.988609,70.051903 56.369906,70.487533 58.980261,69.634567 C 63.634108,66.554734 68.499088,66.033827 72.66558,69.031425 C 73.638381,69.770106 75.46467,70.223941 75.287364,71.514028 C 75.146689,72.537594 73.265231,73.277811 70.652244,73.253418 C 66.83638,74.962325 63.020515,76.671225 59.204652,78.380131 C 55.136023,79.741822 51.449665,80.143913 46.563492,79.58641 C 41.493598,76.38499 38.041017,65.572111 40.88269,63.623918 z "
           id="path1529"
           sodipodi:nodetypes="czcczcccc" />
        <path
           style="fill:url(#linearGradient1572);fill-rule:evenodd;stroke-width:1pt"
           d="M 12.744173,33.924673 C 12.744173,33.924673 4.3064487,42.362402 4.4382912,50.931962 C 8.1297962,42.098717 9.8437083,40.912162 16.831198,37.220659 C 25.400761,34.583871 12.744173,33.924673 12.744173,33.924673 z "
           id="path1530"
           sodipodi:nodetypes="cccc" />
        <path
           style="fill:url(#linearGradient1574);fill-rule:evenodd;stroke-width:1pt"
           d="M 21.313739,43.680795 C 19.094442,46.62521 17.57829,52.9535 17.490395,58.974169 C 19.336146,55.018989 23.35725,44.801431 26.257719,44.933269 C 27.180594,42.428321 23.533038,40.73638 21.313739,43.680795 z "
           id="path1531"
           sodipodi:nodetypes="cccz" />
        <path
           style="fill:url(#linearGradient1576);fill-opacity:0.75;fill-rule:evenodd;stroke-width:1pt"
           d="M 19.270225,37.484337 C 19.270225,37.484337 14.721766,41.307678 14.655845,47.042694 C 18.874709,40.252969 21.247818,38.670893 22.302532,38.604972 C 26.653235,38.604972 19.270225,37.484337 19.270225,37.484337 z "
           id="path1532"
           sodipodi:nodetypes="cccc" />
        <path
           style="fill:url(#linearGradient1578);fill-rule:evenodd;stroke-width:1pt"
           d="M 41.974697,72.868025 C 43.49212,77.090303 44.802508,79.347129 47.56817,81.444683 C 61.520778,82.889668 63.696017,76.20857 70.87431,73.707043 C 71.526882,71.951312 70.066368,72.277605 69.19627,72.495123 C 68.299932,72.71921 61.880712,76.484056 55.585482,76.597004 C 49.476698,76.709953 43.149835,72.157807 41.974697,72.868025 z "
           id="path1534"
           sodipodi:nodetypes="ccczzc" />
        <path
           style="fill:url(#linearGradient1580);fill-rule:evenodd;stroke-width:1pt"
           d="M 63.043447,67.740671 C 63.602793,67.554216 67.331778,65.689735 70.035289,67.460997 C 72.738803,69.232266 77.02713,70.723861 74.97619,71.656106 C 72.92525,72.58835 70.967535,72.68157 69.942065,70.537414 C 68.916595,68.393249 63.602793,71.376431 62.390876,70.164511 C 61.178955,68.952591 62.4841,67.927127 63.043447,67.740671 z "
           id="path1535"
           sodipodi:nodetypes="cccccz" />
        <path
           style="fill:url(#linearGradient1582);fill-rule:evenodd;stroke-width:0.75"
           d="M 5.0963826,50.587355 C 5.8622119,48.239455 7.9464366,46.155224 10.1625,44.730202 C 9.8988186,48.158028 10.185121,66.249077 13.541202,74.825743 C 16.897287,83.402401 18.91236,86.313848 22.863659,89.368772 C 19.827473,85.436205 19.375736,83.711312 18.980215,81.601887 C 20.694131,84.766036 40.217554,97.530822 46.043453,99.414404 C 52.427963,101.47859 69.248736,105.06358 82.749701,97.304971 C 96.645175,89.319651 107.57554,75.963177 109.50789,72.366028 C 111.30841,75.888217 110.49087,93.956653 106.38898,97.685639 C 102.28711,101.41462 87.002156,121.81092 60.153485,117.70904 C 33.304811,113.60716 19.138558,98.559389 13.586444,88.995869 C 8.0008038,79.374608 2.3051356,66.987785 8.3206289,49.468663 C 9.5899028,45.528999 8.1286898,49.532639 5.0963826,50.587355 z "
           id="path1694"
           sodipodi:nodetypes="ccccczzccczcc" />
        <path
           style="fill:url(#linearGradient1584);fill-rule:evenodd;stroke-width:1pt"
           d="M 19.507574,51.5196 C 18.217452,54.162831 14.151107,58.32547 19.006547,72.685465 C 15.658225,68.400548 14.062569,60.819917 14.062569,60.819917 C 14.062569,60.819917 10.371569,70.257739 12.236061,80.605659 C 9.2528713,70.723861 8.9731997,64.943937 10.651244,57.206296 C 12.329285,49.468663 7.5748306,63.63879 7.6680581,66.528752 C 6.5493607,63.359115 7.295159,49.468656 9.9986699,49.561883 C 14.753121,50.400908 19.600802,45.553229 19.507574,51.5196 z "
           id="path1533"
           sodipodi:nodetypes="cccccccc" />
        <path
           style="fill:url(#linearGradient1586);fill-rule:evenodd;stroke-width:1pt"
           d="M 42.44082,55.435034 C 42.44082,55.435034 35.915098,54.316335 32.745464,56.367279 C 29.706064,58.333944 24.541704,62.147195 28.084237,70.910308 C 31.62677,79.673414 50.27168,88.995869 57.170298,88.995869 C 41.135674,78.741169 36.660896,66.621979 42.44082,55.435034 z "
           id="path1536"
           sodipodi:nodetypes="czccc" />
        <path
           style="fill:url(#linearGradient1588);fill-rule:evenodd;stroke-width:1pt"
           d="M 12.795408,33.993381 C 12.795408,33.993381 21.185619,25.60317 26.406193,24.298026 C 31.62677,22.992883 38.525388,23.738679 38.525388,24.484476 C 38.525388,25.230272 34.237057,28.399907 35.355751,31.010194 C 36.474448,33.620483 15.219247,42.197145 12.795408,33.993381 z "
           id="path1538" />
        <path
           style="fill:url(#linearGradient1590);fill-rule:evenodd;stroke-width:1pt"
           d="M 106.0865,72.289949 C 106.0865,72.289949 114.65606,52.909556 111.75559,38.802733 C 114.26055,42.230563 119.40228,59.106008 115.18342,71.103394 C 108.32777,82.705265 104.7681,78.35457 106.0865,72.289949 z "
           id="path1682"
           sodipodi:nodetypes="cccc" />
        <path
           style="fill:url(#linearGradient1592);fill-rule:evenodd;stroke-width:1pt"
           d="M 108.72329,79.93664 C 111.49191,75.168445 119.33636,70.048678 122.43459,53.964265 C 125.1373,61.479117 117.75429,79.650987 115.4471,83.89182 C 113.13991,88.132661 105.9873,84.648617 108.72329,79.93664 z "
           id="path2269"
           sodipodi:nodetypes="cczz" />
        <path
           style="fill:url(#linearGradient1594);fill-rule:evenodd;stroke-width:1pt"
           d="M 58.661892,102.79311 C 67.797897,98.194026 87.126462,103.7875 110.49475,73.707043 C 101.42089,112.23986 75.504465,109.87817 66.865655,114.72585 C 58.226845,119.57353 49.822123,107.24306 58.661892,102.79311 z "
           id="path2857"
           sodipodi:nodetypes="cczz" />
        <path
           style="fill-opacity:0.78616351;fill-rule:evenodd;stroke-width:1pt"
           d="M 53.152961,35.902264 C 57.349852,37.462364 59.438938,36.046811 60.272293,37.352498 C 61.087115,38.629153 59.876776,41.044008 58.49246,40.714404 C 57.437746,37.418419 52.845338,36.517516 53.152961,35.902264 z "
           id="path3445"
           sodipodi:nodetypes="czcc" />
        <path
           style="fill:url(#linearGradient1596);fill-rule:evenodd;stroke-width:1pt"
           d="M 48.01058,44.010391 C 48.01058,44.010391 58.654583,38.473133 59.488151,39.132331 C 60.321718,39.791529 58.782829,40.648485 58.590464,40.912162 C 58.398104,41.175839 50.703643,45.592462 50.767762,46.581259 C 50.831884,47.570056 47.689979,44.471834 48.01058,44.010391 z "
           id="path4031" />
        <path
           style="fill:url(#linearGradient1598);fill-rule:evenodd;stroke-width:1pt"
           d="M 33.938336,58.179251 C 33.586764,61.3434 33.546695,68.02812 39.371861,78.469268 C 36.620362,66.536525 39.12402,61.3434 38.684555,58.179251 C 38.24509,55.01511 34.289908,55.01511 33.938336,58.179251 z "
           id="path5788"
           sodipodi:nodetypes="cczz" />
        <path
           style="fill:url(#linearGradient1600);fill-opacity:1;fill-rule:evenodd;stroke-width:1pt"
           d="M 84.728803,11.512034 C 91.716294,11.643876 105.16392,16.126414 109.38279,24.300461 C 113.60164,32.474507 102.39529,26.937248 102.39529,26.937248 C 99.231146,27.991962 100.28585,15.467216 84.728803,11.512034 z "
           id="path7624"
           sodipodi:nodetypes="cccc" />
        <path
           sodipodi:type="arc"
           style="fill:url(#linearGradient1602);fill-opacity:1;fill-rule:evenodd;stroke-width:1pt"
           id="path1579"
           sodipodi:cx="-1072.8956"
           sodipodi:cy="166.76524"
           sodipodi:rx="79.398346"
           sodipodi:ry="79.398346"
           d="M -993.49728 166.76524 A 79.398346 79.398346 0 1 1  -1152.294,166.76524 A 79.398346 79.398346 0 1 1  -993.49728 166.76524 z"
           transform="matrix(0.523244,0,0,0.371891,625.5176,23.65486)" />
      </g>
      <path
         id="path2544"
         d="M 209.19341,27.419985 C 207.07296,27.263062 204.95194,27.234475 202.88091,27.482485 C 206.74155,29.235764 211.81017,29.492806 214.31841,33.263735 C 214.1953,34.285608 209.9924,33.930647 208.47466,34.951235 C 207.45632,35.808089 213.20452,36.899141 214.91216,37.857485 C 222.25495,40.789846 229.22592,46.377893 230.63092,54.044985 C 228.78773,53.374927 224.91563,49.808113 226.38092,53.732485 C 227.11286,59.67206 228.66286,65.74769 227.00592,71.669977 C 226.248,69.15211 224.93814,66.85121 222.91216,65.01373 C 223.54676,71.751207 223.77361,78.736507 220.94341,85.10748 C 220.58118,86.4466 217.57552,92.17427 218.25591,88.38873 C 218.10239,86.70191 219.77535,80.233547 217.53716,84.20123 C 212.51337,91.75883 203.33031,96.98645 193.72466,97.16998 C 187.42068,96.6763 181.25501,94.18588 176.66216,90.10748 C 182.6999,91.02399 188.30739,88.42979 193.16216,85.38873 C 195.38576,84.06957 197.66417,82.81378 200.31841,82.60748 C 203.11672,81.29531 200.67078,78.542447 198.69341,77.857477 C 195.41097,75.351597 190.33857,74.865567 187.00591,77.544977 C 184.05655,79.679017 179.76048,79.022257 176.41216,78.357477 C 173.50673,76.204367 170.68904,73.585047 168.81841,70.607477 C 169.04541,69.870687 169.45269,69.15006 169.78716,68.41998 C 171.04054,67.15592 173.16497,66.76449 175.06841,67.45123 C 177.10669,66.94103 180.73492,71.316427 180.25591,67.98248 C 180.62466,65.16056 179.77364,62.41638 178.56841,59.85748 C 181.32867,57.08887 185.85663,55.88498 187.78716,52.513735 C 188.33711,49.729944 184.03031,50.38451 182.19341,49.794985 C 178.72852,49.158026 174.95595,46.94874 173.75591,43.951235 C 174.55823,38.863763 178.5534,34.898273 183.28716,32.544985 C 177.87903,32.541223 172.46439,34.044246 168.44341,37.513735 C 166.55887,40.28391 163.28584,38.316429 160.47466,38.669985 C 158.07414,38.602043 155.69268,39.111214 153.41216,39.763735 C 152.91962,39.388926 152.33818,39.101916 151.69341,38.919985 C 149.18396,36.31911 147.93722,33.075693 146.91216,29.669985 C 143.29533,34.261833 141.86451,39.018379 141.72466,43.576235 C 141.49008,44.310117 141.3697,45.105715 141.47466,45.982485 C 142.58271,49.273251 138.34504,50.851547 137.44341,53.732485 C 135.21557,57.02022 134.71007,60.93252 134.13091,64.70123 C 136.85529,62.24767 138.00478,61.58959 136.47466,65.41998 C 134.83837,72.719147 135.16313,80.452657 138.03716,87.45123 C 142.54372,99.00597 152.26218,108.52819 163.59966,114.60748 C 172.97985,119.72119 183.98189,122.11321 194.81841,121.54498 C 195.46191,121.52495 196.09844,121.52954 196.72466,121.48248 C 198.96967,121.28991 201.20843,120.97551 203.41216,120.51373 C 203.68864,120.44798 203.95235,120.36551 204.22466,120.29498 C 205.75708,119.94902 207.2903,119.58807 208.78716,119.10748 C 225.50444,112.54581 238.40473,98.66518 244.00592,82.70123 C 246.91611,74.933067 248.30394,66.58195 247.31842,58.35748 C 247.63246,53.584655 244.79148,63.65479 244.84967,59.66998 C 244.10913,51.870714 241.91783,43.782216 236.56842,37.607485 C 234.94892,36.88005 237.60968,41.536723 237.28717,43.138735 C 237.11054,47.79177 236.52811,42.993783 235.25592,41.201235 C 231.61232,34.021959 223.64821,29.637386 215.47466,28.232485 C 213.42429,27.881667 211.31387,27.576908 209.19341,27.419985 z "
         style="fill:none;fill-opacity:1;fill-rule:evenodd;stroke:url(#linearGradient1604);stroke-width:2;stroke-linecap:round;stroke-linejoin:round;stroke-miterlimit:4;stroke-dasharray:none;stroke-opacity:1" />
      <path
         id="path3282"
         d="M 209.19341,27.419985 C 207.07296,27.263062 204.95194,27.234475 202.88091,27.482485 C 206.74155,29.235764 211.81017,29.492806 214.31841,33.263735 C 214.1953,34.285608 209.9924,33.930647 208.47466,34.951235 C 207.45632,35.808089 213.20452,36.899141 214.91216,37.857485 C 222.25495,40.789846 229.22592,46.377893 230.63092,54.044985 C 228.78773,53.374927 224.91563,49.808113 226.38092,53.732485 C 227.11286,59.67206 228.66286,65.74769 227.00592,71.669977 C 226.248,69.15211 224.93814,66.85121 222.91216,65.01373 C 223.54676,71.751207 223.77361,78.736507 220.94341,85.10748 C 220.58118,86.4466 217.57552,92.17427 218.25591,88.38873 C 218.10239,86.70191 219.77535,80.233547 217.53716,84.20123 C 212.51337,91.75883 203.33031,96.98645 193.72466,97.16998 C 187.42068,96.6763 181.25501,94.18588 176.66216,90.10748 C 182.6999,91.02399 188.30739,88.42979 193.16216,85.38873 C 195.38576,84.06957 197.66417,82.81378 200.31841,82.60748 C 203.11672,81.29531 200.67078,78.542447 198.69341,77.857477 C 195.41097,75.351597 190.33857,74.865567 187.00591,77.544977 C 184.05655,79.679017 179.76048,79.022257 176.41216,78.357477 C 173.50673,76.204367 170.68904,73.585047 168.81841,70.607477 C 169.04541,69.870687 169.45269,69.15006 169.78716,68.41998 C 171.04054,67.15592 173.16497,66.76449 175.06841,67.45123 C 177.10669,66.94103 180.73492,71.316427 180.25591,67.98248 C 180.62466,65.16056 179.77364,62.41638 178.56841,59.85748 C 181.32867,57.08887 185.85663,55.88498 187.78716,52.513735 C 188.33711,49.729944 184.03031,50.38451 182.19341,49.794985 C 178.72852,49.158026 174.95595,46.94874 173.75591,43.951235 C 174.55823,38.863763 178.5534,34.898273 183.28716,32.544985 C 177.87903,32.541223 172.46439,34.044246 168.44341,37.513735 C 166.55887,40.28391 163.28584,38.316429 160.47466,38.669985 C 158.07414,38.602043 155.69268,39.111214 153.41216,39.763735 C 152.91962,39.388926 152.33818,39.101916 151.69341,38.919985 C 149.18396,36.31911 147.93722,33.075693 146.91216,29.669985 C 143.29533,34.261833 141.86451,39.018379 141.72466,43.576235 C 141.49008,44.310117 141.3697,45.105715 141.47466,45.982485 C 142.58271,49.273251 138.34504,50.851547 137.44341,53.732485 C 135.21557,57.02022 134.71007,60.93252 134.13091,64.70123 C 136.85529,62.24767 138.00478,61.58959 136.47466,65.41998 C 134.83837,72.719147 135.16313,80.452657 138.03716,87.45123 C 142.54372,99.00597 152.26218,108.52819 163.59966,114.60748 C 172.97985,119.72119 183.98189,122.11321 194.81841,121.54498 C 195.46191,121.52495 196.09844,121.52954 196.72466,121.48248 C 198.96967,121.28991 201.20843,120.97551 203.41216,120.51373 C 203.68864,120.44798 203.95235,120.36551 204.22466,120.29498 C 205.75708,119.94902 207.2903,119.58807 208.78716,119.10748 C 225.50444,112.54581 238.40473,98.66518 244.00592,82.70123 C 246.91611,74.933067 248.30394,66.58195 247.31842,58.35748 C 247.63246,53.584655 244.79148,63.65479 244.84967,59.66998 C 244.10913,51.870714 241.91783,43.782216 236.56842,37.607485 C 234.94892,36.88005 237.60968,41.536723 237.28717,43.138735 C 237.11054,47.79177 236.52811,42.993783 235.25592,41.201235 C 231.61232,34.021959 223.64821,29.637386 215.47466,28.232485 C 213.42429,27.881667 211.31387,27.576908 209.19341,27.419985 z "
         style="fill:none;fill-opacity:1;fill-rule:evenodd;stroke:url(#linearGradient1606);stroke-width:2;stroke-linecap:round;stroke-linejoin:round;stroke-miterlimit:4;stroke-dasharray:none;stroke-opacity:1" />
      <path
         id="path3286"
         d="M 209.19341,27.419985 C 207.07296,27.263062 204.95194,27.234475 202.88091,27.482485 C 206.74155,29.235764 211.81017,29.492806 214.31841,33.263735 C 214.1953,34.285608 209.9924,33.930647 208.47466,34.951235 C 207.45632,35.808089 213.20452,36.899141 214.91216,37.857485 C 222.25495,40.789846 229.22592,46.377893 230.63092,54.044985 C 228.78773,53.374927 224.91563,49.808113 226.38092,53.732485 C 227.11286,59.67206 228.66286,65.74769 227.00592,71.669977 C 226.248,69.15211 224.93814,66.85121 222.91216,65.01373 C 223.54676,71.751207 223.77361,78.736507 220.94341,85.10748 C 220.58118,86.4466 217.57552,92.17427 218.25591,88.38873 C 218.10239,86.70191 219.77535,80.233547 217.53716,84.20123 C 212.51337,91.75883 203.33031,96.98645 193.72466,97.16998 C 187.42068,96.6763 181.25501,94.18588 176.66216,90.10748 C 182.6999,91.02399 188.30739,88.42979 193.16216,85.38873 C 195.38576,84.06957 197.66417,82.81378 200.31841,82.60748 C 203.11672,81.29531 200.67078,78.542447 198.69341,77.857477 C 195.41097,75.351597 190.33857,74.865567 187.00591,77.544977 C 184.05655,79.679017 179.76048,79.022257 176.41216,78.357477 C 173.50673,76.204367 170.68904,73.585047 168.81841,70.607477 C 169.04541,69.870687 169.45269,69.15006 169.78716,68.41998 C 171.04054,67.15592 173.16497,66.76449 175.06841,67.45123 C 177.10669,66.94103 180.73492,71.316427 180.25591,67.98248 C 180.62466,65.16056 179.77364,62.41638 178.56841,59.85748 C 181.32867,57.08887 185.85663,55.88498 187.78716,52.513735 C 188.33711,49.729944 184.03031,50.38451 182.19341,49.794985 C 178.72852,49.158026 174.95595,46.94874 173.75591,43.951235 C 174.55823,38.863763 178.5534,34.898273 183.28716,32.544985 C 177.87903,32.541223 172.46439,34.044246 168.44341,37.513735 C 166.55887,40.28391 163.28584,38.316429 160.47466,38.669985 C 158.07414,38.602043 155.69268,39.111214 153.41216,39.763735 C 152.91962,39.388926 152.33818,39.101916 151.69341,38.919985 C 149.18396,36.31911 147.93722,33.075693 146.91216,29.669985 C 143.29533,34.261833 141.86451,39.018379 141.72466,43.576235 C 141.49008,44.310117 141.3697,45.105715 141.47466,45.982485 C 142.58271,49.273251 138.34504,50.851547 137.44341,53.732485 C 135.21557,57.02022 134.71007,60.93252 134.13091,64.70123 C 136.85529,62.24767 138.00478,61.58959 136.47466,65.41998 C 134.83837,72.719147 135.16313,80.452657 138.03716,87.45123 C 142.54372,99.00597 152.26218,108.52819 163.59966,114.60748 C 172.97985,119.72119 183.98189,122.11321 194.81841,121.54498 C 195.46191,121.52495 196.09844,121.52954 196.72466,121.48248 C 198.96967,121.28991 201.20843,120.97551 203.41216,120.51373 C 203.68864,120.44798 203.95235,120.36551 204.22466,120.29498 C 205.75708,119.94902 207.2903,119.58807 208.78716,119.10748 C 225.50444,112.54581 238.40473,98.66518 244.00592,82.70123 C 246.91611,74.933067 248.30394,66.58195 247.31842,58.35748 C 247.63246,53.584655 244.79148,63.65479 244.84967,59.66998 C 244.10913,51.870714 241.91783,43.782216 236.56842,37.607485 C 234.94892,36.88005 237.60968,41.536723 237.28717,43.138735 C 237.11054,47.79177 236.52811,42.993783 235.25592,41.201235 C 231.61232,34.021959 223.64821,29.637386 215.47466,28.232485 C 213.42429,27.881667 211.31387,27.576908 209.19341,27.419985 z "
         style="fill:none;fill-opacity:1;fill-rule:evenodd;stroke:url(#linearGradient1608);stroke-width:2;stroke-linecap:round;stroke-linejoin:round;stroke-miterlimit:4;stroke-dasharray:none;stroke-opacity:1" />
    </g>
  </g>
</svg>
