/* XPM */
static char * close_button_inactive_xpm[] = {
"24 32 464 2",
"  	c None",
". 	c #9A9DA1",
"+ 	c #9B9DA2",
"@ 	c #9C9EA3",
"# 	c #9D9FA4",
"$ 	c #9DA0A4",
"% 	c #9C9FA4",
"& 	c #9DA0A3",
"* 	c #9EA1A4",
"= 	c #9C9FA3",
"- 	c #9C9FA2",
"; 	c #9C9EA2",
"> 	c #9A9CA0",
", 	c #9A9DA2",
"' 	c #989CA1",
") 	c #96999E",
"! 	c #999BA0",
"~ 	c #9C9EA4",
"{ 	c #999CA2",
"] 	c #999CA1",
"^ 	c #999C9F",
"/ 	c #9EA1A6",
"( 	c #9EA1A5",
"_ 	c #9DA0A2",
": 	c #9DA0A5",
"< 	c #9EA0A6",
"[ 	c #A4A7AC",
"} 	c #A4A6AB",
"| 	c #A5A7AC",
"1 	c #A3A6AB",
"2 	c #A2A5AA",
"3 	c #A4A5AA",
"4 	c #A2A4A9",
"5 	c #A1A4A8",
"6 	c #A3A5AA",
"7 	c #A4A6AC",
"8 	c #A2A4AA",
"9 	c #A1A3A9",
"0 	c #A1A4A9",
"a 	c #A3A6AA",
"b 	c #A9ACB1",
"c 	c #A8AAB0",
"d 	c #A8ABB0",
"e 	c #A7A9AE",
"f 	c #AAACB0",
"g 	c #AAABB1",
"h 	c #A7AAAF",
"i 	c #A9ABB1",
"j 	c #A8AAAF",
"k 	c #A7AAB0",
"l 	c #A6A9AF",
"m 	c #AAACB2",
"n 	c #A8ABB1",
"o 	c #AAADB2",
"p 	c #A9ABB0",
"q 	c #A9ABAE",
"r 	c #A9AAAB",
"s 	c #AEAEAE",
"t 	c #A9ABAB",
"u 	c #ACADAE",
"v 	c #ABACB0",
"w 	c #A9ACB2",
"x 	c #ABADB3",
"y 	c #A8ACB0",
"z 	c #ACAEB5",
"A 	c #AEB0B7",
"B 	c #B0B2B8",
"C 	c #B0B3B9",
"D 	c #AFB1B7",
"E 	c #AEB0B6",
"F 	c #ADAEB2",
"G 	c #858585",
"H 	c #515151",
"I 	c #2B2B2B",
"J 	c #0D0D0D",
"K 	c #0E0E0E",
"L 	c #545454",
"M 	c #ACAEB1",
"N 	c #B2B4BA",
"O 	c #B1B3B9",
"P 	c #B1B3BA",
"Q 	c #B4B6BC",
"R 	c #B2B5BB",
"S 	c #B3B5BC",
"T 	c #B4B6BD",
"U 	c #B3B6BC",
"V 	c #B3B5BB",
"W 	c #ADADB1",
"X 	c #646464",
"Y 	c #464646",
"Z 	c #767676",
"` 	c #949494",
" .	c #919191",
"..	c #676767",
"+.	c #AFB0B3",
"@.	c #B6B8BE",
"#.	c #B8B9C0",
"$.	c #B6B8BF",
"%.	c #B6B9BF",
"&.	c #B5B7BD",
"*.	c #B8BAC0",
"=.	c #B7B9C0",
"-.	c #B7BAC0",
";.	c #B8BBC1",
">.	c #B8BAC1",
",.	c #B3B4B9",
"'.	c #1A1A1A",
").	c #5A5A5A",
"!.	c #9E9E9E",
"~.	c #CECECE",
"{.	c #E1E1E1",
"].	c #E3E3E3",
"^.	c #BCBEC4",
"/.	c #BABCC3",
"(.	c #B9BBC2",
"_.	c #B9BCC3",
":.	c #BABDC4",
"<.	c #BBBEC5",
"[.	c #BABCC2",
"}.	c #B9BAC1",
"|.	c #838383",
"1.	c #272727",
"2.	c #3F3F3F",
"3.	c #777777",
"4.	c #A2A2A2",
"5.	c #B9B9B9",
"6.	c #BCBCBC",
"7.	c #A0A0A0",
"8.	c #747474",
"9.	c #3E3E3E",
"0.	c #292929",
"a.	c #BCBEC5",
"b.	c #BCBDC4",
"c.	c #BDBFC6",
"d.	c #BBBDC4",
"e.	c #B3B5B9",
"f.	c #5F5F5F",
"g.	c #252525",
"h.	c #474747",
"i.	c #6B6B6B",
"j.	c #686868",
"k.	c #525252",
"l.	c #484848",
"m.	c #282828",
"n.	c #B8B9BE",
"o.	c #C1C3CA",
"p.	c #C2C3CB",
"q.	c #C0C2C9",
"r.	c #BFC2C9",
"s.	c #AAABAE",
"t.	c #2F2F2F",
"u.	c #353535",
"v.	c #3D3D3D",
"w.	c #434343",
"x.	c #606060",
"y.	c #636363",
"z.	c #616161",
"A.	c #383838",
"B.	c #333333",
"C.	c #ACACAE",
"D.	c #C3C6CC",
"E.	c #C4C6CE",
"F.	c #C1C4CA",
"G.	c #BFC1C9",
"H.	c #C6C8D1",
"I.	c #C7C8D1",
"J.	c #C8C9D2",
"K.	c #A9A9AB",
"L.	c #181818",
"M.	c #454545",
"N.	c #565656",
"O.	c #656565",
"P.	c #717171",
"Q.	c #797979",
"R.	c #737373",
"S.	c #666666",
"T.	c #3C3C3C",
"U.	c #191919",
"V.	c #CACCD4",
"W.	c #CCCED6",
"X.	c #CACBD4",
"Y.	c #C8CAD3",
"Z.	c #CACCD6",
"`.	c #CCCDD6",
" +	c #ABABAD",
".+	c #202020",
"++	c #5D5D5D",
"@+	c #7B7B7B",
"#+	c #878787",
"$+	c #8F8F8F",
"%+	c #929292",
"&+	c #8D8D8D",
"*+	c #808080",
"=+	c #707070",
"-+	c #5E5E5E",
";+	c #1E1E1E",
">+	c #CACBD2",
",+	c #CBCCD3",
"'+	c #C9CBD1",
")+	c #C9CBD2",
"!+	c #CBCCD2",
"~+	c #CCCCD3",
"{+	c #AFAFB1",
"]+	c #444444",
"^+	c #6E6E6E",
"/+	c #818181",
"(+	c #909090",
"_+	c #9C9C9C",
":+	c #A4A4A4",
"<+	c #4B4B4B",
"[+	c #B3B4B5",
"}+	c #CFD0D6",
"|+	c #D0D1D7",
"1+	c #CECFD6",
"2+	c #CCCED5",
"3+	c #D1D3DA",
"4+	c #D2D3DB",
"5+	c #C3C4C9",
"6+	c #9D9D9D",
"7+	c #A7A7A7",
"8+	c #AFAFAF",
"9+	c #B0B0B0",
"0+	c #A9A9A9",
"a+	c #404040",
"b+	c #757575",
"c+	c #C5C6CB",
"d+	c #D5D5DC",
"e+	c #D3D4DA",
"f+	c #D6D6DC",
"g+	c #D2D4DB",
"h+	c #D1D2DA",
"i+	c #D5D6DF",
"j+	c #D6D6E0",
"k+	c #D5D5DE",
"l+	c #CFD0D8",
"m+	c #A3A3A3",
"n+	c #6D6D6D",
"o+	c #999999",
"p+	c #AAAAAA",
"q+	c #B3B3B3",
"r+	c #B4B4B4",
"s+	c #A6A6A6",
"t+	c #D5D6DE",
"u+	c #D8D9E1",
"v+	c #D8D9E0",
"w+	c #D8DBE1",
"x+	c #D6D8E0",
"y+	c #D4D5DE",
"z+	c #D8DAE2",
"A+	c #D8D8E2",
"B+	c #D5D6E0",
"C+	c #8C8C8C",
"D+	c #ABABAB",
"E+	c #B7B7B7",
"F+	c #C2C2C2",
"G+	c #C3C3C3",
"H+	c #ACACAC",
"I+	c #8B8B8B",
"J+	c #D0D1D6",
"K+	c #DADCE5",
"L+	c #DCDCE4",
"M+	c #DCDDE5",
"N+	c #DADCE4",
"O+	c #DADCE3",
"P+	c #DADBE4",
"Q+	c #D6D7E0",
"R+	c #D2D4DD",
"S+	c #D3D5DE",
"T+	c #CBCCD0",
"U+	c #969696",
"V+	c #B1B1B1",
"W+	c #989898",
"X+	c #CACBCF",
"Y+	c #D1D3DB",
"Z+	c #CFD1D9",
"`+	c #D0D2DA",
" @	c #CECFD7",
".@	c #CECFD8",
"+@	c #C5C6D1",
"@@	c #C4C6D2",
"#@	c #C6C8D3",
"$@	c #C6C7D3",
"%@	c #C4C5D1",
"&@	c #C3C4D0",
"*@	c #C5C5CD",
"=@	c #C0C0C0",
"-@	c #868686",
";@	c #575757",
">@	c #585858",
",@	c #6A6A6A",
"'@	c #C4C4C4",
")@	c #C7C8CF",
"!@	c #C8C9D4",
"~@	c #C7C9D3",
"{@	c #C9C9D3",
"]@	c #C7C8D2",
"^@	c #CACAD4",
"/@	c #C9C8D2",
"(@	c #C8C7D0",
"_@	c #C7C7D1",
":@	c #C7C7D0",
"<@	c #C7C6D0",
"[@	c #C5C5CE",
"}@	c #C7C7CE",
"|@	c #D1D1D3",
"1@	c #DADADA",
"2@	c #CFD0D2",
"3@	c #C6C6CC",
"4@	c #C6C6D0",
"5@	c #C5C4CE",
"6@	c #C6C8D0",
"7@	c #C4C5CE",
"8@	c #C5C5CF",
"9@	c #C6C6CF",
"0@	c #C0C2CA",
"a@	c #BFC0C9",
"b@	c #BEC1C9",
"c@	c #C0C1C9",
"d@	c #BDC0C8",
"e@	c #BDC0C6",
"f@	c #BEC1C8",
"g@	c #BFC1C8",
"h@	c #BFC2CA",
"i@	c #C0C3CA",
"j@	c #BFC3C9",
"k@	c #BDC1C8",
"l@	c #BEC1C7",
"m@	c #C0C5C9",
"n@	c #BFC3C8",
"o@	c #BEC3C7",
"p@	c #BFC2C7",
"q@	c #BDC1C6",
"r@	c #BCC0C5",
"s@	c #BBBFC4",
"t@	c #BBBEC3",
"u@	c #B8BCC1",
"v@	c #B8BBC0",
"w@	c #B9BDC2",
"x@	c #B9BCC2",
"y@	c #B7BBC0",
"z@	c #B6BABE",
"A@	c #B5B8BE",
"B@	c #B0B1B8",
"C@	c #B0B3BA",
"D@	c #B2B4BC",
"E@	c #B0B2B9",
"F@	c #B0B2BA",
"G@	c #AEB1B8",
"H@	c #AEB2BA",
"I@	c #AFB1B8",
"J@	c #ADAFB6",
"K@	c #AEAFB7",
"L@	c #AFB2B9",
"M@	c #AEB0B8",
"N@	c #ADAFB7",
"O@	c #ADAEB5",
"P@	c #A6A7B0",
"Q@	c #A7A8B1",
"R@	c #A5A5AF",
"S@	c #A5A6AF",
"T@	c #A6A7AF",
"U@	c #A7A8B0",
"V@	c #A5A6AE",
"W@	c #A4A5AE",
"X@	c #A4A6AF",
"Y@	c #A6A8B0",
"Z@	c #A5A7B0",
"`@	c #A3A4AE",
" #	c #A2A3AD",
".#	c #A3A5AE",
"+#	c #A4A4AD",
"@#	c #A5A5AE",
"##	c #A3A4AD",
"$#	c #A2A4AD",
"%#	c #A3A5AD",
"&#	c #9E9EA5",
"*#	c #9D9EA6",
"=#	c #9D9DA5",
"-#	c #9E9EA6",
";#	c #9F9FA7",
">#	c #A1A1A9",
",#	c #A1A1AA",
"'#	c #A2A1AB",
")#	c #A5A3AD",
"!#	c #A5A4AD",
"~#	c #A4A3AC",
"{#	c #A3A2AC",
"]#	c #A5A4AE",
"^#	c #A7A6B0",
"/#	c #A8A7B1",
"(#	c #A8A6B0",
"_#	c #A1A2A9",
":#	c #A2A4AB",
"<#	c #A2A3AA",
"[#	c #A4A5AC",
"}#	c #A3A4AB",
"|#	c #A3A5AC",
"1#	c #A1A3AB",
"2#	c #A1A3AA",
"3#	c #A0A2A9",
"4#	c #A2A3AB",
"5#	c #A1A2AA",
"6#	c #A2A2AA",
"7#	c #A3A4AC",
"8#	c #A0A1A9",
"9#	c #9E9FA7",
"0#	c #9C9DA5",
"a#	c #9C9CA5",
"b#	c #9E9EA7",
"c#	c #9D9DA6",
"d#	c #9D9EA7",
"e#	c #9E9EA8",
"f#	c #9C9CA6",
"g#	c #9D9DA7",
"h#	c #9E9DA7",
"i#	c #9F9FA9",
"j#	c #A0A0AA",
"k#	c #9F9EA7",
"l#	c #9F9FA8",
"m#	c #A09FA8",
"n#	c #9E9DA8",
"o#	c #A0A0A9",
"p#	c #9C9BA5",
"q#	c #9C9DA6",
"r#	c #9D9CA6",
"s#	c #A09FA9",
"t#	c #9E9DA6",
"u#	c #9B9BA5",
"v#	c #9B9AA5",
"w#	c #9D9CA8",
"x#	c #9B9AA4",
"y#	c #9B9BA6",
"z#	c #A09FAA",
"A#	c #9F9EA8",
"B#	c #9F9EA9",
"C#	c #A1A0AB",
"D#	c #A2A0AA",
"E#	c #A2A2AC",
"F#	c #A0A0AB",
"G#	c #A1A1AC",
"H#	c #A09EAA",
"I#	c #A19FAA",
"J#	c #A2A1AD",
"K#	c #A3A2AD",
"L#	c #A2A1AC",
"M#	c #A3A3AD",
"N#	c #A5A3AE",
"O#	c #A5A4AF",
"P#	c #A6A5AF",
"Q#	c #A7A5B0",
"R#	c #A8A6B1",
"S#	c #A9A7B2",
"T#	c #A9A8B2",
"U#	c #A9A8B1",
"V#	c #AAA8B2",
"W#	c #A5A4B0",
"X#	c #A6A6B2",
"Y#	c #A8A6B3",
"Z#	c #A7A5B2",
"`#	c #A4A3AE",
" $	c #A8A6B2",
".$	c #A8A7B2",
"+$	c #A7A6B1",
"@$	c #A7A5B1",
". . + @ # $ % & * = - ; > , ' ) ! ~ { ] ] ] > ^ ",
", + $ / ( $ @ $ * ; _ $ % : % + % < @ % % % = % ",
"[ } [ | 1 2 1 3 4 5 2 1 6 2 7 1 8 9 8 0 9 8 a [ ",
"b c d b d e f g c h c g i c c j c c c h k l h m ",
"n d b b d n o p q r s t u v p i w x n y o x z A ",
"B B C D E B F G H I J K I L G M N O B P Q R S R ",
"T U Q R V W X I Y Z `  .Z Y I ..+.@.#.$.%.&.@.*.",
"=.-.;.>.,.X '.).!.~.{.].~.!.).'.X ,.^./.(._.:.<.",
"[.}.[.(.|.1.2.3.4.5.6.6.5.7.8.9.0.G /.a.b.c.c.c.",
"a.d.d.e.f.g.h.L i.Z 3.Z 8.j.k.l.m.f.n.o.p.p.q.q.",
"o.q.r.s.t.u.v.w.L x.y.y.z.H w.v.A.B.C.D.E.F.q.G.",
"H.I.J.K.L.v.M.N.O.P.Q.Q.R.S.N.l.T.U.K.V.W.X.J.Y.",
"V.Z.`. +.+Y ++i.@+#+$+%+&+*+=+-+w.;+ +>+,+'+>+)+",
"'+!+~+{+]+l.^+/+(+_+:+:+_+ .|.^+<+M.[+}+}+|+1+2+",
"3+4+3+5+R.w.Q. .6+7+8+9+0+6+%+@+a+b+c+d+e+f+g+h+",
"i+j+k+l+m+Y n+o+p+q+5.5.r+p+6+8.M.s+t+u+v+w+x+y+",
"u+z+A+B+~+C+w.G D+E+F+G+6.H+I+M.C+J+K+L+M+N+O+P+",
"i+Q+i+R+S+T+$+-+P.U+D+V+W+8.z.(+X+Y+Z+`+`+ @.@.@",
"+@@@#@$@%@&@*@=@-@O.;@>@,@-@'@)@!@~@!@{@]@I.J.^@",
"/@(@_@:@_@:@<@[@}@|@1@1@2@3@[@I.4@5@_@6@E.7@8@9@",
"0@G.a@b@c@0@d@e@f@g@h@i@f@f@r.r.f@f@i@j@k@l@l@g@",
"m@n@o@p@o@q@r@q@n@q@q@r@s@t@t@u@v@w@x@v@-.y@z@A@",
"B@C@D@P E@E@P F@E@G@H@C@I@I@I@J@K@L@M@N@A M@J@O@",
"P@Q@Q@R@S@T@U@V@W@X@Y@Z@`@ #.#+#X@P@@#W@##$#%#W@",
"&#*#=#=#-#;#>#,#'#)#!#@#~#{#]#^#/#(#8 _#8 :#<#[#",
"[#:#}#}#}#:#:#}#|#|#8 1#2#3#_#4#}#<#4#4#5#5#6#7#",
"8#5#5#8#8#5#>#8#5#9#0#a#b#c#c#d#e#f#g#h#h#i#j#,#",
"k#l#m#l#b#e#k#n#o#c#p#a#q#f#g#c#g#r#g#q#r#s#j#o#",
"r#r#h#d#c#g#t#r#t#a#r#f#u#f#g#p#u#f#r#f#n#d#r#g#",
"g#r#r#c#g#r#h#b#c#b#f#v#f#w#h#v#x#y#f#e#j#t#f#g#",
"z#A#B#l#A#s#C#D#o#E#j#B#F#G#C#B#H#I#J#K#L#C#L#M#",
"N#N#O#P#Q#R#S#T#U#V#^#W#X#Y#Z#`#W# $.$.$+$@$^#+$"};
