/* XPM */
static char * close_button_xpm[] = {
"24 32 503 2",
"  	c None",
". 	c #9A9DA1",
"+ 	c #9B9DA2",
"@ 	c #9C9EA3",
"# 	c #9D9FA4",
"$ 	c #9DA0A4",
"% 	c #9C9FA4",
"& 	c #9DA0A3",
"* 	c #9EA1A4",
"= 	c #9C9FA3",
"- 	c #9C9FA2",
"; 	c #9C9EA2",
"> 	c #9A9CA0",
", 	c #9A9DA2",
"' 	c #989CA1",
") 	c #96999E",
"! 	c #999BA0",
"~ 	c #9C9EA4",
"{ 	c #999CA2",
"] 	c #999CA1",
"^ 	c #999C9F",
"/ 	c #9EA1A6",
"( 	c #9EA1A5",
"_ 	c #9DA0A2",
": 	c #9DA0A5",
"< 	c #9EA0A6",
"[ 	c #A4A7AC",
"} 	c #A4A6AB",
"| 	c #A5A7AC",
"1 	c #A3A6AB",
"2 	c #A2A5AA",
"3 	c #A4A5AA",
"4 	c #A2A4A9",
"5 	c #A1A4A8",
"6 	c #A3A5AA",
"7 	c #A4A6AC",
"8 	c #A2A4AA",
"9 	c #A1A3A9",
"0 	c #A1A4A9",
"a 	c #A3A6AA",
"b 	c #A9ACB1",
"c 	c #A8AAB0",
"d 	c #A8ABB0",
"e 	c #A7A9AE",
"f 	c #AAACB0",
"g 	c #AAABB1",
"h 	c #A7AAAF",
"i 	c #A9ABB1",
"j 	c #A8AAAF",
"k 	c #A7AAB0",
"l 	c #A6A9AF",
"m 	c #AAACB2",
"n 	c #A8ABB1",
"o 	c #AAADB2",
"p 	c #A9AAB0",
"q 	c #A9ABAE",
"r 	c #ABAAAD",
"s 	c #ADAEAD",
"t 	c #ABADAD",
"u 	c #A9ABB0",
"v 	c #A9ACB2",
"w 	c #ABADB3",
"x 	c #A8ACB0",
"y 	c #ACAEB5",
"z 	c #AEB0B7",
"A 	c #B0B2B8",
"B 	c #B0B3B9",
"C 	c #AFB1B7",
"D 	c #AEB0B6",
"E 	c #AFAEB4",
"F 	c #848684",
"G 	c #525152",
"H 	c #292C29",
"I 	c #100C10",
"J 	c #081008",
"K 	c #312831",
"L 	c #525552",
"M 	c #ACAEB1",
"N 	c #B2B4BA",
"O 	c #B1B3B9",
"P 	c #B1B3BA",
"Q 	c #B4B6BC",
"R 	c #B2B5BB",
"S 	c #B3B5BC",
"T 	c #B4B6BD",
"U 	c #B3B6BC",
"V 	c #B3B5BB",
"W 	c #ACADB1",
"X 	c #636563",
"Y 	c #4A4542",
"Z 	c #7B7573",
"` 	c #9C928C",
" .	c #9C8E94",
"..	c #6B656B",
"+.	c #B0B0B4",
"@.	c #B6B8BE",
"#.	c #B8B9C0",
"$.	c #B6B8BF",
"%.	c #B6B9BF",
"&.	c #B5B7BD",
"*.	c #B8BAC0",
"=.	c #B7B9C0",
"-.	c #B7BAC0",
";.	c #B8BBC1",
">.	c #B8BAC1",
",.	c #B2B5B7",
"'.	c #211818",
").	c #6B555A",
"!.	c #AD9A9C",
"~.	c #D6CBCE",
"{.	c #E7DFDE",
"].	c #E7E3DE",
"^.	c #B5B3BA",
"/.	c #BCBEC4",
"(.	c #BABCC3",
"_.	c #B9BBC2",
":.	c #B9BCC3",
"<.	c #BABDC4",
"[.	c #BBBEC5",
"}.	c #BABCC2",
"|.	c #B9BAC1",
"1.	c #848284",
"2.	c #312429",
"3.	c #5A3831",
"4.	c #9C6D6B",
"5.	c #CE969C",
"6.	c #D6B2AD",
"7.	c #DEB2B5",
"8.	c #C69694",
"9.	c #9C696B",
"0.	c #633439",
"a.	c #312821",
"b.	c #BCBEC5",
"c.	c #BCBDC4",
"d.	c #BDBFC6",
"e.	c #BBBDC4",
"f.	c #B3B5B9",
"g.	c #635D63",
"h.	c #4A1C18",
"i.	c #8C3439",
"j.	c #AD3C42",
"k.	c #BD5552",
"l.	c #C6615A",
"m.	c #BD655A",
"n.	c #BD615A",
"o.	c #BD5152",
"p.	c #A53C39",
"q.	c #843839",
"r.	c #521C21",
"s.	c #B6BABC",
"t.	c #C1C3CA",
"u.	c #C2C3CB",
"v.	c #C0C2C9",
"w.	c #BFC2C9",
"x.	c #ACABAF",
"y.	c #392C29",
"z.	c #732429",
"A.	c #9C2421",
"B.	c #B52421",
"C.	c #BD3831",
"D.	c #C64542",
"E.	c #C64942",
"F.	c #BD4939",
"G.	c #BD3431",
"H.	c #A52029",
"I.	c #732829",
"J.	c #423029",
"K.	c #ADABB0",
"L.	c #C3C6CC",
"M.	c #C4C6CE",
"N.	c #C1C4CA",
"O.	c #BFC1C9",
"P.	c #C6C8D1",
"Q.	c #C7C8D1",
"R.	c #C8C9D2",
"S.	c #A5AAA7",
"T.	c #420C10",
"U.	c #942431",
"V.	c #B52821",
"W.	c #C63831",
"X.	c #C64D39",
"Y.	c #CE5952",
"Z.	c #D6615A",
"`.	c #D66152",
" +	c #D65952",
".+	c #C64D42",
"++	c #B52C21",
"@+	c #942429",
"#+	c #4A0C10",
"$+	c #A6AAA7",
"%+	c #CACCD4",
"&+	c #CCCED6",
"*+	c #CACBD4",
"=+	c #C8CAD3",
"-+	c #CACCD6",
";+	c #CCCDD6",
">+	c #ADAAAF",
",+	c #5A1010",
"'+	c #A52C29",
")+	c #C64139",
"!+	c #CE514A",
"~+	c #DE615A",
"{+	c #E76D6B",
"]+	c #E7796B",
"^+	c #EF7973",
"/+	c #E7756B",
"(+	c #E76563",
"_+	c #D6554A",
":+	c #CE4139",
"<+	c #A52829",
"[+	c #521010",
"}+	c #CACBD2",
"|+	c #CBCCD3",
"1+	c #C9CBD1",
"2+	c #C9CBD2",
"3+	c #CBCCD2",
"4+	c #CCCCD3",
"5+	c #AEAFB0",
"6+	c #6B3842",
"7+	c #A53029",
"8+	c #CE554A",
"9+	c #DE695A",
"0+	c #F77573",
"a+	c #EF867B",
"b+	c #F78E84",
"c+	c #EF796B",
"d+	c #E76963",
"e+	c #A53429",
"f+	c #733842",
"g+	c #B0B4B2",
"h+	c #CFD0D6",
"i+	c #D0D1D7",
"j+	c #CECFD6",
"k+	c #CCCED5",
"l+	c #D1D3DA",
"m+	c #D2D3DB",
"n+	c #C2C4C9",
"o+	c #7B716B",
"p+	c #F7867B",
"q+	c #F7928C",
"r+	c #FF9A94",
"s+	c #F79E94",
"t+	c #FF928C",
"u+	c #9C2821",
"v+	c #847173",
"w+	c #C3C6C8",
"x+	c #D5D5DC",
"y+	c #D3D4DA",
"z+	c #D6D6DC",
"A+	c #D2D4DB",
"B+	c #D1D2DA",
"C+	c #D5D6DF",
"D+	c #D6D6E0",
"E+	c #D5D5DE",
"F+	c #CFD0D8",
"G+	c #A5A2A5",
"H+	c #7B3831",
"I+	c #C65552",
"J+	c #EF827B",
"K+	c #F7968C",
"L+	c #F7A294",
"M+	c #F7AA9C",
"N+	c #F7A29C",
"O+	c #CE5D52",
"P+	c #843439",
"Q+	c #A5A6A5",
"R+	c #D5D6DE",
"S+	c #D8D9E1",
"T+	c #D8D9E0",
"U+	c #D8DBE1",
"V+	c #D6D8E0",
"W+	c #D4D5DE",
"X+	c #D8DAE2",
"Y+	c #D8D8E2",
"Z+	c #D5D6E0",
"`+	c #CACDD2",
" @	c #948A8C",
".@	c #8C3029",
"+@	c #DE6D6B",
"@@	c #EF9A8C",
"#@	c #F7A6A5",
"$@	c #FFB2AD",
"%@	c #F7B6AD",
"&@	c #F7AE9C",
"*@	c #EF9A94",
"=@	c #DE7573",
"-@	c #943029",
";@	c #D0D1D6",
">@	c #DADCE5",
",@	c #DCDCE4",
"'@	c #DCDDE5",
")@	c #DADCE4",
"!@	c #DADCE3",
"~@	c #DADBE4",
"{@	c #D6D7E0",
"]@	c #D2D4DD",
"^@	c #D3D5DE",
"/@	c #C8CECD",
"(@	c #948E8C",
"_@	c #84554A",
":@	c #AD615A",
"<@	c #C68A7B",
"[@	c #DE9E94",
"}@	c #DEA694",
"|@	c #CE8A84",
"1@	c #AD655A",
"2@	c #84594A",
"3@	c #948E94",
"4@	c #C7CCCC",
"5@	c #D1D3DB",
"6@	c #CFD1D9",
"7@	c #D0D2DA",
"8@	c #CECFD7",
"9@	c #CECFD8",
"0@	c #C5C6D1",
"a@	c #C4C6D2",
"b@	c #C6C8D3",
"c@	c #C6C7D3",
"d@	c #C4C5D1",
"e@	c #C3C4D0",
"f@	c #C5C5CC",
"g@	c #C6BEC6",
"h@	c #8C867B",
"i@	c #845D5A",
"j@	c #7B4D4A",
"k@	c #844D4A",
"l@	c #8C615A",
"m@	c #948284",
"n@	c #C6C3C6",
"o@	c #C7C8CF",
"p@	c #C8C9D4",
"q@	c #C7C9D3",
"r@	c #C9C9D3",
"s@	c #C7C8D2",
"t@	c #CACAD4",
"u@	c #C9C8D2",
"v@	c #C8C7D0",
"w@	c #C7C7D1",
"x@	c #C7C7D0",
"y@	c #C7C6D0",
"z@	c #C5C5CE",
"A@	c #C7C7CE",
"B@	c #D0D1D3",
"C@	c #D6DBD6",
"D@	c #DCD9DC",
"E@	c #CBD2CE",
"F@	c #C8C6CE",
"G@	c #C6C6D0",
"H@	c #C5C4CE",
"I@	c #C6C8D0",
"J@	c #C4C5CE",
"K@	c #C5C5CF",
"L@	c #C6C6CF",
"M@	c #C0C2CA",
"N@	c #BFC0C9",
"O@	c #BEC1C9",
"P@	c #C0C1C9",
"Q@	c #BDC0C8",
"R@	c #BDC0C6",
"S@	c #BEC1C8",
"T@	c #BFC1C8",
"U@	c #BFC2CA",
"V@	c #C0C3CA",
"W@	c #BFC3C9",
"X@	c #BDC1C8",
"Y@	c #BEC1C7",
"Z@	c #C0C5C9",
"`@	c #BFC3C8",
" #	c #BEC3C7",
".#	c #BFC2C7",
"+#	c #BDC1C6",
"@#	c #BCC0C5",
"##	c #BBBFC4",
"$#	c #BBBEC3",
"%#	c #B8BCC1",
"&#	c #B8BBC0",
"*#	c #B9BDC2",
"=#	c #B9BCC2",
"-#	c #B7BBC0",
";#	c #B6BABE",
">#	c #B5B8BE",
",#	c #B0B1B8",
"'#	c #B0B3BA",
")#	c #B2B4BC",
"!#	c #B0B2B9",
"~#	c #B0B2BA",
"{#	c #AEB1B8",
"]#	c #AEB2BA",
"^#	c #AFB1B8",
"/#	c #ADAFB6",
"(#	c #AEAFB7",
"_#	c #AFB2B9",
":#	c #AEB0B8",
"<#	c #ADAFB7",
"[#	c #ADAEB5",
"}#	c #A6A7B0",
"|#	c #A7A8B1",
"1#	c #A5A5AF",
"2#	c #A5A6AF",
"3#	c #A6A7AF",
"4#	c #A7A8B0",
"5#	c #A5A6AE",
"6#	c #A4A5AE",
"7#	c #A4A6AF",
"8#	c #A6A8B0",
"9#	c #A5A7B0",
"0#	c #A3A4AE",
"a#	c #A2A3AD",
"b#	c #A3A5AE",
"c#	c #A4A4AD",
"d#	c #A5A5AE",
"e#	c #A3A4AD",
"f#	c #A2A4AD",
"g#	c #A3A5AD",
"h#	c #9E9EA5",
"i#	c #9D9EA6",
"j#	c #9D9DA5",
"k#	c #9E9EA6",
"l#	c #9F9FA7",
"m#	c #A1A1A9",
"n#	c #A1A1AA",
"o#	c #A2A1AB",
"p#	c #A5A3AD",
"q#	c #A5A4AD",
"r#	c #A4A3AC",
"s#	c #A3A2AC",
"t#	c #A5A4AE",
"u#	c #A7A6B0",
"v#	c #A8A7B1",
"w#	c #A8A6B0",
"x#	c #A1A2A9",
"y#	c #A2A4AB",
"z#	c #A2A3AA",
"A#	c #A4A5AC",
"B#	c #A3A4AB",
"C#	c #A3A5AC",
"D#	c #A1A3AB",
"E#	c #A1A3AA",
"F#	c #A0A2A9",
"G#	c #A2A3AB",
"H#	c #A1A2AA",
"I#	c #A2A2AA",
"J#	c #A3A4AC",
"K#	c #A0A1A9",
"L#	c #9E9FA7",
"M#	c #9C9DA5",
"N#	c #9C9CA5",
"O#	c #9E9EA7",
"P#	c #9D9DA6",
"Q#	c #9D9EA7",
"R#	c #9E9EA8",
"S#	c #9C9CA6",
"T#	c #9D9DA7",
"U#	c #9E9DA7",
"V#	c #9F9FA9",
"W#	c #A0A0AA",
"X#	c #9F9EA7",
"Y#	c #9F9FA8",
"Z#	c #A09FA8",
"`#	c #9E9DA8",
" $	c #A0A0A9",
".$	c #9C9BA5",
"+$	c #9C9DA6",
"@$	c #9D9CA6",
"#$	c #A09FA9",
"$$	c #9E9DA6",
"%$	c #9B9BA5",
"&$	c #9B9AA5",
"*$	c #9D9CA8",
"=$	c #9B9AA4",
"-$	c #9B9BA6",
";$	c #A09FAA",
">$	c #9F9EA8",
",$	c #9F9EA9",
"'$	c #A1A0AB",
")$	c #A2A0AA",
"!$	c #A2A2AC",
"~$	c #A0A0AB",
"{$	c #A1A1AC",
"]$	c #A09EAA",
"^$	c #A19FAA",
"/$	c #A2A1AD",
"($	c #A3A2AD",
"_$	c #A2A1AC",
":$	c #A3A3AD",
"<$	c #A5A3AE",
"[$	c #A5A4AF",
"}$	c #A6A5AF",
"|$	c #A7A5B0",
"1$	c #A8A6B1",
"2$	c #A9A7B2",
"3$	c #A9A8B2",
"4$	c #A9A8B1",
"5$	c #AAA8B2",
"6$	c #A5A4B0",
"7$	c #A6A6B2",
"8$	c #A8A6B3",
"9$	c #A7A5B2",
"0$	c #A4A3AE",
"a$	c #A8A6B2",
"b$	c #A8A7B2",
"c$	c #A7A6B1",
"d$	c #A7A5B1",
". . + @ # $ % & * = - ; > , ' ) ! ~ { ] ] ] > ^ ",
", + $ / ( $ @ $ * ; _ $ % : % + % < @ % % % = % ",
"[ } [ | 1 2 1 3 4 5 2 1 6 2 7 1 8 9 8 0 9 8 a [ ",
"b c d b d e f g c h c g i c c j c c c h k l h m ",
"n d b b d n o p q r s r t f u i v w n x o w y z ",
"A A B C D A E F G H I J K L F M N O A P Q R S R ",
"T U Q R V W X H Y Z `  .Z Y H ..+.@.#.$.%.&.@.*.",
"=.-.;.>.,.X '.).!.~.{.].~.!.).'.X ^./.(._.:.<.[.",
"}.|.}._.1.2.3.4.5.6.7.7.6.8.9.0.a.F (.b.c.d.d.d.",
"b.e.e.f.g.h.i.j.k.l.m.l.n.o.p.q.r.g.s.t.u.u.v.v.",
"t.v.w.x.y.z.A.B.C.D.E.E.F.G.B.H.I.J.K.L.M.N.v.O.",
"P.Q.R.S.T.U.V.W.X.Y.Z.`. +.+W.++@+#+$+%+&+*+R.=+",
"%+-+;+>+,+'+)+!+~+{+]+^+/+(+_+:+<+[+>+}+|+1+}+2+",
"1+3+4+5+6+7+8+9+0+a+b+b+a+c+d+8+e+f+g+h+h+i+j+k+",
"l+m+l+n+o+<+Z.c+p+q+r+s+t+p+^+~+u+v+w+x+y+z+A+B+",
"C+D+E+F+G+H+I+J+K+L+M+M+N+K+p+O+P+Q+R+S+T+U+V+W+",
"S+X+Y+Z+`+ @.@+@@@#@$@%@&@*@=@-@ @;@>@,@'@)@!@~@",
"C+{@C+]@^@/@(@_@:@<@[@}@|@1@2@3@4@5@6@7@7@8@9@9@",
"0@a@b@c@d@e@f@g@h@i@j@k@l@m@n@o@p@q@p@r@s@Q.R.t@",
"u@v@w@x@w@x@y@z@A@B@C@D@E@F@z@Q.G@H@w@I@M.J@K@L@",
"M@O.N@O@P@M@Q@R@S@T@U@V@S@S@w.w.S@S@V@W@X@Y@Y@T@",
"Z@`@ #.# #+#@#+#`@+#+#@###$#$#%#&#*#=#&#-.-#;#>#",
",#'#)#P !#!#P ~#!#{#]#'#^#^#^#/#(#_#:#<#z :#/#[#",
"}#|#|#1#2#3#4#5#6#7#8#9#0#a#b#c#7#}#d#6#e#f#g#6#",
"h#i#j#j#k#l#m#n#o#p#q#d#r#s#t#u#v#w#8 x#8 y#z#A#",
"A#y#B#B#B#y#y#B#C#C#8 D#E#F#x#G#B#z#G#G#H#H#I#J#",
"K#H#H#K#K#H#m#K#H#L#M#N#O#P#P#Q#R#S#T#U#U#V#W#n#",
"X#Y#Z#Y#O#R#X#`# $P#.$N#+$S#T#P#T#@$T#+$@$#$W# $",
"@$@$U#Q#P#T#$$@$$$N#@$S#%$S#T#.$%$S#@$S#`#Q#@$T#",
"T#@$@$P#T#@$U#O#P#O#S#&$S#*$U#&$=$-$S#R#W#$$S#T#",
";$>$,$Y#>$#$'$)$ $!$W#,$~${$'$,$]$^$/$($_$'$_$:$",
"<$<$[$}$|$1$2$3$4$5$u#6$7$8$9$0$6$a$b$b$c$d$u#c$"};
