/* XPM */
static char *acceptbutton[] = {
/* columns rows colors chars-per-pixel */
"16 20 3 1",
"  c black",
". c #020202",
"X c None",
/* pixels */
"XXXXXXXXXXXXXXXX",
"XXXXXXXXXXXXXXXX",
"XXXXXXXXXXXXXXXX",
"XXXXXXXXXXXXXXXX",
"XXXXXXXXXXXXXXXX",
"XXXXXXXXXXX. XXX",
"XXXXXXXXXX....XX",
"XXXXXXXXX.... XX",
"XX..XXXX.....XXX",
"X....XX.....XXXX",
"X..........XXXXX",
"XX........XXXXXX",
"XXX......XXXXXXX",
"XXXX....XXXXXXXX",
"XXXXX..XXXXXXXXX",
"XXXXXXXXXXXXXXXX",
"XXXXXXXXXXXXXXXX",
"XXXXXXXXXXXXXXXX",
"XXXXXXXXXXXXXXXX",
"XXXXXXXXXXXXXXXX"
};
