/* XPM */
static char *closebutton[] = {
/* columns rows colors chars-per-pixel */
"16 20 3 1",
"  c black",
". c #020202",
"X c None",
/* pixels */
"XXXXXXXXXXXXXXXX",
"XXXXXXXXXXXXXXXX",
"XXXXXXXXXXXXXXXX",
"XXXXXXXXXXXXXXXX",
"XXXXXXXXXXXXXXXX",
"XXXX..XXXX..XXXX",
"XXX ...XX....XXX",
"XXX .........XXX",
"XXXX........XXXX",
"XXXXX......XXXXX",
"XXXXX......XXXXX",
"XXXX........XXXX",
"XXX..........XXX",
"XXX....XX....XXX",
"XXXX..XXXX..XXXX",
"XXXXXXXXXXXXXXXX",
"XXXXXXXXXXXXXXXX",
"XXXXXXXXXXXXXXXX",
"XXXXXXXXXXXXXXXX",
"XXXXXXXXXXXXXXXX"
};
