/* XPM */
static char *menubutton[] = {
/* columns rows colors chars-per-pixel */
"16 20 3 1",
"  c black",
". c #020202",
"X c None",
/* pixels */
"XXXXXXXXXXXXXXXX",
"XXXXXXXXXXXXXXXX",
"XXXXXXXXXXXXXXXX",
"XXXXXXXXXXXXXXXX",
"XXXXXXXXXXXXXXXX",
"XXXXXXXXXXXXXXXX",
"XXXXXXXXXXXXXXXX",
"XXXX  XXXX..XXXX",
"XXX....XX....XXX",
"XXX..........XXX",
"XXXX........XXXX",
"XXXXX......XXXXX",
"XXXXXX....XXXXXX",
"XXXXXXX..XXXXXXX",
"XXXXXXXXXXXXXXXX",
"XXXXXXXXXXXXXXXX",
"XXXXXXXXXXXXXXXX",
"XXXXXXXXXXXXXXXX",
"XXXXXXXXXXXXXXXX",
"XXXXXXXXXXXXXXXX"
};
