/* XPM */
static char *config3_xpm[] = {
/* width height num_colors chars_per_pixel */
"    20    20        8            1",
/* colors */
"` c #c17605",
". c #ccb793",
"# c #c99030",
"a c #d88504",
"b c #c9810a",
"c c None",
"d c #c69d5d",
"e c #e89005",
/* pixels */
"cccccccccccccccccccc",
"cccccccccc.ccccccccc",
"cccccccc.ae.cccccccc",
"cccccdcc#ee#cc.ccccc",
"ccccbe##eeeea#aacccc",
"cccdaeeeaaaeeeeadccc",
"cccc#aaaaaabbaa#cccc",
"ccccbabaabbabbb`cccc",
"cc.#`abb#c.db```#.cc",
"c.``bbb`cccc```b``.c",
"cc```bb`.ccc``b```.c",
"ccd#````dcc#``b`#dcc",
"cccc``b`````````cccc",
"cccc#``````bab`#cccc",
"cccd````bbbbabb`dccc",
"cccc``##`bbbb#``cccc",
"cccccdccdbbdcc..cccc",
"cccccccc.bb.cccccccc",
"cccccccccc.ccccccccc",
"cccccccccccccccccccc"
};
