/* XPM */
static char * session_xpm[] = {
"32 32 128 2",
"  	c None",
". 	c #7591A8",
"+ 	c #A8A8B8",
"@ 	c #4D4F74",
"# 	c #E5CB99",
"$ 	c #FAFDFC",
"% 	c #47ACFF",
"& 	c #FF6634",
"* 	c #99D4FE",
"= 	c #B9CAC7",
"- 	c #666666",
"; 	c #3CABFF",
"> 	c #E8EAFA",
", 	c #939AA8",
"' 	c #6EB0D9",
") 	c #EAF5E9",
"! 	c #8A92A9",
"~ 	c #C1CAD6",
"{ 	c #877F9B",
"] 	c #A9B4AD",
"^ 	c #9CADB5",
"/ 	c #626F98",
"( 	c #D7E2E8",
"_ 	c #EDF6F5",
": 	c #3AAFFF",
"< 	c #94A8A8",
"[ 	c #98A9C9",
"} 	c #9ACACA",
"| 	c #4A9FF8",
"1 	c #B8CABB",
"2 	c #D3D9E5",
"3 	c #A9A9A9",
"4 	c #98989B",
"5 	c #D5D9D6",
"6 	c #A4B6C7",
"7 	c #AB8A58",
"8 	c #999EB3",
"9 	c #8185AB",
"0 	c #56587D",
"a 	c #E4E6EB",
"b 	c #32AAFF",
"c 	c #838599",
"d 	c #EAF3DF",
"e 	c #40B1FF",
"f 	c #DBE7F2",
"g 	c #7779B1",
"h 	c #E5DAEF",
"i 	c #EDEDED",
"j 	c #B3BFBE",
"k 	c #359DFA",
"l 	c #AF8767",
"m 	c #B7B9AA",
"n 	c #59658A",
"o 	c #C4D1CC",
"p 	c #AAB2BC",
"q 	c #75757C",
"r 	c #ABC9D3",
"s 	c #BAC1B9",
"t 	c #C3C4C8",
"u 	c #99CBFF",
"v 	c #6EB6FD",
"w 	c #AEADB8",
"x 	c #64ADF0",
"y 	c #787991",
"z 	c #E1EBE0",
"A 	c #B1B2B3",
"B 	c #C8FAFC",
"C 	c #BAB6C5",
"D 	c #BAE2FE",
"E 	c #E4E5E3",
"F 	c #ABB4B5",
"G 	c #AABBBC",
"H 	c #ACAFA5",
"I 	c #B8BFCD",
"J 	c #E6EEEC",
"K 	c #99FFFF",
"L 	c #62628A",
"M 	c #B4AFBF",
"N 	c #FF9934",
"O 	c #FF9966",
"P 	c #CB9999",
"Q 	c #9999CB",
"R 	c #CB9966",
"S 	c #ADBEB2",
"T 	c #EEEEF4",
"U 	c #B8BEC4",
"V 	c #B8BAB9",
"W 	c #B0BACB",
"X 	c #D5F6FE",
"Y 	c #AAACDE",
"Z 	c #F6F1F1",
"` 	c #A4BFD5",
" .	c #BBB3D1",
"..	c #42A5FC",
"+.	c #DEDAF4",
"@.	c #429FE8",
"#.	c #2CA8FF",
"$.	c #BBD1E7",
"%.	c #BFC1F4",
"&.	c #D9CDE3",
"*.	c #B58481",
"=.	c #57B0DD",
"-.	c #697282",
";.	c #9292B1",
">.	c #55606D",
",.	c #8FA2BB",
"'.	c #8ABCBB",
").	c #75C4FF",
"!.	c #AFCACE",
"~.	c #87B8F2",
"{.	c #B5B7E8",
"].	c #BFC2D4",
"^.	c #9E9FAC",
"/.	c #A0AEB0",
"(.	c #8D7FAE",
"_.	c #A9A5A1",
":.	c #8894B8",
"<.	c #B9B3B0",
"[.	c #A4B6B7",
"}.	c #A3B2BA",
"|.	c #DCE2D8",
"1.	c #CBCBFF",
"2.	c #DDDDDD",
"3.	c #878787",
"4.	c #CBCBCB",
"5.	c #CBFFFF",
"6.	c #BBBBBB",
"7.	c #666699",
"                                                                ",
"                  3.3.3.3.3.3.                                  ",
"              3.3.4.2.i i 2.4.3.3.                              ",
"            3.4.i 2.4.6.6.6.6.6.Q 3.                            ",
"          3.i 2.4.6.6.6.6.6.6.6.6.3 3.                          ",
"        3.i 2.4.6.6.4.2.1.5.5.1.6.4.3 7.                        ",
"      3.2.i 4.6.6.2.5.1.4 O P 2.u 4.4.7.                        ",
"      3.i 2.6.6.2.5.5.2.P & N N 4.u 6.3 3.3.3.3.3.3.            ",
"    3.i 2.6.6.2.5.B ` 6 { 9 *.N N 2.3.3.4.2.i i 2.4.3.3.        ",
"    3.2.4.V t $.[ ,.9 8 V ^ L l N 3.4.i 2.4.6.6.6.6.6.Q 3.      ",
"  3.1.4.+ ;.! ! ,.C |.Z a [.L 7 3.i 2.4.6.6.6.6.6.6.6.6.3 3.    ",
"  c + 9 ! < W 5 _ $ X * ~.^ L q i 2.4.6.6.4.2.1.5.5.1.6.4.3 7.  ",
"  9 , j 2 Z $ _ * v % ; x + L w i 4.6.6.2.5.1.4 O P 2.u 4.4.7.  ",
"  ! z $ > D ).e : ; e b x < 0 C 2.6.6.2.5.5.2.P & N N 4.u 6.3 7.",
"  ! T D % b b % ; e : ..=.< 0 w 6.6.2.5.5.5.5.O N O N N 2.} 4.7.",
"  ! i * #.; % : e ; e b v , @ ^.6.4.5.5.5.5.5.O R 3.R N # 1.4.- ",
"  ! d * b ; % : e ; e : ' ;.@ , 6.2.5.5.5.5.5.O 4 q N N P 1.4.7.",
"  ! ) * b e e e e e e ; ' < 0 4 6.5.} 3.3 1.5.6.4 7 N 4 Q 1.4.- ",
"  ! _ * b ; e : e : ; k x j y -.%.5.5.1.} 3.Q 3.3 # 4.5.5.4.4.7.",
"  ! T * b e e ; ..@...' r a 2 , 9 %.} u 5.5.} . 1.5.u 1.5.4.6.- ",
"  ! d * b : | @.=.' r = m s ( f /.:.g 1.5.1.5.5.1.K 1.5.5.6.7.  ",
"  ! _ * k | ' } ].o m 3 W G <.5 a = c [ u 5.1.K 1.5.5.5.1.4.-   ",
"  ! z $.'.1 ~ s S A + !.m w G H 1 z +.;.y [ K 1.5.5.5.2.6.7.    ",
"  ! o 2 o M ] w M j j p A S G A _.I z E W . Y } 5.5.5.4.4.-     ",
"  ! /.J 2 U 6.A V ] F p p ] S M I 5 ( T $.! g Q 5.i 4.4.7.      ",
"    (.] h f o H 6 p w H U C t f _ h ].^.y n 0 5.1.6.4.7.        ",
"      / / 5 > ~ U w  .~ 2 a T 5 F ! n 0 >.c ^.6.4.6.7.          ",
"        7.4 5 _ &.2 ( J ( = 8 { 0 0 @ ^.{.4.1.6.3.7.            ",
"          / / o ) E $.V c / @ /     L 7.- 7.- 7.                ",
"              / }.8 y 0 /                                       ",
"            $   @ @ @   a                                       ",
"                                                                "};
