/* XPM */

/* copyright (c) 2000 Trevor Johnson
 * released under the GPL
 */

/* To avoid causing problems for Debian users with 256-color displays,
 * the colors in this icon are chosen from the cmap.xpm found in the
 * Debian package called menu.
 *
 * URL:http://packages.debian.org/search?keywords=menu
 */

static char * aumix_xpm[] = {

"32 32 6 1",
" 	c None",
".	c #000000",
"+	c #B2B2B2",
"@	c #666667",
"#	c #FFFFFF",
"$	c #333333",
"###########+@$....$@+########+$.",
"########+@............@+####+...",
"#######@................@##+....",
"######$..................$+.....",
"####+.....................+$....",
"###+$....................###$...",
"###$....................@###+...",
"##@....................$#####+..",
"#+.....................+######$.",
"#@....................$#######+.",
"#.....................+########.",
"+....................$#########@",
"@....................+#########+",
"$...................$##########+",
"....................+###########",
"....................+###########",
"...................$############",
"$..................+############",
"$..................+###########+",
"@.................$############+",
"+.................@############@",
"#.................+############.",
"#@................+###########+.",
"#+................############$.",
"##@..............$###########+..",
"###$.............@##########+...",
"###+.............+##########$...",
"####+$...........+########+$....",
"#####+$..........+#######+$.....",
"#######@.........+######+.......",
"########+@.......#####+$........",
"###########+@$...#++@..........."};

/* $Aumix: aumix/data/aumix.xpm,v 1.2 2010/04/21 03:38:28 trevor Exp $ */
